<?xml version="1.0" encoding="UTF-8" standalone="no"?>
<!-- Created with Inkscape (http://www.inkscape.org/) -->

<svg
   xmlns:dc="http://purl.org/dc/elements/1.1/"
   xmlns:cc="http://creativecommons.org/ns#"
   xmlns:rdf="http://www.w3.org/1999/02/22-rdf-syntax-ns#"
   xmlns:svg="http://www.w3.org/2000/svg"
   xmlns="http://www.w3.org/2000/svg"
   xmlns:sodipodi="http://sodipodi.sourceforge.net/DTD/sodipodi-0.dtd"
   xmlns:inkscape="http://www.inkscape.org/namespaces/inkscape"
   width="136.2038"
   height="177.43095"
   id="svg3069"
   version="1.1"
   inkscape:version="0.48.4 r9939"
   sodipodi:docname="body.svg">
  <defs
     id="defs3071" />
  <sodipodi:namedview
     id="base"
     pagecolor="#ffffff"
     bordercolor="#666666"
     borderopacity="1.0"
     inkscape:pageopacity="0.0"
     inkscape:pageshadow="2"
     inkscape:zoom="2.8"
     inkscape:cx="114.94948"
     inkscape:cy="105.53878"
     inkscape:document-units="px"
     inkscape:current-layer="layer1"
     showgrid="false"
     fit-margin-top="5"
     fit-margin-left="5"
     fit-margin-right="5"
     fit-margin-bottom="5"
     inkscape:window-width="1600"
     inkscape:window-height="870"
     inkscape:window-x="1366"
     inkscape:window-y="0"
     inkscape:window-maximized="1" />
  <metadata
     id="metadata3074">
    <rdf:RDF>
      <cc:Work
         rdf:about="">
        <dc:format>image/svg+xml</dc:format>
        <dc:type
           rdf:resource="http://purl.org/dc/dcmitype/StillImage" />
        <dc:title />
      </cc:Work>
    </rdf:RDF>
  </metadata>
  <g
     inkscape:label="レイヤー 1"
     inkscape:groupmode="layer"
     id="layer1"
     transform="translate(-304.38924,-146.21203)">
    <path
       sodipodi:nodetypes="ccccc"
       inkscape:connector-curvature="0"
       id="path4310"
       d="m 314.94581,158.28257 115.08335,0 0,153.28987 -115.08335,0 z"
       style="fill:#708066;fill-opacity:1;stroke:none" />
    <path
       style="fill:#a8b89e;fill-opacity:1;stroke:none"
       d="m 367.41548,263.77369 0,6.40701 -9.20597,0 -3.69551,42.09383 36.86763,0 -3.06137,-42.09383 -9.84011,0 0,-6.40701 -11.06467,0 z"
       id="rect4305"
       inkscape:connector-curvature="0" />
    <path
       style="fill:#3c3e3a;fill-opacity:1;stroke:none"
       d="m 309.38924,151.21203 0,167.43096 126.20379,0 0,-167.43096 z m 8.19422,12.93949 109.81535,0 0,135.34391 -109.81535,0 z"
       id="rect3791"
       inkscape:connector-curvature="0"
       sodipodi:nodetypes="cccccccccc" />
    <path
       inkscape:connector-curvature="0"
       id="path4320"
       d="m 377.9435,309.38433 c 0,2.98853 -2.42268,5.41121 -5.41121,5.41121 -2.98852,0 -5.4112,-2.42268 -5.4112,-5.41121 0,-2.98853 2.42268,-5.41121 5.4112,-5.41121 2.98853,0 5.41121,2.42268 5.41121,5.41121 z"
       style="opacity:0.97000002;fill:#272a26;fill-opacity:1;stroke:none" />
  </g>
</svg>
