<?xml version="1.0" encoding="UTF-8" standalone="no"?>
<!-- Created with Inkscape (http://www.inkscape.org/) -->

<svg
   xmlns:dc="http://purl.org/dc/elements/1.1/"
   xmlns:cc="http://creativecommons.org/ns#"
   xmlns:rdf="http://www.w3.org/1999/02/22-rdf-syntax-ns#"
   xmlns:svg="http://www.w3.org/2000/svg"
   xmlns="http://www.w3.org/2000/svg"
   xmlns:sodipodi="http://sodipodi.sourceforge.net/DTD/sodipodi-0.dtd"
   xmlns:inkscape="http://www.inkscape.org/namespaces/inkscape"
   width="139.42458"
   height="117.62788"
   id="svg3069"
   version="1.1"
   inkscape:version="0.48.4 r9939"
   sodipodi:docname="hair.svg">
  <defs
     id="defs3071" />
  <sodipodi:namedview
     id="base"
     pagecolor="#ffffff"
     bordercolor="#666666"
     borderopacity="1.0"
     inkscape:pageopacity="0.0"
     inkscape:pageshadow="2"
     inkscape:zoom="5.6"
     inkscape:cx="33.941595"
     inkscape:cy="54.823838"
     inkscape:document-units="px"
     inkscape:current-layer="layer1"
     showgrid="false"
     fit-margin-top="5"
     fit-margin-left="5"
     fit-margin-right="5"
     fit-margin-bottom="5"
     inkscape:window-width="1600"
     inkscape:window-height="870"
     inkscape:window-x="1366"
     inkscape:window-y="0"
     inkscape:window-maximized="1" />
  <metadata
     id="metadata3074">
    <rdf:RDF>
      <cc:Work
         rdf:about="">
        <dc:format>image/svg+xml</dc:format>
        <dc:type
           rdf:resource="http://purl.org/dc/dcmitype/StillImage" />
        <dc:title></dc:title>
      </cc:Work>
    </rdf:RDF>
  </metadata>
  <g
     inkscape:label="レイヤー 1"
     inkscape:groupmode="layer"
     id="layer1"
     transform="translate(-108.58962,-125.41245)">
    <path
       style="fill:#a8b89e;opacity:0.8"
       d="m 154.77712,130.50908 c -1.15977,-0.15021 -1.6875,0.625 -1.6875,0.625 -1.59531,-0.57432 -4.5664,1.72752 -8.125,5.8125 -6.09992,-2.12233 -11.90625,-1.375 -11.90625,-1.375 -18.88913,3.17941 -19.46875,10.21875 -19.46875,10.21875 2.71841,-2.32032 5.74509,-1.08237 8,1.40625 2.23272,2.4641 4.25805,7.6102 8.25,12.46875 -2.39529,4.44402 -4.60917,9.05324 -6.46875,13.59375 -0.74502,1.8188 -7.11901,17.33295 -4.875,37.53125 2.244,20.1983 11.21875,22.625 11.21875,22.625 -4.48857,-13.27842 -2.98238,-23.56719 3.9375,-45.28125 1.39611,-4.38066 3.49389,-8.48632 5.9375,-12.25 -0.0721,1.43748 -0.13221,3.07363 -0.15625,4.96875 -0.18702,14.56997 9.71875,22.28125 9.71875,22.28125 -4.81342,-10.15185 -5.3163,-19.69354 -4.5,-26.96875 0.10791,6.44129 3.5625,9 3.5625,9 -2.66474,-7.21532 -0.68315,-14.07847 1.21875,-18.28125 4.15985,-1.66921 7,-4.5625 7,-4.5625 0,0 1.52359,-2.15716 1.8125,-5.90625 0.997,-0.68819 4.34202,-5.66944 4.96875,-5.99554 0.279,-2.9538 0.60014,-7.55966 -0.25,-9.75446 -1.15541,-2.98232 -2.1956,-5.60428 -5.375,-8.53125 -1.19228,-1.09761 -2.11664,-1.53488 -2.8125,-1.625 z"
       id="path3240"
       inkscape:connector-curvature="0"
       sodipodi:nodetypes="sccccsccsccccccccccccss" />
    <path
       style="fill:#8cd366;opacity:0.8"
       inkscape:connector-curvature="0"
       id="path3246"
       d="M 140.62147,172.23748" />
    <path
       style="fill:#a8b89e;opacity:0.8"
       d="m 202.16998,130.41533 c -0.68389,-0.0212 -1.32504,0.0737 -1.9375,0.3125 0,0 -2.98991,1.67127 -3.15625,3 0,0 -2.66058,12.77679 -4.32143,12.77679 l 3.79018,2.06696 c 0.44441,5.23053 1.39407,12.87497 3.21875,13.625 0.47246,0.19423 0.95155,0.3801 1.4375,0.53125 l 1.34375,4.21875 c 0,0 5.5709,12.82156 3.53125,22.4375 0,0 3.62777,-6.7764 1.46875,-19.84375 0,0 2.77075,5.96393 2.71875,12.21875 0.43108,-1.68014 0.92597,-3.53585 1.40625,-5.34375 1.16995,7.13095 0.80895,16.42433 -5.59375,24.40625 0,0 18.61273,-14.05103 8.34375,-34.59375 0,0 14.29531,6.16143 18.71875,27.1875 3.92638,18.66465 3.02927,35.48375 -7.21875,44.625 6.23665,-5.24086 16.99759,-17.64416 17.09375,-40.96875 0.0903,-21.93463 -13.125,-38.625 -13.125,-38.625 0,0 -0.65063,-0.96109 -1.53125,-2.28125 5.7907,-5.65454 12.1875,-13.96875 12.1875,-13.96875 -1.49647,1.4962 -8.31991,-2.94191 -10.84375,-4.5625 -5.35101,-3.12154 -6.73769,-4.72744 -15.71875,-5.71875 -2.44727,-0.27021 -4.59142,-0.0552 -6.46875,0.5 -1.89082,-1.20875 -3.71722,-1.94955 -5.34375,-2 z"
       id="path3222"
       inkscape:connector-curvature="0"
       sodipodi:nodetypes="ccccccccccccccccsccccccc" />
  </g>
</svg>
