<?xml version="1.0" encoding="UTF-8" standalone="no"?>
<!-- Created with Inkscape (http://www.inkscape.org/) -->

<svg
   xmlns:dc="http://purl.org/dc/elements/1.1/"
   xmlns:cc="http://creativecommons.org/ns#"
   xmlns:rdf="http://www.w3.org/1999/02/22-rdf-syntax-ns#"
   xmlns:svg="http://www.w3.org/2000/svg"
   xmlns="http://www.w3.org/2000/svg"
   xmlns:sodipodi="http://sodipodi.sourceforge.net/DTD/sodipodi-0.dtd"
   xmlns:inkscape="http://www.inkscape.org/namespaces/inkscape"
   width="170.01816"
   height="198.58124"
   id="svg3069"
   version="1.1"
   inkscape:version="0.48.4 r9939"
   sodipodi:docname="body.svg">
  <defs
     id="defs3071" />
  <sodipodi:namedview
     id="base"
     pagecolor="#ffffff"
     bordercolor="#666666"
     borderopacity="1.0"
     inkscape:pageopacity="0.0"
     inkscape:pageshadow="2"
     inkscape:zoom="1.979899"
     inkscape:cx="173.08796"
     inkscape:cy="145.62176"
     inkscape:document-units="px"
     inkscape:current-layer="layer1"
     showgrid="false"
     fit-margin-top="5"
     fit-margin-left="5"
     fit-margin-right="5"
     fit-margin-bottom="5"
     inkscape:window-width="1600"
     inkscape:window-height="870"
     inkscape:window-x="1366"
     inkscape:window-y="0"
     inkscape:window-maximized="1" />
  <metadata
     id="metadata3074">
    <rdf:RDF>
      <cc:Work
         rdf:about="">
        <dc:format>image/svg+xml</dc:format>
        <dc:type
           rdf:resource="http://purl.org/dc/dcmitype/StillImage" />
        <dc:title />
      </cc:Work>
    </rdf:RDF>
  </metadata>
  <g
     inkscape:label="レイヤー 1"
     inkscape:groupmode="layer"
     id="layer1"
     transform="translate(-290.66879,-139.78632)">
    <g
       transform="translate(222.95177,-281.12385)"
       id="g3112">
      <path
         style="fill:#182223;fill-opacity:1;stroke:#111e41;stroke-width:0.5;stroke-linecap:butt;stroke-linejoin:miter;stroke-miterlimit:4;stroke-opacity:1"
         d="m 128.57143,425.57649 33.57144,-0.35715 -1.57969,11.94326 14.13236,2.93821 -10.40982,24.40425 -36.42857,0.35714 -10.81219,-23.27232 13.17155,-3.72805 z"
         id="path3885"
         inkscape:connector-curvature="0"
         sodipodi:nodetypes="ccccccccc" />
      <path
         sodipodi:nodetypes="ccccccc"
         inkscape:connector-curvature="0"
         id="rect3877"
         d="m 106.30337,560.89789 87.32699,1.75 c 0,0 3.27306,15.40507 3.8523,39.99371 -33,-16 -36.24997,-21.76093 -36.24997,-21.76093 l -19.27538,-0.25358 -40.50624,20.35818 c -3.52306,-19.93294 4.8523,-40.08738 4.8523,-40.08738 z"
         style="fill:#b19a66;fill-opacity:1;stroke:#6c563d;stroke-width:0.5;stroke-opacity:1" />
      <path
         sodipodi:nodetypes="ccccccccccccccccc"
         inkscape:connector-curvature="0"
         id="rect3867"
         d="m 102.5,440.93361 c 0,0 7.18965,-4.38474 22.54679,-4.74188 2.85714,15 8.49226,21.22659 8.49226,21.22659 7.14286,4.28571 19.66118,3.24674 23.58975,0.3896 0,0 9.29977,-11.16002 8.58548,-22.58859 9.28571,-0.35714 21.42857,3.92856 21.42857,3.92856 1.82448,26.73633 -5.19572,49.69322 -5.19572,49.69322 l -0.53232,24.55921 c 8.21428,21.07143 9.19799,59.94966 9.19799,59.94966 0,0 -11.82911,4.75479 -33.97197,4.75479 -20.35715,0.35714 -27.45599,0.14458 -27.45599,0.14458 l -7.06311,-2.98988 c 0,0 -13.36734,-3.07373 -20.86734,-6.28802 1.78572,-12.5 3.67143,-23.47631 3.67143,-23.47631 3.57143,-13.92856 7.21903,-21.56923 7.21903,-21.56923 l 1.78372,-20.84945 C 108.57143,489.86218 104.28571,465.93361 102.5,440.93361 z"
         style="fill:#ffffff;fill-opacity:1;stroke:#3d68ce;stroke-width:0.5;stroke-linecap:butt;stroke-linejoin:miter;stroke-miterlimit:4;stroke-opacity:1" />
      <path
         inkscape:connector-curvature="0"
         id="path3959-0"
         d="m 139.769,497.78125 c -4.73398,0.0405 -11.93834,1.28984 -16.71875,7.71875 -0.80102,-0.21574 -1.65292,-0.36535 -2.5,-0.5 -1.88065,-0.29898 -3.70744,-0.35602 -5.46875,-0.21875 l -1.625,19.15625 c 0,0 -0.83272,1.7498 -2.0625,5 1.50134,0.55633 3.16955,1.13925 5.09375,1.75 3.2515,1.03204 6.60958,0.2987 9.46875,-0.5 2.76689,2.6474 6.33798,4.5095 10.40625,5.15625 5.8653,0.93245 11.529,-0.8319 15.71875,-4.40625 1.46897,0.59975 3.07067,1.23245 4.78125,1.34375 13.47796,0.87697 16.33702,-2.48886 17.3125,-8.625 0.9755,-6.13614 -5.19064,-12.22805 -13.78125,-13.59375 -0.83712,-0.13308 -1.68424,-0.24485 -2.5,-0.28125 -2.15906,-6.31811 -6.43446,-10.13335 -13.34375,-11.59375 0,0 -1.94086,-0.43052 -4.78125,-0.40625 z"
         style="fill:#b7d6ec;fill-opacity:1;stroke:none" />
      <path
         sodipodi:nodetypes="ccsccssccscc"
         inkscape:connector-curvature="0"
         id="path3941"
         d="m 148.375,458.98718 -0.625,8.875 c 0,0 -5.75,6.25 -9,3.75 -3.25,-2.5 -16.75,104.25 -16.75,104.25 l 1.25,6.5 c 0,0 47.75,9 68.75,-6.5 3.91072,-2.88648 3.80278,-0.58936 4.69929,-5.11136 C 200.61691,550.99033 183,514.11218 183,514.11218 l 0.25,-25.375 c 0,0 8.20512,-47.51511 4,-49.125 -11.12442,-4.25887 -23.375,-4.5 -23.375,-4.5 0,0 -5,26.125 -15.5,23.875 z"
         style="fill:#ffffff;fill-opacity:1;stroke:#3d68ce;stroke-width:0.5" />
      <path
         inkscape:connector-curvature="0"
         id="path3959"
         d="m 174.3562,518.375 c -4.17654,0.16193 -7.83803,1.8583 -11.125,5.0625 -0.74419,-0.33613 -1.53683,-0.61545 -2.34375,-0.875 -8.28065,-2.66356 -16.53497,-0.0397 -18.4375,5.875 -1.90254,5.91474 -0.85722,10.2545 11.5625,15.5625 1.57627,0.67368 3.2623,0.77748 4.84375,0.90625 2.12245,5.08185 6.37757,9.24395 12.03125,11.0625 3.92147,1.26139 7.96042,1.20517 11.625,0.0937 2.18971,2.00449 4.85179,4.17015 8.21875,4.71875 2.11009,0.34382 3.96383,0.59708 5.625,0.78125 -0.87061,-13.958 -7.29605,-31.13848 -11.1875,-40.4375 -2.68456,-1.4349 -4.78125,-2 -4.78125,-2 -2.13236,-0.56854 -4.13282,-0.82361 -6.03125,-0.75 z"
         style="fill:#b7d6ec;fill-opacity:1;stroke:none" />
      <path
         sodipodi:nodetypes="ccccccccc"
         inkscape:connector-curvature="0"
         id="rect4000"
         d="m 138.75,476.61218 1,-2.625 c 0,0 3.73238,0.21885 5.10738,-1.78115 l 0.89262,4.40615 c -8.75,32.75 -14.75,99 -14.75,99 l 1.39823,6.77071 -7.27187,-1.03913 -0.87636,-6.23158 c 0,0 9.75,-84.75 14.5,-98.5 z"
         style="fill:#b7d6ec;fill-opacity:1;stroke:none" />
      <path
         inkscape:connector-curvature="0"
         id="path4003"
         d="m 143.375,479.61218 c 0,1.10457 -0.89543,2 -2,2 -1.10457,0 -2,-0.89543 -2,-2 0,-1.10457 0.89543,-2 2,-2 1.10457,0 2,0.89543 2,2 z"
         style="fill:#5572b6;fill-opacity:1;stroke:none" />
      <path
         style="fill:#5572b6;fill-opacity:1;stroke:none"
         d="m 135.875,524.23718 c 0,1.10457 -0.89543,2 -2,2 -1.10457,0 -2,-0.89543 -2,-2 0,-1.10457 0.89543,-2 2,-2 1.10457,0 2,0.89543 2,2 z"
         id="path4006"
         inkscape:connector-curvature="0" />
      <path
         inkscape:connector-curvature="0"
         id="path4008"
         d="m 130.125,571.48718 c 0,1.10457 -0.89543,2 -2,2 -1.10457,0 -2,-0.89543 -2,-2 0,-1.10457 0.89543,-2 2,-2 1.10457,0 2,0.89543 2,2 z"
         style="fill:#5572b6;fill-opacity:1;stroke:none" />
    </g>
  </g>
</svg>
