<?xml version="1.0" encoding="UTF-8" standalone="no"?>
<!-- Created with Inkscape (http://www.inkscape.org/) -->

<svg
   xmlns:dc="http://purl.org/dc/elements/1.1/"
   xmlns:cc="http://creativecommons.org/ns#"
   xmlns:rdf="http://www.w3.org/1999/02/22-rdf-syntax-ns#"
   xmlns:svg="http://www.w3.org/2000/svg"
   xmlns="http://www.w3.org/2000/svg"
   xmlns:xlink="http://www.w3.org/1999/xlink"
   xmlns:sodipodi="http://sodipodi.sourceforge.net/DTD/sodipodi-0.dtd"
   xmlns:inkscape="http://www.inkscape.org/namespaces/inkscape"
   width="170.01816"
   height="198.58124"
   id="svg3069"
   version="1.1"
   inkscape:version="0.48.4 r9939"
   sodipodi:docname="body.svg">
  <defs
     id="defs3071">
    <linearGradient
       inkscape:collect="always"
       id="linearGradient3808">
      <stop
         style="stop-color:#2865b8;stop-opacity:1;"
         offset="0"
         id="stop3810" />
      <stop
         style="stop-color:#2865b8;stop-opacity:0;"
         offset="1"
         id="stop3812" />
    </linearGradient>
    <linearGradient
       inkscape:collect="always"
       id="linearGradient3800">
      <stop
         style="stop-color:#2865b8;stop-opacity:1;"
         offset="0"
         id="stop3802" />
      <stop
         style="stop-color:#2865b8;stop-opacity:0;"
         offset="1"
         id="stop3804" />
    </linearGradient>
    <linearGradient
       id="linearGradient3792">
      <stop
         style="stop-color:#2865b8;stop-opacity:1;"
         offset="0"
         id="stop3794" />
      <stop
         style="stop-color:#2865b8;stop-opacity:0;"
         offset="1"
         id="stop3796" />
    </linearGradient>
    <linearGradient
       inkscape:collect="always"
       id="linearGradient3784">
      <stop
         style="stop-color:#2865b8;stop-opacity:1;"
         offset="0"
         id="stop3786" />
      <stop
         style="stop-color:#2865b8;stop-opacity:0;"
         offset="1"
         id="stop3788" />
    </linearGradient>
    <linearGradient
       inkscape:collect="always"
       xlink:href="#linearGradient3784"
       id="linearGradient3790"
       x1="386.32306"
       y1="309.50464"
       x2="380.16235"
       y2="212.54036"
       gradientUnits="userSpaceOnUse" />
    <linearGradient
       inkscape:collect="always"
       xlink:href="#linearGradient3792"
       id="linearGradient3798"
       x1="377.02405"
       y1="314.47256"
       x2="371.74829"
       y2="188.93686"
       gradientUnits="userSpaceOnUse" />
    <linearGradient
       inkscape:collect="always"
       xlink:href="#linearGradient3800"
       id="linearGradient3806"
       x1="71.071434"
       y1="174.20624"
       x2="74.821434"
       y2="42.956242"
       gradientUnits="userSpaceOnUse" />
    <linearGradient
       inkscape:collect="always"
       xlink:href="#linearGradient3808"
       id="linearGradient3814"
       x1="352.47025"
       y1="313.03879"
       x2="358.92609"
       y2="217.8602"
       gradientUnits="userSpaceOnUse" />
    <filter
       inkscape:collect="always"
       id="filter4016"
       x="-0.25966422"
       width="1.5193284"
       y="-0.28171663"
       height="1.5634333">
      <feGaussianBlur
         inkscape:collect="always"
         stdDeviation="2.6766566"
         id="feGaussianBlur4018" />
    </filter>
  </defs>
  <sodipodi:namedview
     id="base"
     pagecolor="#ffffff"
     bordercolor="#666666"
     borderopacity="1.0"
     inkscape:pageopacity="0.0"
     inkscape:pageshadow="2"
     inkscape:zoom="5.6"
     inkscape:cx="80.928468"
     inkscape:cy="98.938327"
     inkscape:document-units="px"
     inkscape:current-layer="layer1"
     showgrid="false"
     fit-margin-top="5"
     fit-margin-left="5"
     fit-margin-right="5"
     fit-margin-bottom="5"
     inkscape:window-width="1600"
     inkscape:window-height="870"
     inkscape:window-x="1366"
     inkscape:window-y="0"
     inkscape:window-maximized="1"
     showguides="true"
     inkscape:guide-bbox="true" />
  <metadata
     id="metadata3074">
    <rdf:RDF>
      <cc:Work
         rdf:about="">
        <dc:format>image/svg+xml</dc:format>
        <dc:type
           rdf:resource="http://purl.org/dc/dcmitype/StillImage" />
        <dc:title />
      </cc:Work>
    </rdf:RDF>
  </metadata>
  <g
     inkscape:label="レイヤー 1"
     inkscape:groupmode="layer"
     id="layer1"
     transform="translate(-290.66879,-139.78632)">
    <g
       transform="translate(222.95177,-281.12385)"
       id="g3112">
      <path
         style="fill:#182223;fill-opacity:1;stroke:#111e41;stroke-width:0.50000000000000000;stroke-linecap:butt;stroke-linejoin:miter;stroke-miterlimit:4;stroke-opacity:1;opacity:0.97"
         d="m 128.57143,425.57649 33.57144,-0.35715 -1.57969,11.94326 14.13236,2.93821 -10.40982,24.40425 -36.42857,0.35714 -10.81219,-23.27232 13.17155,-3.72805 z"
         id="path3885"
         inkscape:connector-curvature="0"
         sodipodi:nodetypes="ccccccccc" />
      <path
         sodipodi:nodetypes="ccccccc"
         inkscape:connector-curvature="0"
         id="rect3877"
         d="m 106.30337,560.89789 87.32699,1.75 c 0,0 3.27306,15.40507 3.8523,39.99371 -33,-16 -36.24997,-21.76093 -36.24997,-21.76093 l -19.27538,-0.25358 -40.50624,20.35818 c -3.52306,-19.93294 4.8523,-40.08738 4.8523,-40.08738 z"
         style="fill:#5e5132;fill-opacity:1;stroke:#56340c;stroke-width:0.50000000000000000;stroke-opacity:1;opacity:0.96999999999999997" />
      <path
         style="fill:#514939;stroke:none;stroke-width:1px;stroke-linecap:butt;stroke-linejoin:miter;stroke-opacity:1;opacity:0.59999999999999998;fill-opacity:1"
         d="M 35.46875 148.84375 L 33.96875 155.40625 C 33.96875 155.40625 34.091791 155.43705 34.09375 155.4375 C 30.97813 164.34928 33.75 179.90625 33.75 179.90625 L 52.78125 170.5 C 52.781365 170.50171 52.78125 170.5625 52.78125 170.5625 L 60.34375 167.125 L 64.40625 156.90625 L 35.46875 148.84375 z M 37.5 156.21875 C 41.692894 157.18128 49.550087 158.96478 50.625 159.0625 C 51.471145 159.13942 52.057257 163.25434 52.40625 166.5625 C 50.154145 167.58842 40.188784 172.091 37.40625 172.25 C 35.906935 166.62756 37.0742 158.72558 37.5 156.21875 z "
         transform="translate(67.71702,420.91017)"
         id="path3897" />
      <path
         style="opacity:0.59999999999999998;fill:#514939;stroke:none;fill-opacity:1"
         d="M 127.90625,153 99.5,163.34375 l -0.875,1.28125 4.40625,2.625 -0.1875,0.0937 c 5.08929,3.83929 27.00381,14.47065 27.00381,14.47065 -0.0631,-13.19511 -1.56631,-21.84565 -1.56631,-21.84565 l 0.125,-0.0312 z m -2.59375,7.71875 c 0,0 1.32265,2.7078 0.3125,13.125 0,0 -14.37946,-4.68304 -16.96875,-8.96875 8.92857,-0.26786 16.65625,-4.15625 16.65625,-4.15625 z"
         transform="translate(67.71702,420.91017)"
         id="path3899"
         inkscape:connector-curvature="0"
         sodipodi:nodetypes="ccccccccccccc" />
      <path
         style="fill:#ffffff;fill-opacity:1;stroke:#3d68ce;stroke-width:0.50000000000000000;stroke-linecap:butt;stroke-linejoin:miter;stroke-miterlimit:4;stroke-opacity:1;opacity:1"
         d="M 96.15625 14.1875 C 96.15625 14.1875 91.15625 40.3125 80.65625 38.0625 L 80.5625 39.3125 C 75.614045 39.657857 69.847699 38.921116 65.8125 36.5 C 65.8125 36.5 60.20089 30.28125 57.34375 15.28125 C 41.98661 15.63839 34.78125 20.03125 34.78125 20.03125 C 36.56696 45.03125 40.86161 68.94197 46.21875 82.15625 L 44.4375 103.03125 C 44.4375 103.03125 40.79018 110.66519 37.21875 124.59375 C 37.21875 124.59375 35.31697 135.5625 33.53125 148.0625 C 41.006273 151.26609 54.286477 154.32338 54.375 154.34375 C 54.372849 154.36074 54.28125 154.9375 54.28125 154.9375 L 55.53125 161.4375 C 55.53125 161.4375 103.28125 170.4375 124.28125 154.9375 C 128.19197 152.05102 128.07224 154.36575 128.96875 149.84375 C 132.88637 130.08326 115.28125 93.1875 115.28125 93.1875 L 115.53125 67.8125 C 115.53125 67.8125 123.73637 20.29739 119.53125 18.6875 C 119.50956 18.679197 119.49045 18.664523 119.46875 18.65625 C 119.45982 18.518766 119.4469 18.387687 119.4375 18.25 C 119.4375 18.25 107.50281 14.038525 98.25 14.3125 C 98.092673 14.301893 98.141215 14.321109 98 14.3125 C 96.954322 14.248751 96.15625 14.1875 96.15625 14.1875 z "
         id="rect3867"
         transform="translate(67.71702,420.91017)" />
      <path
         style="opacity:0.6;fill:#b5c5d4;stroke:none"
         d="M 90.1875 64.84375 L 98.90625 163.25 L 103.46875 162.6875 L 100.59375 140.4375 C 101.22721 139.65175 101.97569 138.21352 101.75 135.84375 L 100.15625 137.03125 L 97.9375 119.6875 C 98.31485 118.85292 98.553702 117.70453 98.40625 116.15625 L 97.5625 116.78125 L 95.28125 99.03125 C 95.932325 98.274745 96.736756 96.798425 96.5 94.3125 L 94.84375 95.59375 L 94.0625 89.59375 L 90.1875 64.84375 z "
         transform="translate(67.71702,420.91017)"
         id="path3826" />
      <path
         style="opacity:0.59999999999999998;fill:#b5c5d4;fill-opacity:1;stroke:none"
         d="M 65.96875 64.125 L 63.03125 93.40625 L 63 93.8125 L 61.375 93.28125 C 60.619754 96.679859 61.501769 98.417666 62.46875 99.3125 L 60.875 116.21875 L 58.78125 115.5625 C 58.01822 118.99613 59.159244 120.81227 60.34375 121.75 L 59.1875 134.15625 C 59.139933 134.10038 59.075773 134.05762 59.03125 134 L 54.9375 135 C 54.151557 138.53674 56.356472 140.76784 58.4375 142.03125 L 56.59375 161.53125 L 62.15625 162.5 L 64.65625 97.625 L 65.28125 94.53125 L 64.78125 94.375 L 65.96875 64.125 z "
         transform="translate(67.71702,420.91017)"
         id="path3818" />
      <g
         id="g3837">
        <path
           style="opacity:0.97000002;fill:#323f58;fill-opacity:1;stroke:none"
           d="m 131.69257,537.48111 c 0,1.49906 -1.21522,2.71429 -2.71428,2.71429 -1.49906,0 -2.71429,-1.21523 -2.71429,-2.71429 0,-1.49906 1.21523,-2.71428 2.71429,-2.71428 1.49906,0 2.71428,1.21522 2.71428,2.71428 z"
           id="path3833"
           inkscape:connector-curvature="0" />
        <path
           style="opacity:0.97000001999999996;fill:#323f58;fill-opacity:1;stroke:none"
           d="m 164.26128,515.25776 c 0,1.49906 -1.21522,2.71429 -2.71428,2.71429 -1.49906,0 -2.71429,-1.21523 -2.71429,-2.71429 0,-1.49906 1.21523,-2.71428 2.71429,-2.71428 1.49906,0 2.71428,1.21522 2.71428,2.71428 z"
           id="path4003"
           inkscape:connector-curvature="0" />
        <path
           inkscape:connector-curvature="0"
           id="path3784"
           d="m 134.47706,515.25776 c 0,1.49906 -1.21523,2.71429 -2.71429,2.71429 -1.49906,0 -2.71428,-1.21523 -2.71428,-2.71429 0,-1.49906 1.21522,-2.71428 2.71428,-2.71428 1.49906,0 2.71429,1.21522 2.71429,2.71428 z"
           style="opacity:0.97000001999999996;fill:#323f58;fill-opacity:1;stroke:none" />
        <path
           inkscape:connector-curvature="0"
           id="path3786"
           d="m 166.28159,537.48111 c 0,1.49906 -1.21522,2.71429 -2.71428,2.71429 -1.49906,0 -2.71429,-1.21523 -2.71429,-2.71429 0,-1.49906 1.21523,-2.71428 2.71429,-2.71428 1.49906,0 2.71428,1.21522 2.71428,2.71428 z"
           style="opacity:0.97000002;fill:#323f58;fill-opacity:1;stroke:none" />
        <path
           style="opacity:0.97000002;fill:#323f58;fill-opacity:1;stroke:none"
           d="m 169.56459,556.92656 c 0,1.49906 -1.21522,2.71429 -2.71428,2.71429 -1.49906,0 -2.71429,-1.21523 -2.71429,-2.71429 0,-1.49906 1.21523,-2.71428 2.71429,-2.71428 1.49906,0 2.71428,1.21522 2.71428,2.71428 z"
           id="path3790"
           inkscape:connector-curvature="0" />
        <path
           inkscape:connector-curvature="0"
           id="path3835"
           d="m 127.92481,556.92656 c 0,1.49906 -1.21522,2.71429 -2.71428,2.71429 -1.49906,0 -2.71429,-1.21523 -2.71429,-2.71429 0,-1.49906 1.21523,-2.71428 2.71429,-2.71428 1.49906,0 2.71428,1.21522 2.71428,2.71428 z"
           style="opacity:0.97000002;fill:#323f58;fill-opacity:1;stroke:none" />
      </g>
      <path
         style="opacity:0.59999999999999998;fill:#d8e0e8;fill-opacity:1;stroke:none"
         d="m 51.25,15.724096 c 3.977476,18.498418 14.107142,25.714286 14.107142,25.714286 L 66.428571,53.402667 67.45853,37.363736 65.625,36.438382 c 0,0 -5.90446,-7.939446 -8.303572,-21.071429 0,0 -2.093952,-0.147933 -6.071428,0.357143 z"
         id="path2995"
         inkscape:connector-curvature="0"
         transform="translate(67.71702,420.91017)"
         sodipodi:nodetypes="ccccccc" />
      <path
         sodipodi:nodetypes="ccccccc"
         inkscape:connector-curvature="0"
         id="path3766"
         d="m 169.89955,435.49785 c -3.97748,18.49841 -12.78131,25.14607 -12.78131,25.14607 l -1.07143,12.84817 -2.35579,-16.3546 1.83353,-0.92536 c 0,0 5.90446,-7.93944 8.30357,-21.07143 0,0 2.09395,-0.14793 6.07143,0.35715 z"
         style="opacity:0.59999999999999998;fill:#d8e0e8;fill-opacity:1;stroke:none" />
      <path
         style="fill:#5596d9;fill-opacity:1;stroke:none"
         d="m 136.02858,456.22551 14.64722,1.26269 3.07889,-2.35414 0.96172,0.83891 14.09137,139.65359 -4.17478,-0.54241 -2.3277,2.87413 -4.93724,-5.10964 -9.09138,2.77792 -7.82868,-3.03046 -4.21007,5.5472 -5.13365,-5.49926 -4.15964,2.98252 7.70366,-138.13885 z"
         id="rect3812"
         inkscape:connector-curvature="0"
         sodipodi:nodetypes="ccccccccccccccc" />
      <path
         inkscape:transform-center-x="6.6338745e-05"
         inkscape:transform-center-y="8.3788088"
         inkscape:connector-curvature="0"
         id="path3930"
         d="m 147.62032,550.83553 -0.0211,-3.46493 c 1.37893,-0.28157 2.61787,-0.8781 3.66355,-1.68563 l -2.45731,-2.26314 c -0.86544,0.59076 -1.93452,0.93648 -3.09513,0.93648 -1.58014,0 -2.98529,-0.6624 -3.95367,-1.68565 l -2.4466,2.27875 c 1.10862,1.10975 2.53925,1.93835 4.15987,2.34116 l 0.0211,3.48053 c -5.76146,-0.98459 -10.1458,-5.66891 -10.1799,-11.28443 -0.0384,-6.3295 5.46583,-11.45611 12.30002,-11.45611 6.83418,0 12.40069,5.12661 12.43913,11.45611 0.0348,5.74139 -4.48805,10.51104 -10.43006,11.34686 z m 4.22941,-5.63441 c 1.58079,-1.46126 2.55729,-3.47435 2.5437,-5.71245 -0.0143,-2.34834 -1.11354,-4.45658 -2.85033,-5.93095 l -2.44659,2.27873 c 1.10861,0.89107 1.81648,2.19002 1.82537,3.65222 0.008,1.35022 -0.57501,2.58412 -1.52938,3.46493 l 2.45723,2.24752 z m -13.0485,-0.796 2.46335,-2.29435 c -0.52272,-0.75347 -0.81899,-1.66258 -0.82482,-2.6221 -0.007,-1.07492 0.36071,-2.06699 0.99369,-2.87183 l -2.49122,-2.29434 c -1.24817,1.39847 -1.98596,3.20378 -1.97405,5.16617 0.0112,1.85084 0.69348,3.5536 1.83305,4.91645 z m 3.13447,-8.33455 c 0.94566,-0.88884 2.25776,-1.43592 3.71564,-1.43592 1.03829,0 2.00138,0.28296 2.81896,0.76479 l 2.48012,-2.30995 c -1.47614,-1.04747 -3.31994,-1.67004 -5.3186,-1.67004 -2.4197,0 -4.60075,0.91387 -6.17029,2.38799 l 2.47417,2.26313 z"
         style="fill:#98ffdc;fill-opacity:1;stroke:none;filter:url(#filter4016)" />
      <path
         style="fill:#c4ddf6;fill-opacity:1;stroke:none"
         d="m 147.62032,550.83553 -0.0211,-3.46493 c 1.37893,-0.28157 2.61787,-0.8781 3.66355,-1.68563 l -2.45731,-2.26314 c -0.86544,0.59076 -1.93452,0.93648 -3.09513,0.93648 -1.58014,0 -2.98529,-0.6624 -3.95367,-1.68565 l -2.4466,2.27875 c 1.10862,1.10975 2.53925,1.93835 4.15987,2.34116 l 0.0211,3.48053 c -5.76146,-0.98459 -10.1458,-5.66891 -10.1799,-11.28443 -0.0384,-6.3295 5.46583,-11.45611 12.30002,-11.45611 6.83418,0 12.40069,5.12661 12.43913,11.45611 0.0348,5.74139 -4.48805,10.51104 -10.43006,11.34686 z m 4.22941,-5.63441 c 1.58079,-1.46126 2.55729,-3.47435 2.5437,-5.71245 -0.0143,-2.34834 -1.11354,-4.45658 -2.85033,-5.93095 l -2.44659,2.27873 c 1.10861,0.89107 1.81648,2.19002 1.82537,3.65222 0.008,1.35022 -0.57501,2.58412 -1.52938,3.46493 l 2.45723,2.24752 z m -13.0485,-0.796 2.46335,-2.29435 c -0.52272,-0.75347 -0.81899,-1.66258 -0.82482,-2.6221 -0.007,-1.07492 0.36071,-2.06699 0.99369,-2.87183 l -2.49122,-2.29434 c -1.24817,1.39847 -1.98596,3.20378 -1.97405,5.16617 0.0112,1.85084 0.69348,3.5536 1.83305,4.91645 z m 3.13447,-8.33455 c 0.94566,-0.88884 2.25776,-1.43592 3.71564,-1.43592 1.03829,0 2.00138,0.28296 2.81896,0.76479 l 2.48012,-2.30995 c -1.47614,-1.04747 -3.31994,-1.67004 -5.3186,-1.67004 -2.4197,0 -4.60075,0.91387 -6.17029,2.38799 l 2.47417,2.26313 z"
         id="path3765"
         inkscape:connector-curvature="0"
         inkscape:transform-center-y="8.3788088"
         inkscape:transform-center-x="6.6338745e-05" />
      <path
         style="opacity:0.59999999999999998;fill:#d8e0e8;stroke:none;fill-opacity:1"
         d="m 183.37776,487.85811 c -1.60714,25.17857 -5.53571,27.67857 -5.53571,27.67857 l -2.67857,0.89286 2.67857,1.96428 c 10.89286,51.42857 0.89286,63.21429 0.89286,63.21429 6.96429,-0.89286 16.96428,-7.85715 16.96428,-7.85715 6.60714,-22.67857 -12.67857,-59.28571 -12.67857,-59.28571 z"
         id="path3901"
         inkscape:connector-curvature="0"
         sodipodi:nodetypes="cccccccc" />
      <path
         style="opacity:0.59999999999999998;fill:#d8e0e8;stroke:none;fill-opacity:1"
         d="m 46.214479,82.034889 c -0.267857,14.910714 2.272843,20.203051 2.272843,20.203051 l 4.924493,0.63134 -5.177031,1.13643 c -8.660714,41.07143 -3.825055,47.88661 -3.825055,47.88661 l -10.822157,-3.94498 3.409265,-23.10724 7.071067,-21.59201 z"
         id="path3921"
         inkscape:connector-curvature="0"
         transform="translate(67.71702,420.91017)"
         sodipodi:nodetypes="ccccccccc" />
    </g>
    <path
       style="fill:url(#linearGradient3806);stroke:none;stroke-width:1px;stroke-linecap:butt;stroke-linejoin:miter;stroke-opacity:1;fill-opacity:1;opacity:0.58536584999999997"
       d="M 71.785714,39.474096 68.392857,176.79552 72.678571,171.9741 z"
       id="path3768"
       inkscape:connector-curvature="0"
       transform="translate(290.66879,139.78632)" />
    <path
       inkscape:connector-curvature="0"
       id="path3778"
       d="m 356.9618,231.72522 -7.1701,82.98425 4.375,-3.21428 z"
       style="opacity:0.58536555999999995;fill:url(#linearGradient3814);fill-opacity:1;stroke:none"
       sodipodi:nodetypes="cccc" />
    <path
       style="opacity:0.58536555999999995;fill:url(#linearGradient3798);fill-opacity:1;stroke:none"
       d="m 373.56618,189.99329 -2.25644,124.31571 8.8314,-2.80111 z"
       id="path3780"
       inkscape:connector-curvature="0"
       sodipodi:nodetypes="cccc" />
    <path
       inkscape:connector-curvature="0"
       id="path3782"
       d="m 378.28736,214.6609 6.91964,102.18749 2.45536,-2.90178 z"
       style="opacity:0.58536549999999998;fill:url(#linearGradient3790);fill-opacity:1;stroke:none"
       sodipodi:nodetypes="cccc" />
    <path
       style="opacity:0.60975611;fill:#2865b8;fill-opacity:1;stroke:none"
       d="m 85.973451,34.194696 c 0,0 2.983107,24.54355 3.172511,23.84907 0.189403,-0.69448 -2.099223,-22.98097 -2.099223,-22.98097 z"
       id="path3816"
       inkscape:connector-curvature="0"
       transform="translate(290.66879,139.78632)"
       sodipodi:nodetypes="cscc" />
  </g>
</svg>
