<?xml version="1.0" encoding="UTF-8" standalone="no"?>
<!-- Created with Inkscape (http://www.inkscape.org/) -->

<svg
   xmlns:dc="http://purl.org/dc/elements/1.1/"
   xmlns:cc="http://creativecommons.org/ns#"
   xmlns:rdf="http://www.w3.org/1999/02/22-rdf-syntax-ns#"
   xmlns:svg="http://www.w3.org/2000/svg"
   xmlns="http://www.w3.org/2000/svg"
   xmlns:xlink="http://www.w3.org/1999/xlink"
   xmlns:sodipodi="http://sodipodi.sourceforge.net/DTD/sodipodi-0.dtd"
   xmlns:inkscape="http://www.inkscape.org/namespaces/inkscape"
   width="170.01816"
   height="198.58124"
   id="svg3069"
   version="1.1"
   inkscape:version="0.48.4 r9939"
   sodipodi:docname="body-bag.svg">
  <defs
     id="defs3071">
    <linearGradient
       inkscape:collect="always"
       id="linearGradient3754">
      <stop
         style="stop-color:#574c3b;stop-opacity:1;"
         offset="0"
         id="stop3756" />
      <stop
         style="stop-color:#574c3b;stop-opacity:0;"
         offset="1"
         id="stop3758" />
    </linearGradient>
    <linearGradient
       inkscape:collect="always"
       xlink:href="#linearGradient3754"
       id="linearGradient3760"
       x1="146.21957"
       y1="130.5222"
       x2="126.46548"
       y2="166.63516"
       gradientUnits="userSpaceOnUse" />
  </defs>
  <sodipodi:namedview
     id="base"
     pagecolor="#ffffff"
     bordercolor="#666666"
     borderopacity="1.0"
     inkscape:pageopacity="0.0"
     inkscape:pageshadow="2"
     inkscape:zoom="5.6"
     inkscape:cx="98.901821"
     inkscape:cy="127.93743"
     inkscape:document-units="px"
     inkscape:current-layer="layer1"
     showgrid="false"
     fit-margin-top="5"
     fit-margin-left="5"
     fit-margin-right="5"
     fit-margin-bottom="5"
     inkscape:window-width="1600"
     inkscape:window-height="870"
     inkscape:window-x="1366"
     inkscape:window-y="0"
     inkscape:window-maximized="1" />
  <metadata
     id="metadata3074">
    <rdf:RDF>
      <cc:Work
         rdf:about="">
        <dc:format>image/svg+xml</dc:format>
        <dc:type
           rdf:resource="http://purl.org/dc/dcmitype/StillImage" />
        <dc:title />
      </cc:Work>
    </rdf:RDF>
  </metadata>
  <g
     inkscape:label="レイヤー 1"
     inkscape:groupmode="layer"
     id="layer1"
     transform="translate(-290.66879,-139.78632)">
    <path
       style="fill:#88775c;fill-opacity:1;stroke:#544222;stroke-width:0.25;stroke-linecap:butt;stroke-linejoin:miter;stroke-miterlimit:4;stroke-opacity:1"
       d="m 412.55216,268.25101 c 3.5,-5.75 15.5,-12 15.5,-12 6.5,0 18.75,7 18.75,7 5.75,17.5 4.31377,55.02465 4.31377,55.02465 -0.75,11 -9.06377,23.97535 -9.06377,23.97535 -8.75,3.25 -31,3.75 -31,3.75 -3.25,-55.5 1.5,-77.75 1.5,-77.75 z"
       id="rect4010"
       inkscape:connector-curvature="0"
       sodipodi:nodetypes="ccccccc" />
    <path
       style="fill:#88775c;fill-opacity:1;stroke:#4f4827;stroke-width:0.25;stroke-linecap:butt;stroke-linejoin:miter;stroke-miterlimit:4;stroke-opacity:1"
       d="m 328.05216,156.75101 c 2.75,-2.75 10.5,-1.5 10.5,-1.5 19.25,66.75 99.5,128.5 99.5,128.5 0,0 -2,7.5 -7,6.75 0,0 -87,-72.75 -103,-133.75 z"
       id="rect4013"
       inkscape:connector-curvature="0"
       sodipodi:nodetypes="ccccc" />
    <path
       style="opacity:0.6;fill:url(#linearGradient3760);fill-opacity:1;stroke:none"
       d="m 121.47084,142.0127 c 0.25254,-1.51523 0.16325,-7.78536 0.16325,-7.78536 l 13.96083,10.32451 c 5,0.80357 5.67937,-3.52091 5.67937,-3.52091 0,0 -14.15316,-13.63843 -13.07683,-13.96132 8.83883,1.51523 19.03227,7.11439 19.03227,7.11439 3.283,30.30458 0,44.44672 0,44.44672 0,0 -16.66751,-34.09266 -24.74873,-15.90991 z"
       id="path2984"
       inkscape:connector-curvature="0"
       transform="translate(290.66879,139.78632)"
       sodipodi:nodetypes="ccccccccc" />
  </g>
</svg>
