<?xml version="1.0" encoding="UTF-8" standalone="no"?>
<!-- Created with Inkscape (http://www.inkscape.org/) -->

<svg
   xmlns:dc="http://purl.org/dc/elements/1.1/"
   xmlns:cc="http://creativecommons.org/ns#"
   xmlns:rdf="http://www.w3.org/1999/02/22-rdf-syntax-ns#"
   xmlns:svg="http://www.w3.org/2000/svg"
   xmlns="http://www.w3.org/2000/svg"
   xmlns:sodipodi="http://sodipodi.sourceforge.net/DTD/sodipodi-0.dtd"
   xmlns:inkscape="http://www.inkscape.org/namespaces/inkscape"
   width="78.362564"
   height="28.382215"
   id="svg3069"
   version="1.1"
   inkscape:version="0.48.4 r9939"
   sodipodi:docname="eyes-edge.svg">
  <defs
     id="defs3071" />
  <sodipodi:namedview
     id="base"
     pagecolor="#ffffff"
     bordercolor="#666666"
     borderopacity="1.0"
     inkscape:pageopacity="0.0"
     inkscape:pageshadow="2"
     inkscape:zoom="7.919596"
     inkscape:cx="38.230769"
     inkscape:cy="13.610638"
     inkscape:document-units="px"
     inkscape:current-layer="layer1"
     showgrid="false"
     fit-margin-top="5"
     fit-margin-left="5"
     fit-margin-right="5"
     fit-margin-bottom="5"
     inkscape:window-width="976"
     inkscape:window-height="433"
     inkscape:window-x="1661"
     inkscape:window-y="299"
     inkscape:window-maximized="0" />
  <metadata
     id="metadata3074">
    <rdf:RDF>
      <cc:Work
         rdf:about="">
        <dc:format>image/svg+xml</dc:format>
        <dc:type
           rdf:resource="http://purl.org/dc/dcmitype/StillImage" />
        <dc:title />
      </cc:Work>
    </rdf:RDF>
  </metadata>
  <g
     inkscape:label="レイヤー 1"
     inkscape:groupmode="layer"
     id="layer1"
     transform="translate(-90.191486,-249.04892)">
    <path
       style="fill:#3f392f;fill-opacity:1;stroke:none"
       d="m 98.235056,255.88338 c -1.59099,7.42462 4.154264,13.96536 4.154264,13.96536 0,0 3.38336,4.38869 9.94368,1.72357 2.82843,-1.14904 5.52428,-3.7565 5.52428,-3.7565 -8.19785,5.81651 -12.29715,4.61788 -15.07021,1.41421 0,0 -3.491344,-3.18198 -4.552014,-13.34664 z"
       id="path3813"
       inkscape:connector-curvature="0"
       sodipodi:nodetypes="ccsccc" />
    <path
       sodipodi:nodetypes="ccsccc"
       inkscape:connector-curvature="0"
       id="path3827"
       d="m 160.51048,255.88338 c 1.59099,7.42462 -4.15426,13.96536 -4.15426,13.96536 0,0 -3.38336,4.38869 -9.94368,1.72357 -2.82843,-1.14904 -5.52428,-3.7565 -5.52428,-3.7565 8.19785,5.81651 12.29715,4.61788 15.07021,1.41421 0,0 3.49134,-3.18198 4.55201,-13.34664 z"
       style="fill:#3f392f;fill-opacity:1;stroke:none" />
    <path
       sodipodi:nodetypes="cccc"
       inkscape:connector-curvature="0"
       id="path3829"
       d="m 163.14602,256.17359 c -12.38005,-4.29468 -23.375,-0.75 -23.375,-0.75 0,0 -1.18085,0.28302 -1.44602,0.99012 18.84647,-0.8465 27.2462,0.78559 24.82102,-0.24012 z"
       style="fill:#4c4438;fill-opacity:1;stroke:none" />
    <path
       style="fill:#4c4438;fill-opacity:1;stroke:none"
       d="m 95.599516,256.17359 c 12.380054,-4.29468 23.375004,-0.75 23.375004,-0.75 0,0 1.18085,0.28302 1.44602,0.99012 -18.84647,-0.8465 -27.246204,0.78559 -24.821024,-0.24012 z"
       id="path3043"
       inkscape:connector-curvature="0"
       sodipodi:nodetypes="cccc" />
    <path
       style="fill:#384f51;fill-opacity:1;stroke:none;opacity:0.97"
       d="m 160.07517,248.64888 -23.2605,1.91484 c 0,0 -4.07703,1.04724 -4.95203,3.92224 l 0.84732,5.17805 -2.66748,-0.40797 -4.26797,0.56488 0.47073,-5.05253 c -0.875,-2.75 -5.58602,-4.14244 -5.58602,-4.14244 l -21.559521,-1.69463 -11.67415,1.88293 c -1.51523,16.03617 5.27219,23.12862 5.27219,23.12862 11.000001,5.125 20.210091,3.48342 20.210091,3.48342 0,0 10.61298,-1.72159 11.98798,-8.09659 l 0.21967,-2.35366 4.20521,-0.6904 4.61317,0.72178 0.3452,2.03984 c 2.75,7.375 11.98798,8.09659 11.98798,8.09659 0,0 9.21009,0.92297 20.21009,-3.45203 0,0 6.28234,-5.32469 5.27219,-23.12863 z"
       id="rect3944"
       inkscape:connector-curvature="0"
       sodipodi:nodetypes="ccccccccccccccccccccc" />
  </g>
</svg>
