<?xml version="1.0" encoding="UTF-8" standalone="no"?>
<!-- Created with Inkscape (http://www.inkscape.org/) -->

<svg
   xmlns:dc="http://purl.org/dc/elements/1.1/"
   xmlns:cc="http://creativecommons.org/ns#"
   xmlns:rdf="http://www.w3.org/1999/02/22-rdf-syntax-ns#"
   xmlns:svg="http://www.w3.org/2000/svg"
   xmlns="http://www.w3.org/2000/svg"
   xmlns:sodipodi="http://sodipodi.sourceforge.net/DTD/sodipodi-0.dtd"
   xmlns:inkscape="http://www.inkscape.org/namespaces/inkscape"
   width="55.20092"
   height="155.00636"
   id="svg3069"
   version="1.1"
   inkscape:version="0.48.4 r9939"
   sodipodi:docname="leg-left.svg">
  <defs
     id="defs3071" />
  <sodipodi:namedview
     id="base"
     pagecolor="#ffffff"
     bordercolor="#666666"
     borderopacity="1.0"
     inkscape:pageopacity="0.0"
     inkscape:pageshadow="2"
     inkscape:zoom="1.979899"
     inkscape:cx="106.12064"
     inkscape:cy="66.863988"
     inkscape:document-units="px"
     inkscape:current-layer="g3252"
     showgrid="false"
     fit-margin-top="5"
     fit-margin-left="5"
     fit-margin-right="5"
     fit-margin-bottom="5"
     inkscape:window-width="1600"
     inkscape:window-height="870"
     inkscape:window-x="1366"
     inkscape:window-y="0"
     inkscape:window-maximized="1" />
  <metadata
     id="metadata3074">
    <rdf:RDF>
      <cc:Work
         rdf:about="">
        <dc:format>image/svg+xml</dc:format>
        <dc:type
           rdf:resource="http://purl.org/dc/dcmitype/StillImage" />
        <dc:title />
      </cc:Work>
    </rdf:RDF>
  </metadata>
  <g
     inkscape:label="レイヤー 1"
     inkscape:groupmode="layer"
     id="layer1"
     transform="translate(-357.63611,-104.60343)">
    <g
       transform="translate(-158.09925,-476.92811)"
       id="g3252">
      <path
         style="fill:#ffffff;fill-opacity:1;stroke:#3d68ce;stroke-width:0.5;stroke-linecap:butt;stroke-linejoin:miter;stroke-miterlimit:4;stroke-opacity:1"
         d="m 526.75771,586.78154 38.92857,1.07143 c 0,0 -1.78572,24.99999 -2.14286,62.14285 0,0 2.45528,42.23837 0.66956,61.88123 0,0 -23.38939,2.91141 -38.38939,1.91141 l -4.83823,-5.0685 c 0,-25.5 6.12949,-59.79556 6.12949,-59.79556 0,0 -3.21428,-22.85715 -0.35714,-62.14286 z"
         id="rect3872"
         inkscape:connector-curvature="0"
         sodipodi:nodetypes="cccccccc" />
      <path
         style="fill:#202d2e;fill-opacity:1;stroke:none"
         d="m 562.88182,718.09158 c 0,0 4.01875,4.22568 1.01875,12.97568 l -36.21578,0.47064 c -3.25,-0.75 -3.21279,-1.8635 -3.21279,-1.8635 0,0 -3.16933,-9.37946 4.08067,-17.37946 17.70258,-24.84849 27.71968,-14.67906 34.32915,5.79664 z"
         id="rect3880"
         inkscape:connector-curvature="0"
         sodipodi:nodetypes="cccccc" />
    </g>
  </g>
</svg>
