<?xml version="1.0" encoding="UTF-8" standalone="no"?>
<!-- Created with Inkscape (http://www.inkscape.org/) -->

<svg
   xmlns:dc="http://purl.org/dc/elements/1.1/"
   xmlns:cc="http://creativecommons.org/ns#"
   xmlns:rdf="http://www.w3.org/1999/02/22-rdf-syntax-ns#"
   xmlns:svg="http://www.w3.org/2000/svg"
   xmlns="http://www.w3.org/2000/svg"
   xmlns:sodipodi="http://sodipodi.sourceforge.net/DTD/sodipodi-0.dtd"
   xmlns:inkscape="http://www.inkscape.org/namespaces/inkscape"
   width="233.14"
   height="311.89001"
   id="svg3275"
   version="1.1"
   inkscape:version="0.48.1 "
   sodipodi:docname="phenomena-forehair.svg">
  <defs
     id="defs3277" />
  <sodipodi:namedview
     id="base"
     pagecolor="#ffffff"
     bordercolor="#666666"
     borderopacity="1.0"
     inkscape:pageopacity="0.0"
     inkscape:pageshadow="2"
     inkscape:zoom="1.7611215"
     inkscape:cx="115.07024"
     inkscape:cy="154.44704"
     inkscape:document-units="px"
     inkscape:current-layer="layer1"
     showgrid="false"
     fit-margin-top="0"
     fit-margin-left="0"
     fit-margin-right="0"
     fit-margin-bottom="0"
     inkscape:window-width="1600"
     inkscape:window-height="878"
     inkscape:window-x="1358"
     inkscape:window-y="-8"
     inkscape:window-maximized="1" />
  <metadata
     id="metadata3280">
    <rdf:RDF>
      <cc:Work
         rdf:about="">
        <dc:format>image/svg+xml</dc:format>
        <dc:type
           rdf:resource="http://purl.org/dc/dcmitype/StillImage" />
        <dc:title />
      </cc:Work>
    </rdf:RDF>
  </metadata>
  <g
     inkscape:label="レイヤー 1"
     inkscape:groupmode="layer"
     id="layer1"
     transform="translate(-204.92976,-100.63353)">
    <path
       style="fill:none;stroke:#000000;stroke-opacity:1"
       inkscape:connector-curvature="0"
       id="path3389"
       d="m 302.6067,170.46987 c -35.333,89.667 -32.667,130 -32.667,130 -13.335,-35.077 -12.36,-68.828 -7.002,-95.776 -20.028,20.423 -26.297,92.109 -26.297,92.109 -1.244,-2.752 -2.256,-5.668 -3.091,-8.668 -3.909,79.443 18.434,123.253 18.434,123.253 -32.963,-33.471 -40.006,-98.432 -42.5,-106.655 -2.049,-6.759 -6.086,-74.09 6.456,-125.209 12.542,-51.119 48.482,-62.008 48.482,-62.008 l 3.465,-1.326 c 0,0 18.934,-14.659 66.31199,-7.533 l 2.958,-1.554 c 0,0 40.292,-12.171004 59.157,3.043 18.865,15.214 43.817,99.197 40.774,166.657 -2.13,47.214 -21.249,104.095 -32.535,133.988 6.501,-21.335 11.937,-54.01 13.67,-103.228 2.435,-69.136 -17.291,-102.015 -17.291,-102.015 h -10e-4 c 4.881,32.646 -7.051,63.587 -7.051,63.587 6.694,-32.709 -16.213,-76.472 -16.213,-76.472 l 0.035,-0.017 -0.585,-1.234 c 2.007,12.531 2.766,28.792 0.55,48.057 -3.232,28.11 -5.896,32.546 -6.964,33.128 0.574,-5.448 3.366,-35.503 -1.764,-61.461 -3.808,-19.268 -12.583,-36.664 -19.853,-44.963 l -3.164,-0.815 c -6.556,134.642 -21.982,129.015 -21.982,129.015 -25.18499,-35.539 -23.13799,-101.209 -20.87899,-129.431" />
  </g>
</svg>
