<?xml version="1.0" encoding="UTF-8" standalone="no"?>
<!-- Created with Inkscape (http://www.inkscape.org/) -->

<svg
   xmlns:dc="http://purl.org/dc/elements/1.1/"
   xmlns:cc="http://creativecommons.org/ns#"
   xmlns:rdf="http://www.w3.org/1999/02/22-rdf-syntax-ns#"
   xmlns:svg="http://www.w3.org/2000/svg"
   xmlns="http://www.w3.org/2000/svg"
   xmlns:xlink="http://www.w3.org/1999/xlink"
   xmlns:sodipodi="http://sodipodi.sourceforge.net/DTD/sodipodi-0.dtd"
   xmlns:inkscape="http://www.inkscape.org/namespaces/inkscape"
   width="158.53024"
   height="151.29486"
   id="svg3163"
   version="1.1"
   inkscape:version="0.48.4 r9939"
   sodipodi:docname="back-hair.svg">
  <defs
     id="defs3165">
    <linearGradient
       inkscape:collect="always"
       id="linearGradient3886">
      <stop
         style="stop-color:#75bc75;stop-opacity:1;"
         offset="0"
         id="stop3888" />
      <stop
         style="stop-color:#75bc75;stop-opacity:0;"
         offset="1"
         id="stop3890" />
    </linearGradient>
    <linearGradient
       inkscape:collect="always"
       id="linearGradient3878">
      <stop
         style="stop-color:#74bc74;stop-opacity:1;"
         offset="0"
         id="stop3880" />
      <stop
         style="stop-color:#74bc74;stop-opacity:0;"
         offset="1"
         id="stop3882" />
    </linearGradient>
    <linearGradient
       inkscape:collect="always"
       id="linearGradient3870">
      <stop
         style="stop-color:#64b464;stop-opacity:1;"
         offset="0"
         id="stop3872" />
      <stop
         style="stop-color:#64b464;stop-opacity:0;"
         offset="1"
         id="stop3874" />
    </linearGradient>
    <linearGradient
       inkscape:collect="always"
       id="linearGradient3862">
      <stop
         style="stop-color:#65b465;stop-opacity:1;"
         offset="0"
         id="stop3864" />
      <stop
         style="stop-color:#65b465;stop-opacity:0;"
         offset="1"
         id="stop3866" />
    </linearGradient>
    <linearGradient
       id="linearGradient3848">
      <stop
         id="stop3850"
         offset="0"
         style="stop-color:#ecf2da;stop-opacity:1;" />
      <stop
         id="stop3852"
         offset="1"
         style="stop-color:#bfd380;stop-opacity:0;" />
    </linearGradient>
    <linearGradient
       id="linearGradient3842">
      <stop
         id="stop3844"
         offset="0"
         style="stop-color:#2f1523;stop-opacity:1;" />
      <stop
         id="stop3846"
         offset="1"
         style="stop-color:#652e4c;stop-opacity:0;" />
    </linearGradient>
    <linearGradient
       id="linearGradient3836">
      <stop
         id="stop3838"
         offset="0"
         style="stop-color:#637529;stop-opacity:1;" />
      <stop
         id="stop3840"
         offset="1"
         style="stop-color:#637529;stop-opacity:0;" />
    </linearGradient>
    <linearGradient
       id="linearGradient3767">
      <stop
         style="stop-color:#2f1523;stop-opacity:1;"
         offset="0"
         id="stop3769" />
      <stop
         style="stop-color:#652e4c;stop-opacity:0;"
         offset="1"
         id="stop3771" />
    </linearGradient>
    <linearGradient
       id="linearGradient3757">
      <stop
         style="stop-color:#f7c2de;stop-opacity:1;"
         offset="0"
         id="stop3759" />
      <stop
         style="stop-color:#e2bfd2;stop-opacity:0;"
         offset="1"
         id="stop3761" />
    </linearGradient>
    <linearGradient
       inkscape:collect="always"
       xlink:href="#linearGradient3757"
       id="linearGradient3763"
       x1="33.57143"
       y1="74.846893"
       x2="18.035715"
       y2="101.63261"
       gradientUnits="userSpaceOnUse" />
    <linearGradient
       inkscape:collect="always"
       xlink:href="#linearGradient3767"
       id="linearGradient3773"
       x1="342.57846"
       y1="538.716"
       x2="328.4375"
       y2="498.89459"
       gradientUnits="userSpaceOnUse" />
    <linearGradient
       inkscape:collect="always"
       xlink:href="#linearGradient3767"
       id="linearGradient3806"
       gradientUnits="userSpaceOnUse"
       x1="342.57846"
       y1="538.716"
       x2="328.4375"
       y2="498.89459"
       gradientTransform="matrix(1.0562886,0,0,1.0562886,-19.07624,-29.388757)" />
    <linearGradient
       inkscape:collect="always"
       xlink:href="#linearGradient3836"
       id="linearGradient3830"
       gradientUnits="userSpaceOnUse"
       gradientTransform="matrix(1.0562886,0,0,1.0562886,-19.07624,-29.388757)"
       x1="342.57846"
       y1="538.716"
       x2="328.4375"
       y2="498.89459" />
    <linearGradient
       inkscape:collect="always"
       xlink:href="#linearGradient3836"
       id="linearGradient3832"
       gradientUnits="userSpaceOnUse"
       x1="342.57846"
       y1="538.716"
       x2="328.4375"
       y2="498.89459" />
    <linearGradient
       inkscape:collect="always"
       xlink:href="#linearGradient3848"
       id="linearGradient3834"
       gradientUnits="userSpaceOnUse"
       x1="33.57143"
       y1="74.846893"
       x2="18.035715"
       y2="101.63261" />
    <linearGradient
       inkscape:collect="always"
       xlink:href="#linearGradient3862"
       id="linearGradient3868"
       x1="229.61044"
       y1="118.91386"
       x2="237.85776"
       y2="84.413857"
       gradientUnits="userSpaceOnUse" />
    <linearGradient
       inkscape:collect="always"
       xlink:href="#linearGradient3870"
       id="linearGradient3876"
       x1="30.5"
       y1="161.48975"
       x2="43.75"
       y2="113.98975"
       gradientUnits="userSpaceOnUse" />
    <linearGradient
       inkscape:collect="always"
       xlink:href="#linearGradient3878"
       id="linearGradient3884"
       x1="63"
       y1="42.364746"
       x2="85"
       y2="57.364746"
       gradientUnits="userSpaceOnUse" />
    <linearGradient
       inkscape:collect="always"
       xlink:href="#linearGradient3886"
       id="linearGradient3892"
       x1="194.64285"
       y1="25.341278"
       x2="227.98634"
       y2="44.841278"
       gradientUnits="userSpaceOnUse" />
  </defs>
  <sodipodi:namedview
     id="base"
     pagecolor="#ffffff"
     bordercolor="#666666"
     borderopacity="1.0"
     inkscape:pageopacity="0.0"
     inkscape:pageshadow="2"
     inkscape:zoom="2"
     inkscape:cx="131.95014"
     inkscape:cy="119.95812"
     inkscape:document-units="px"
     inkscape:current-layer="layer1"
     showgrid="false"
     inkscape:window-width="1600"
     inkscape:window-height="870"
     inkscape:window-x="1366"
     inkscape:window-y="0"
     inkscape:window-maximized="1"
     fit-margin-top="5"
     fit-margin-left="5"
     fit-margin-right="5"
     fit-margin-bottom="5" />
  <metadata
     id="metadata3168">
    <rdf:RDF>
      <cc:Work
         rdf:about="">
        <dc:format>image/svg+xml</dc:format>
        <dc:type
           rdf:resource="http://purl.org/dc/dcmitype/StillImage" />
        <dc:title />
      </cc:Work>
    </rdf:RDF>
  </metadata>
  <g
     inkscape:label="レイヤー 1"
     inkscape:groupmode="layer"
     id="layer1"
     transform="translate(-364.34085,-458.28935)">
    <path
       style="fill:#e1b13d;fill-opacity:1;stroke:#88620d;stroke-width:0.5;stroke-linecap:butt;stroke-linejoin:miter;stroke-opacity:1"
       d="m 446.40461,469.11943 c 0,0 -9.6869,-0.46128 -13.7462,0.83031 0,0 -10.909,-0.1618 -22.1415,11.07076 -9.4261,9.42611 -14.5765,24.81696 -14.5765,24.81696 -4.7973,19.92737 -4.9819,30.4446 -4.9819,30.4446 -2.9522,9.22564 -9.0411,14.94554 -13.1004,24.72471 -6.0889,16.23712 -3.8747,25.46275 -3.8747,25.46275 1.0148,-3.04446 2.0296,-4.24379 2.0296,-4.24379 0.5111,6.44624 -0.8871,7.87754 -0.4612,13.00815 l 1.6605,-6.73472 c -2.7677,11.07076 4.0593,15.40681 4.0593,15.40681 -0.6458,-4.24379 -0.092,-3.96702 -0.092,-3.96702 0,0 0.4613,2.67544 5.7199,5.16636 l -1.6607,-4.79734 c 4.0593,6.64246 13.4694,5.44313 13.4694,5.44313 -4.9818,-4.24379 -4.4282,-7.84179 -4.4282,-7.84179 4.2438,9.41015 10.9785,13.65394 18.728,3.50574 -11.532,0.27677 -6.9192,-4.98184 -6.9192,-4.98184 0,0 -0.6458,3.96702 13.8384,7.74953 -3.1367,-4.52056 -0.9225,-5.90441 -0.9225,-5.90441 3.2069,3.00275 5.3816,5.04335 9.0411,5.35087 0.369,-2.67543 2.0296,-3.13671 2.0296,-3.13671 0.8303,2.1219 3.8748,3.32123 3.8748,3.32123 0.9226,-2.76769 3.1367,-2.95221 3.1367,-2.95221 1.5684,3.04446 7.0115,5.90441 7.0115,5.90441 5.9044,-1.10708 7.7495,-4.79733 7.7495,-4.79733 l 0.1845,2.21415 c 5.2586,-1.29159 7.5651,-4.4283 7.5651,-4.4283 1.9374,0.64579 1.2916,7.19599 1.2916,7.19599 4.6128,-5.53538 4.0592,-9.22563 4.0592,-9.22563 0,0 2.86,2.21415 2.2142,7.38051 2.3987,-1.29159 5.1663,-10.33272 5.1663,-10.33272 0,0 0.2768,4.52057 -0.5535,9.22564 2.1219,-0.92256 3.6903,-5.90441 3.6903,-5.90441 0,0 0,5.35087 0.369,6.45795 2.2142,-0.55354 5.1663,-10.33272 5.1663,-10.33272 l 0.5536,12.17784 c 2.7677,-1.19933 7.3805,-11.80881 7.3805,-11.80881 l -5.8121,12.08558 c 5.8122,1.01482 9.6869,-3.78251 9.6869,-3.78251 0,0 -1.1994,3.598 -4.6129,5.44313 17.99,8.30307 22.3261,-20.57317 22.3261,-20.57317 0,0 1.0148,4.33605 -6.6425,21.03445 14.8533,-2.3064 18.0822,-9.41015 17.7132,-29.70655 -1.8452,-16.42162 -12.5468,-38.37865 -12.5468,-38.37865 -3.3212,-9.22564 -0.277,-24.26342 -7.9341,-40.96182 -9.6869,-18.91255 -19.1893,-21.58798 -19.1893,-21.58798 -14.2997,-6.91923 -20.1579,-8.62597 -24.7246,-8.48758 -4.5667,0.13838 -10.7943,-0.55355 -10.7943,-0.55355 z"
       id="path4172"
       inkscape:connector-curvature="0"
       sodipodi:nodetypes="ccscccccccccccccccccccccccccccccccccccccccccccczc"
       inkscape:export-filename="/run/media/tnzk/A6382E54382E2431/Users/tnzk/Desktop/gymb/nicola/g4990.png"
       inkscape:export-xdpi="266.25"
       inkscape:export-ydpi="266.25" />
  </g>
</svg>
