<?xml version="1.0" encoding="UTF-8" standalone="no"?>
<!-- Created with Inkscape (http://www.inkscape.org/) -->

<svg
   xmlns:dc="http://purl.org/dc/elements/1.1/"
   xmlns:cc="http://creativecommons.org/ns#"
   xmlns:rdf="http://www.w3.org/1999/02/22-rdf-syntax-ns#"
   xmlns:svg="http://www.w3.org/2000/svg"
   xmlns="http://www.w3.org/2000/svg"
   xmlns:xlink="http://www.w3.org/1999/xlink"
   xmlns:sodipodi="http://sodipodi.sourceforge.net/DTD/sodipodi-0.dtd"
   xmlns:inkscape="http://www.inkscape.org/namespaces/inkscape"
   width="473.84335"
   height="337.08939"
   id="svg3069"
   version="1.1"
   inkscape:version="0.48.4 r9939"
   sodipodi:docname="body.svg">
  <defs
     id="defs3071">
    <linearGradient
       gradientTransform="translate(-1.7926291,1.9166563)"
       inkscape:collect="always"
       xlink:href="#linearGradient4687-8"
       id="linearGradient4693-3"
       x1="878.90735"
       y1="446.65994"
       x2="846.37897"
       y2="418.61404"
       gradientUnits="userSpaceOnUse" />
    <linearGradient
       inkscape:collect="always"
       id="linearGradient4687-8">
      <stop
         style="stop-color:#77cbdc;stop-opacity:1;"
         offset="0"
         id="stop4689-1" />
      <stop
         style="stop-color:#77cbdc;stop-opacity:0"
         offset="1"
         id="stop4691-4" />
    </linearGradient>
    <linearGradient
       inkscape:collect="always"
       xlink:href="#linearGradient4687-8"
       id="linearGradient4714-4"
       gradientUnits="userSpaceOnUse"
       x1="855.28967"
       y1="445.55286"
       x2="872.21075"
       y2="431.52991"
       gradientTransform="matrix(-1,0,0,1,1846.0102,1.9166563)" />
    <linearGradient
       gradientTransform="translate(-1.7926291,1.9166563)"
       inkscape:collect="always"
       xlink:href="#linearGradient4687-8-7"
       id="linearGradient4693-3-6"
       x1="878.90735"
       y1="446.65994"
       x2="846.37897"
       y2="418.61404"
       gradientUnits="userSpaceOnUse" />
    <linearGradient
       inkscape:collect="always"
       id="linearGradient4687-8-7">
      <stop
         style="stop-color:#77cbdc;stop-opacity:1;"
         offset="0"
         id="stop4689-1-7" />
      <stop
         style="stop-color:#77cbdc;stop-opacity:0"
         offset="1"
         id="stop4691-4-4" />
    </linearGradient>
    <linearGradient
       inkscape:collect="always"
       xlink:href="#linearGradient4687-8-7"
       id="linearGradient4714-4-9"
       gradientUnits="userSpaceOnUse"
       x1="855.28967"
       y1="445.55286"
       x2="872.21075"
       y2="431.52991"
       gradientTransform="matrix(-1,0,0,1,1846.0102,1.9166563)" />
    <filter
       inkscape:collect="always"
       id="filter4659-5-2"
       x="-0.18970695"
       width="1.3794138"
       y="-0.11289868"
       height="1.2257974"
       color-interpolation-filters="sRGB">
      <feGaussianBlur
         inkscape:collect="always"
         stdDeviation="2.51636"
         id="feGaussianBlur4661-2-2" />
    </filter>
    <linearGradient
       inkscape:collect="always"
       xlink:href="#linearGradient4687-8-7"
       id="linearGradient3192"
       gradientUnits="userSpaceOnUse"
       gradientTransform="matrix(-1,0,0,1,1538.4581,14.694286)"
       x1="855.28967"
       y1="445.55286"
       x2="872.21075"
       y2="431.52991" />
    <linearGradient
       inkscape:collect="always"
       xlink:href="#linearGradient4687-8-7"
       id="linearGradient3195"
       gradientUnits="userSpaceOnUse"
       gradientTransform="translate(-309.34475,14.694286)"
       x1="878.90735"
       y1="446.65994"
       x2="846.37897"
       y2="418.61404" />
    <linearGradient
       inkscape:collect="always"
       xlink:href="#linearGradient4687-8-7"
       id="linearGradient3207"
       gradientUnits="userSpaceOnUse"
       gradientTransform="translate(-309.34475,14.694286)"
       x1="878.90735"
       y1="446.65994"
       x2="846.37897"
       y2="418.61404" />
    <linearGradient
       inkscape:collect="always"
       xlink:href="#linearGradient4687-8-7"
       id="linearGradient3209"
       gradientUnits="userSpaceOnUse"
       gradientTransform="matrix(-1,0,0,1,1538.4581,14.694286)"
       x1="855.28967"
       y1="445.55286"
       x2="872.21075"
       y2="431.52991" />
    <linearGradient
       gradientTransform="translate(-682.76961,-75.861368)"
       inkscape:collect="always"
       xlink:href="#linearGradient4797"
       id="linearGradient4803"
       x1="1215.069"
       y1="164.65903"
       x2="1291.6329"
       y2="299.30426"
       gradientUnits="userSpaceOnUse" />
    <linearGradient
       inkscape:collect="always"
       id="linearGradient4797">
      <stop
         style="stop-color:#f6f1f0;stop-opacity:1;"
         offset="0"
         id="stop4799" />
      <stop
         style="stop-color:#f6f1f0;stop-opacity:0;"
         offset="1"
         id="stop4801" />
    </linearGradient>
    <linearGradient
       inkscape:collect="always"
       xlink:href="#linearGradient4797"
       id="linearGradient4807"
       gradientUnits="userSpaceOnUse"
       x1="1215.069"
       y1="164.65903"
       x2="1291.6329"
       y2="299.30426"
       gradientTransform="matrix(-1,0,0,1,2029.2737,202.36218)" />
    <linearGradient
       y2="299.30426"
       x2="1291.6329"
       y1="164.65903"
       x1="1215.069"
       gradientTransform="matrix(-1,0,0,1,1527.5041,-75.861368)"
       gradientUnits="userSpaceOnUse"
       id="linearGradient3729"
       xlink:href="#linearGradient4797"
       inkscape:collect="always" />
    <linearGradient
       inkscape:collect="always"
       xlink:href="#linearGradient4797"
       id="linearGradient3242"
       gradientUnits="userSpaceOnUse"
       gradientTransform="matrix(-1,0,0,1,1527.5041,-75.861368)"
       x1="1215.069"
       y1="164.65903"
       x2="1291.6329"
       y2="299.30426" />
    <linearGradient
       inkscape:collect="always"
       xlink:href="#linearGradient4797"
       id="linearGradient3244"
       gradientUnits="userSpaceOnUse"
       gradientTransform="translate(-682.76961,-75.861368)"
       x1="1215.069"
       y1="164.65903"
       x2="1291.6329"
       y2="299.30426" />
    <filter
       inkscape:collect="always"
       id="filter3871"
       x="-0.073773269"
       width="1.1475465"
       y="-0.1538765"
       height="1.307753">
      <feGaussianBlur
         inkscape:collect="always"
         stdDeviation="0.86243978"
         id="feGaussianBlur3873" />
    </filter>
    <linearGradient
       inkscape:collect="always"
       xlink:href="#linearGradient3898"
       id="linearGradient3904"
       x1="143.125"
       y1="97.953117"
       x2="143.125"
       y2="120.85312"
       gradientUnits="userSpaceOnUse"
       gradientTransform="translate(97.500002,-51.500004)" />
    <linearGradient
       id="linearGradient3898">
      <stop
         style="stop-color:#640000;stop-opacity:1;"
         offset="0"
         id="stop3900" />
      <stop
         style="stop-color:#e25858;stop-opacity:1;"
         offset="1"
         id="stop3902" />
    </linearGradient>
    <linearGradient
       inkscape:collect="always"
       xlink:href="#linearGradient3898"
       id="linearGradient3912"
       x1="149.09364"
       y1="98.205742"
       x2="149.21864"
       y2="77.450439"
       gradientUnits="userSpaceOnUse"
       gradientTransform="translate(97.500002,-51.500001)" />
    <linearGradient
       id="linearGradient3863">
      <stop
         style="stop-color:#640000;stop-opacity:1;"
         offset="0"
         id="stop3865" />
      <stop
         style="stop-color:#e25858;stop-opacity:1;"
         offset="1"
         id="stop3867" />
    </linearGradient>
    <radialGradient
       inkscape:collect="always"
       xlink:href="#linearGradient3916"
       id="radialGradient3924"
       cx="129.77051"
       cy="71.612068"
       fx="129.77051"
       fy="71.612068"
       r="26.9062"
       gradientTransform="matrix(-0.46872866,0.49062401,-0.2915335,-0.27852308,308.91784,-7.8003403)"
       gradientUnits="userSpaceOnUse" />
    <linearGradient
       inkscape:collect="always"
       id="linearGradient3916">
      <stop
         style="stop-color:#ffffff;stop-opacity:1;"
         offset="0"
         id="stop3918" />
      <stop
         style="stop-color:#ffffff;stop-opacity:0;"
         offset="1"
         id="stop3920" />
    </linearGradient>
    <linearGradient
       inkscape:collect="always"
       xlink:href="#linearGradient4043"
       id="linearGradient4049"
       x1="142.78125"
       y1="102"
       x2="142.78125"
       y2="118.62688"
       gradientUnits="userSpaceOnUse"
       gradientTransform="translate(97.500002,-51.500004)" />
    <linearGradient
       inkscape:collect="always"
       id="linearGradient4043">
      <stop
         style="stop-color:#785628;stop-opacity:1;"
         offset="0"
         id="stop4045" />
      <stop
         style="stop-color:#56350a;stop-opacity:1"
         offset="1"
         id="stop4047" />
    </linearGradient>
  </defs>
  <sodipodi:namedview
     id="base"
     pagecolor="#ffffff"
     bordercolor="#666666"
     borderopacity="1.0"
     inkscape:pageopacity="0.0"
     inkscape:pageshadow="2"
     inkscape:zoom="1.979899"
     inkscape:cx="404.95621"
     inkscape:cy="137.41019"
     inkscape:document-units="px"
     inkscape:current-layer="layer1"
     showgrid="false"
     fit-margin-top="5"
     fit-margin-left="5"
     fit-margin-right="5"
     fit-margin-bottom="5"
     inkscape:window-width="1600"
     inkscape:window-height="870"
     inkscape:window-x="1366"
     inkscape:window-y="0"
     inkscape:window-maximized="1"
     showguides="true"
     inkscape:guide-bbox="true" />
  <metadata
     id="metadata3074">
    <rdf:RDF>
      <cc:Work
         rdf:about="">
        <dc:format>image/svg+xml</dc:format>
        <dc:type
           rdf:resource="http://purl.org/dc/dcmitype/StillImage" />
        <dc:title />
      </cc:Work>
    </rdf:RDF>
  </metadata>
  <g
     inkscape:label="レイヤー 1"
     inkscape:groupmode="layer"
     id="layer1"
     transform="translate(-185.44553,-22.998541)">
    <g
       id="g3238">
      <path
         inkscape:export-ydpi="266.25"
         inkscape:export-xdpi="266.25"
         inkscape:export-filename="/run/media/tnzk/A6382E54382E2431/Users/tnzk/Desktop/gymb/nicola/g4990.png"
         style="fill:url(#linearGradient3242);fill-opacity:1;stroke:none"
         d="m 393.45717,167.34071 c -15.1346,-40.18482 -76.1946,-50.62244 -93.9386,-62.62569 -17.7439,-12.003259 -39.6629,-51.144319 -39.6629,-51.144319 3.6532,20.35335 14.6127,38.0973 14.6127,38.0973 -6.7845,-9.39385 -52.71004,-36.00978 -52.71004,-36.00978 -8.3501,-3.13128 -25.0503,-27.65968 -25.0503,-27.65968 0,0 0.5219,13.5689 12.5252,27.65968 l -18.7877,-15.65642 c 15.1345,86.632209 69.41014,109.594959 69.41014,109.594959 0,0 -11.4814,-1.04375 -21.91904,-5.2188 0,0 2.6094,8.35009 15.13454,16.70018 l -9.3938,-2.08752 c 4.6969,16.1783 47.4911,44.88174 47.4911,44.88174 19.8315,8.87197 36.0098,4.69693 36.0098,4.69693 l -19.8315,8.87197 c 8.872,5.74069 19.8315,-0.52188 19.8315,-0.52188 0,0 0.5219,6.78445 -5.7407,12.52514 17.2221,0.52188 25.5722,-12.00326 25.5722,-12.00326 0,0 0.5218,16.17831 -4.1751,28.18157 22.4409,-6.78445 30.791,-26.61592 30.791,-26.61592 0,0 7.3063,5.74068 5.2188,63.14757 0,0 34.4442,-74.10707 14.6127,-114.81377 z"
         id="path4805"
         inkscape:connector-curvature="0"
         sodipodi:nodetypes="cscccccccccccccccccccc" />
      <path
         inkscape:export-ydpi="266.25"
         inkscape:export-xdpi="266.25"
         inkscape:export-filename="/run/media/tnzk/A6382E54382E2431/Users/tnzk/Desktop/gymb/nicola/g4990.png"
         sodipodi:nodetypes="cscccccccccccccccccccc"
         inkscape:connector-curvature="0"
         id="path4795"
         d="m 451.27729,167.34071 c 15.1346,-40.18482 76.1946,-50.62244 93.9386,-62.62569 17.7439,-12.003259 39.6629,-51.144319 39.6629,-51.144319 -3.6532,20.35335 -14.6127,38.0973 -14.6127,38.0973 6.7845,-9.39385 52.71,-36.00978 52.71,-36.00978 8.3501,-3.13128 25.0503,-27.65968 25.0503,-27.65968 0,0 -0.5219,13.5689 -12.5252,27.65968 l 18.7877,-15.65642 c -15.1345,86.632209 -69.4101,109.594959 -69.4101,109.594959 0,0 11.4814,-1.04375 21.919,-5.2188 0,0 -2.6094,8.35009 -15.1345,16.70018 l 9.3938,-2.08752 c -4.6969,16.1783 -47.4911,44.88174 -47.4911,44.88174 -19.8315,8.87197 -36.0098,4.69693 -36.0098,4.69693 l 19.8315,8.87197 c -8.872,5.74069 -19.8315,-0.52188 -19.8315,-0.52188 0,0 -0.5219,6.78445 5.7407,12.52514 -17.2221,0.52188 -25.5722,-12.00326 -25.5722,-12.00326 0,0 -0.5218,16.17831 4.1751,28.18157 -22.4409,-6.78445 -30.791,-26.61592 -30.791,-26.61592 0,0 -7.3063,5.74068 -5.2188,63.14757 0,0 -34.4442,-74.10707 -14.6127,-114.81377 z"
         style="fill:url(#linearGradient3244);fill-opacity:1;stroke:none" />
    </g>
    <g
       transform="translate(-192.39128,-289.61757)"
       id="g3177">
      <g
         transform="translate(-307.55212,12.77763)"
         id="g3402">
        <path
           inkscape:export-ydpi="266.25"
           inkscape:export-xdpi="266.25"
           inkscape:export-filename="/run/media/tnzk/A6382E54382E2431/Users/tnzk/Desktop/gymb/nicola/g4990.png"
           sodipodi:nodetypes="cccccccccccccccc"
           inkscape:connector-curvature="0"
           id="path4611"
           d="m 878.57698,597.58649 c -13.49844,4.14836 -31.01617,17.22843 -31.01617,17.22843 3.62033,9.02813 22.88016,8.35327 22.88016,8.35327 -2.40382,1.48917 1.47921,3.7229 8.13601,3.40379 0.36984,2.6592 12.75892,4.78656 18.86096,2.12735 0,0 4.43787,3.93562 13.31356,1.48916 1.10944,1.59552 5.7322,2.12736 8.50584,0.85095 1.66423,1.59551 7.95114,0.42547 9.24553,-2.12736 0,0 2.40389,2.12735 6.28697,1.27641 4.80772,1.70188 7.02659,2.87194 17.38161,-0.42547 0,0 7.39649,-0.63822 12.57397,-4.25472 0,0 7.58129,0.95731 11.83421,-0.85094 5.73227,-3.61652 5.17755,-6.38209 5.17755,-6.38209 0,0 16.40822,-5.42157 18.81202,-7.0171 0,0 -16.40819,-10.48064 -31.38598,-13.88441 z"
           style="fill:#c8a5b9;fill-opacity:0.53273806;stroke:#fbdaef;stroke-width:0.13436471;stroke-linecap:butt;stroke-linejoin:miter;stroke-opacity:1" />
        <path
           inkscape:export-ydpi="266.25"
           inkscape:export-xdpi="266.25"
           inkscape:export-filename="/run/media/tnzk/A6382E54382E2431/Users/tnzk/Desktop/gymb/nicola/g4990.png"
           sodipodi:nodetypes="ccccccccccccc"
           inkscape:connector-curvature="0"
           id="path4595"
           d="m 882.7041,559.12664 c 0,0 -5.35242,4.62904 -5.35242,9.05735 -3.32123,7.74953 -1.84639,10.20629 -4.42957,17.95582 -8.11856,7.38051 -12.18128,18.5914 -12.18128,18.5914 l 13.84245,3.81364 56.10781,4.76702 43.13811,-5.82755 12.86937,-5.83417 c 0,0 -4.5152,-12.51215 -9.68156,-16.94046 0,0 -10e-4,-8.58697 -5.16778,-21.13383 l -5.53698,-5.08484 -19.9302,-28.27466 z"
           style="fill:#a23f51;fill-opacity:1;stroke:#452f35;stroke-width:0.46406853;stroke-opacity:1" />
        <path
           transform="translate(-181,202.36218)"
           inkscape:export-ydpi="266.25"
           inkscape:export-xdpi="266.25"
           inkscape:export-filename="/run/media/tnzk/A6382E54382E2431/Users/tnzk/Desktop/gymb/nicola/g4990.png"
           sodipodi:nodetypes="ccccccccccccccccccccccccccccccccccccccc"
           inkscape:connector-curvature="0"
           id="path4855"
           d="m 1125.9688,322.78125 -27.6563,28.96875 -36.0313,22.4375 -6,1.84375 -1.8124,6.25 12,-2.59375 -1.0626,6.5 4.7188,-6.78125 9.9062,-1.8125 0.25,3.90625 2.875,-3.90625 16.9688,-7.3125 -0.5312,19.3125 4.4374,-20.875 6.2813,-5.21875 0.5,6.53125 1.5625,-7.3125 10.1875,-7.84375 -0.25,12.28125 2.5937,-12.53125 4.9688,-5.46875 3.125,4.15625 0,15.65625 2.875,-12.78125 9.4062,9.125 2.8438,10.71875 0.2812,-8.625 6.4688,6.46875 -0.375,4.78125 c 0.1845,6.27343 6.2164,14.57181 4.7812,20.3125 -1.1742,3.39223 -15.3124,7.90625 -15.3124,7.90625 l 11.0937,-1.65625 12.9063,-5.90625 c 0,0 -6.2422,-14.28591 -10.1563,-17.15625 l -0.5625,-8.125 -0.875,-1.09375 -0.9375,-7.09375 -21.125,-25.5625 z"
           style="opacity:0.6;fill:#933043;stroke:none" />
        <path
           inkscape:export-ydpi="266.25"
           inkscape:export-xdpi="266.25"
           inkscape:export-filename="/run/media/tnzk/A6382E54382E2431/Users/tnzk/Desktop/gymb/nicola/g4990.png"
           style="fill:#c8a5b9;fill-opacity:0.53273806;stroke:#fbdaef;stroke-width:0.13436471;stroke-linecap:butt;stroke-linejoin:miter;stroke-opacity:1"
           d="m 943.81208,526.61071 c -13.49844,4.14836 -37.27874,39.14742 -37.27874,39.14742 2.54592,1.71109 17.26829,-0.83969 17.26829,-0.83969 0,0 4.93009,5.43365 9.42495,3.50164 2.95166,-1.2687 5.0367,5.4915 8.5625,-3.91062 0,0 7.64588,2.16036 13.90845,0.85566 3.13128,2.6094 10.57,-4.27692 10.9494,-6.29502 0,0 -5.4487,-6.82748 -11.03261,-17.0157 z"
           id="path4750"
           inkscape:connector-curvature="0"
           sodipodi:nodetypes="cccsccccc" />
        <path
           transform="translate(-181,202.36218)"
           inkscape:export-ydpi="266.25"
           inkscape:export-xdpi="266.25"
           inkscape:export-filename="/run/media/tnzk/A6382E54382E2431/Users/tnzk/Desktop/gymb/nicola/g4990.png"
           sodipodi:nodetypes="cccc"
           inkscape:connector-curvature="0"
           id="path4857"
           d="m 1124.1312,396.89597 c -0.2609,-3.91411 2.8387,-11.1191 3.3922,-34.18319 0,0 1.0253,11.89199 0.4717,20.7486 0,6.45794 -3.8639,13.43459 -3.8639,13.43459 z"
           style="opacity:0.6;fill:#933043;stroke:none" />
        <path
           inkscape:export-ydpi="266.25"
           inkscape:export-xdpi="266.25"
           inkscape:export-filename="/run/media/tnzk/A6382E54382E2431/Users/tnzk/Desktop/gymb/nicola/g4990.png"
           style="opacity:0.6;fill:#933043;stroke:none"
           d="m 890.84091,604.13523 c 0.18057,-2.64626 2.92711,-7.18921 5.40116,-22.59075 0,0 -0.39175,8.0613 -1.57178,13.94421 -0.58822,4.32664 -3.82938,8.64654 -3.82938,8.64654 z"
           id="path4859"
           inkscape:connector-curvature="0"
           sodipodi:nodetypes="cccc" />
      </g>
      <g
         id="g3199"
         transform="translate(1.4285714,1.0714286)">
        <path
           style="opacity:0.69918698;fill:url(#linearGradient3209);fill-opacity:1;stroke:#9ee4f3;stroke-width:0.77165294;stroke-linecap:butt;stroke-linejoin:miter;stroke-opacity:1"
           d="m 698.28158,424.87035 -50.46873,29.59375 0.375,0.28125 c 4.8896,7.38051 8.7541,12.99468 11.7812,17.25 3.0272,4.25532 5.2211,7.14149 6.8126,9.125 0.5353,0.66724 0.6573,0.74407 1.0624,1.21875 l 30.43753,-57.46875 z"
           id="path4712"
           inkscape:connector-curvature="0"
           inkscape:export-filename="/run/media/tnzk/A6382E54382E2431/Users/tnzk/Desktop/gymb/nicola/g4990.png"
           inkscape:export-xdpi="266.25"
           inkscape:export-ydpi="266.25" />
        <path
           inkscape:connector-curvature="0"
           id="path4597"
           d="m 530.83179,424.87035 50.46875,29.59375 -0.375,0.28125 c -4.8896,7.38051 -8.7541,12.99468 -11.7812,17.25 -3.0272,4.25532 -5.2211,7.14149 -6.8126,9.125 -0.5353,0.66724 -0.6573,0.74407 -1.0624,1.21875 l -30.43755,-57.46875 z"
           style="opacity:0.69918698;fill:url(#linearGradient3207);fill-opacity:1;stroke:#9ee4f3;stroke-width:0.77165294;stroke-linecap:butt;stroke-linejoin:miter;stroke-opacity:1"
           inkscape:export-filename="/run/media/tnzk/A6382E54382E2431/Users/tnzk/Desktop/gymb/nicola/g4990.png"
           inkscape:export-xdpi="266.25"
           inkscape:export-ydpi="266.25" />
        <path
           style="fill:#48738c;fill-opacity:1;stroke:#2d3a45;stroke-width:0.25;stroke-linecap:butt;stroke-linejoin:miter;stroke-opacity:1"
           d="m 671.8115,480.49397 c -0.4051,-0.47468 -0.5271,-0.55151 -1.0624,-1.21875 -1.5915,-1.98351 -3.7854,-4.86968 -6.8126,-9.125 -3.0271,-4.25532 -6.8916,-9.86949 -11.7812,-17.25 l -0.375,-0.28125 -1.9375,1.15625 -17.0937,1.71875 c 0,0 -3.3993,7.9649 -3.9688,10.8125 l -2.8438,10.25 9.6563,23.9375 -1.125,9.09375 4,-6.25 6.25,7.40625 8.5313,-13.125 8,4.5625 5.6874,-8.53125 6.25,4.5625 10.25,-6.84375 -11.9374,-10.25 0.3124,-0.625 z"
           id="path4591"
           inkscape:export-filename="/run/media/tnzk/A6382E54382E2431/Users/tnzk/Desktop/gymb/nicola/g4990.png"
           inkscape:export-xdpi="266.25"
           inkscape:export-ydpi="266.25"
           inkscape:connector-curvature="0" />
        <path
           id="path4599"
           d="m 559.05519,480.49397 c 0.4051,-0.47468 0.5271,-0.55151 1.0624,-1.21875 1.5915,-1.98351 3.7854,-4.86968 6.8126,-9.125 3.0271,-4.25532 6.8916,-9.86949 11.7812,-17.25 l 0.375,-0.28125 1.9375,1.15625 17.09368,1.71875 c 0,0 3.3993,7.9649 3.9688,10.8125 l 2.84379,10.25 -9.65629,23.9375 1.125,9.09375 -4,-6.25 -6.24998,7.40625 -8.5313,-13.125 -8,4.5625 -5.6874,-8.53125 -6.25,4.5625 -10.25,-6.84375 11.9374,-10.25 -0.3124,-0.625 z"
           style="fill:#48738c;fill-opacity:1;stroke:#2d3a45;stroke-width:0.25;stroke-linecap:butt;stroke-linejoin:miter;stroke-opacity:1"
           inkscape:connector-curvature="0"
           inkscape:export-filename="/run/media/tnzk/A6382E54382E2431/Users/tnzk/Desktop/gymb/nicola/g4990.png"
           inkscape:export-xdpi="266.25"
           inkscape:export-ydpi="266.25" />
      </g>
      <path
         sodipodi:nodetypes="ccccc"
         inkscape:connector-curvature="0"
         id="path4174"
         d="m 604.54308,443.18773 28.53681,2.0203 c -1.2627,10.85914 2.52538,12.62691 2.52538,12.62691 -0.83281,23.20134 -32.29251,26.20627 -31.81981,1.01015 0,0 2.27285,-2.77792 0.75762,-15.65736 z"
         style="fill:#fcf0e0;fill-opacity:1;stroke:#5d513b;stroke-width:0.5;stroke-linecap:butt;stroke-linejoin:miter;stroke-miterlimit:4;stroke-opacity:1" />
      <path
         sodipodi:nodetypes="ccccc"
         inkscape:connector-curvature="0"
         id="path4613"
         d="m 601.01758,459.4381 c 21.3075,27.27848 36.7926,0.0895 36.7926,0.0895 l -12.79921,25.95205 -13.047,-0.78282 z"
         style="fill:#100e09;fill-opacity:1;stroke:none" />
      <path
         sodipodi:nodetypes="cccccccccccccczcccc"
         inkscape:connector-curvature="0"
         id="path4545"
         d="m 583.46679,454.49008 -4.42835,10.51722 8.48762,49.44941 -5.1664,23.2486 c -8.23669,12.56183 -8.03246,20.61264 -10.97383,32.79849 0,0 -7.84733,12.33425 -9.32344,22.66696 12.62873,2.29614 75.70477,-21.63679 76.44282,-45.99247 0,0 6.69628,23.37544 31.1751,37.07035 0,0 -3.16284,-5.63168 -5.74602,-13.38122 -8.76092,-20.49257 -13.88083,-33.36446 -16.62616,-54.93461 0,0 10.14814,-52.77063 9.96363,-58.49053 0,0 -3.89731,-0.30013 -13.67648,-2.14526 -7.196,0 -10.94012,4.51995 -10.94012,4.51995 -4.05928,4.98184 -3.03944,16.05578 -3.03944,16.05578 0,0 -7.40646,4.12947 -9.98454,4.0516 -2.57808,-0.0779 -9.44943,-4.42831 -9.44943,-4.42831 0,0 -1.22058,-10.61537 -6.38693,-17.44234 0,0 -3.55191,-3.68561 -10.00986,-3.87013 -7.74953,0.55354 -10.31817,0.30651 -10.31817,0.30651 z"
         style="fill:#44301f;fill-opacity:1;stroke:#1c170e;stroke-width:0.5;stroke-linecap:butt;stroke-linejoin:miter;stroke-opacity:1" />
      <path
         sodipodi:nodetypes="ccccc"
         inkscape:connector-curvature="0"
         id="path4906"
         d="m 571.00671,570.74395 c -5.63803,7.38819 -9.03568,22.6842 -9.03568,22.6842 12.91589,0.18451 79.89403,-20.11189 76.5728,-50.92551 0,0 -14.33414,26.70957 -68.58088,43.50023 z"
         style="opacity:0.6;fill:#1c170e;stroke:none" />
      <path
         sodipodi:nodetypes="cczczcccccccc"
         inkscape:connector-curvature="0"
         id="path4926"
         d="m 586.23448,508.5523 c 0,0 1.6606,2.76769 3.5057,2.9522 0,0 7.4761,-4.87531 11.9934,-4.98184 4.5173,-0.10653 10.3327,4.61282 13.2849,4.79733 4.2438,-0.18451 9.7023,-5.10663 14.9454,-5.35086 5.2432,-0.24424 15.1301,3.87476 15.1301,3.87476 3.1367,0.73805 3.8748,-3.87477 3.8748,-3.87477 l -2.0296,10.88625 1.4761,7.56502 c 0,0 -9.2256,-4.05928 -23.0641,-6.64246 0,0 -28.2305,6.08892 -41.6999,13.28492 l 4.0593,-16.05261 z"
         style="opacity:0.6;fill:#1c170e;stroke:none" />
      <path
         sodipodi:nodetypes="ccccc"
         inkscape:connector-curvature="0"
         id="path4928"
         d="m 652.10548,570.36406 c 2.0296,5.16636 17.7132,13.65394 17.7132,13.65394 0,0 -15.499,-32.10522 -21.5879,-60.8892 -0.7381,15.49907 14.2074,50.37197 14.3919,52.95515 -2.5832,0.18452 -10.5172,-5.71989 -10.5172,-5.71989 z"
         style="opacity:0.6;fill:#1c170e;stroke:none" />
      <path
         sodipodi:nodetypes="ccc"
         inkscape:connector-curvature="0"
         id="path4930"
         d="m 588.44858,545.08582 c 28.415,1.29159 41.1464,-11.07077 41.1464,-11.07077 0,0 -12.9159,10.33272 -41.1464,11.07077 z"
         style="opacity:0.6;fill:#1c170e;stroke:none" />
      <path
         sodipodi:nodetypes="ccc"
         style="opacity:0.6;fill:#1c170e;stroke:none"
         d="m 617.23257,537.5208 c 17.71326,-7.74954 21.40353,-9.04114 21.40353,-9.04114 0,0 -9.04118,5.35088 -21.40353,9.04114 z"
         id="path4932"
         inkscape:connector-curvature="0" />
      <path
         sodipodi:nodetypes="ccccccc"
         inkscape:connector-curvature="0"
         id="path4934"
         d="m 583.39098,454.42778 -1.1742,3.13129 c 0,0 17.3525,17.61348 22.1799,20.09241 5.3493,3.13128 14.8736,2.6094 14.8736,2.6094 l -9.3938,-4.69693 c 0,0 -0.5219,-21.13617 -14.8736,-21.39711 z"
         style="opacity:0.6;fill:#1c170e;stroke:none" />
      <path
         sodipodi:nodetypes="cccccccsccc"
         inkscape:connector-curvature="0"
         id="path4936"
         d="m 620.05308,480.13041 9.7853,-4.43598 c 0,0 -0.7828,-11.35092 1.4352,-14.09079 4.6969,-6.26257 12.5251,-6.39304 12.5251,-6.39304 l 4.5665,0.78283 9.3898,1.32999 -4.3716,25.8917 c 0,0 -1.6892,-13.43942 -11.0971,-7.78773 -3.9858,2.39441 -17.3236,5.17174 -21.4503,4.83349 l -0.7829,0.52188 z"
         style="opacity:0.6;fill:#1c170e;stroke:none" />
      <path
         inkscape:export-ydpi="266.25"
         inkscape:export-xdpi="266.25"
         inkscape:export-filename="/run/media/tnzk/A6382E54382E2431/Users/tnzk/Desktop/gymb/nicola/g4990.png"
         sodipodi:nodetypes="cccccccc"
         inkscape:connector-curvature="0"
         id="path4633"
         d="m 601.93972,502.22259 14.8736,-6.26257 -18.2658,40.44576 23.2237,-35.8793 7.6977,35.87929 -4.5664,-40.31528 5.4797,-13.17749 z"
         style="fill:#f9933b;fill-opacity:1;stroke:#f8d8b3;stroke-width:0.5;stroke-linecap:butt;stroke-linejoin:miter;stroke-opacity:1" />
      <path
         inkscape:export-ydpi="266.25"
         inkscape:export-xdpi="266.25"
         inkscape:export-filename="/run/media/tnzk/A6382E54382E2431/Users/tnzk/Desktop/gymb/nicola/g4990.png"
         style="fill:#ffffff;fill-opacity:1;stroke:none;filter:url(#filter4659-5-2)"
         d="m 601.93972,502.22259 14.8736,-6.26257 -18.2658,40.44576 23.2237,-35.8793 7.6977,35.87929 -4.5664,-40.31528 5.4797,-13.17749 z"
         id="path4637"
         inkscape:connector-curvature="0"
         sodipodi:nodetypes="cccccccc" />
    </g>
    <g
       transform="matrix(0.2466183,0,0,0.2466183,367.57379,184.94606)"
       id="g4057">
      <path
         inkscape:connector-curvature="0"
         id="path3896"
         d="m 245.25,71.843746 -0.28125,0 0.125,0.09375 c 0.0353,0.0614 0.0291,0 0.0312,0 l 0.125,-0.09375 z"
         style="fill:#8f0000;stroke:none" />
      <path
         inkscape:connector-curvature="0"
         id="path3894"
         d="m 272,46.937496 -53.75,0 9.3125,12.125 17.40625,12.78125 0.28125,0 17.40625,-12.78125 9.34375,-12.125 z"
         style="fill:url(#linearGradient3904);fill-opacity:1;stroke:none" />
      <path
         inkscape:connector-curvature="0"
         id="path3884"
         d="m 245.09375,34.54419 -18.03125,1.25 -8.84375,11.15625 0.0312,0.03125 53.75,0 0.0312,-0.03125 -8.875,-11.15625 -18.03125,-1.25 -0.0312,0 z"
         style="fill:url(#linearGradient3912);fill-opacity:1;stroke:none" />
      <path
         style="fill:url(#radialGradient3924);fill-opacity:1;stroke:none"
         d="m 245.03661,34.476789 -18.03125,1.25 -8.84375,11.15625 0.0312,0.03125 53.75,0 0.0312,-0.03125 -8.875,-11.15625 -18.03125,-1.25 -0.0312,0 z"
         id="path3914"
         inkscape:connector-curvature="0" />
      <path
         inkscape:connector-curvature="0"
         id="path3996"
         d="m 227.5625,50.312496 -2.65625,5.28125 -0.375,-0.53125 0.0625,1.03125 2.90625,3.71875 1.84375,1.03125 10,-10.40625 -0.1875,-0.125 -11.59375,0 z m 23.3125,0 -0.1875,0.125 10.03125,10.40625 1.8125,-1.03125 2.90625,-3.71875 0.0937,-1.03125 -0.40625,0.53125 -2.625,-5.28125 -11.625,0 z m -10.34375,7.15625 -7.84375,5.34375 -0.375,-0.28125 0.0312,0.46875 5.71875,4.1875 6.59375,-4.8125 0,-4.90625 -4.125,0 z m 4.875,0 0,4.90625 6.5625,4.8125 5.75,-4.1875 0.0312,-0.46875 -0.40625,0.28125 -7.8125,-5.34375 -4.125,0 z"
         style="fill:url(#linearGradient4049);fill-opacity:1;stroke:none" />
      <path
         inkscape:connector-curvature="0"
         id="path3994"
         d="m 223.0625,39.557134 -3.65625,3.90625 0.4375,1.375 8.03125,4.937505 -0.3125,0.625 11.59375,0 -15.5625,-10.312505 0.375,-0.4375 -0.90625,-0.09375 z"
         style="fill:#89622e;fill-opacity:1;stroke:none" />
      <path
         inkscape:connector-curvature="0"
         id="path4051"
         d="m 234.625,33.854996 10.375,-12.375 10.25,12 -0.875,0.75 -9.625,-12.125 -9.5,11.875 z"
         style="fill:#ee8cf5;stroke:none;fill-opacity:1" />
      <path
         inkscape:connector-curvature="0"
         id="rect3928"
         d="m 235.53125,32.343746 -6.375,3.15625 12.375,8.53125 3.125,0 0,-5.59375 -5.3125,-3.5 0.625,-0.0625 -4.4375,-2.53125 z"
         style="fill:#89622e;fill-opacity:1;stroke:none" />
      <path
         inkscape:connector-curvature="0"
         id="path3987"
         d="m 267,39.557134 -0.90625,0.09375 0.34375,0.4375 -15.5625,10.312505 11.625,0 -0.3125,-0.625 8.03125,-4.937505 0.4375,-1.375 L 267,39.557134 z"
         style="fill:#89622e;fill-opacity:1;stroke:none" />
      <path
         inkscape:connector-curvature="0"
         id="path3980"
         d="m 254.53125,32.343746 -4.4375,2.53125 0.625,0.0625 -5.3125,3.5 0,5.59375 3.125,0 12.375,-8.53125 -6.375,-3.15625 z"
         style="fill:#89622e;fill-opacity:1;stroke:none" />
      <g
         transform="translate(97.500002,-51.500001)"
         id="g4022">
        <path
           style="fill:#693b00;fill-opacity:1;stroke:none"
           d="m 147.53125,90.374997 -0.84943,0.849432 -0.73864,0 0,0.738636 -0.84943,0.849432 0.84943,0.849432 0,0.738636 0.70171,0 0.88636,0.886364 0.88636,-0.886364 0.70171,0 0,-0.738636 0.84943,-0.849432 -0.84943,-0.849432 0,-0.738636 -0.73864,0 -0.84943,-0.849432 z"
           id="rect4014"
           inkscape:connector-curvature="0" />
        <path
           inkscape:connector-curvature="0"
           id="path4020"
           d="m 147.53125,91.128311 -0.58889,0.588887 -0.51207,0 0,0.512076 -0.58889,0.588887 0.58889,0.588887 0,0.512076 0.48647,0 0.61449,0.614491 0.61449,-0.614491 0.48647,0 0,-0.512076 0.58889,-0.588887 -0.58889,-0.588887 0,-0.512076 -0.51207,0 -0.58889,-0.588887 z"
           style="fill:#f42455;fill-opacity:1;stroke:none" />
      </g>
      <g
         transform="translate(97.500002,-32.625001)"
         id="g4026">
        <path
           inkscape:connector-curvature="0"
           id="path4028"
           d="m 147.53125,90.374997 -0.84943,0.849432 -0.73864,0 0,0.738636 -0.84943,0.849432 0.84943,0.849432 0,0.738636 0.70171,0 0.88636,0.886364 0.88636,-0.886364 0.70171,0 0,-0.738636 0.84943,-0.849432 -0.84943,-0.849432 0,-0.738636 -0.73864,0 -0.84943,-0.849432 z"
           style="fill:#3e3220;fill-opacity:1;stroke:none" />
        <path
           style="fill:#b71f42;fill-opacity:1;stroke:none"
           d="m 147.53125,91.128311 -0.58889,0.588887 -0.51207,0 0,0.512076 -0.58889,0.588887 0.58889,0.588887 0,0.512076 0.48647,0 0.61449,0.614491 0.61449,-0.614491 0.48647,0 0,-0.512076 0.58889,-0.588887 -0.58889,-0.588887 0,-0.512076 -0.51207,0 -0.58889,-0.588887 z"
           id="path4030"
           inkscape:connector-curvature="0" />
      </g>
      <path
         sodipodi:nodetypes="ccccccccc"
         inkscape:connector-curvature="0"
         id="path4055"
         d="m 244.31905,21.347125 c 0,0 -18.57022,1.813764 -63.6264,-61.418486 l 1.23744,-1.06066 c 42.75217,61.184242 63.09006,62.091202 63.09006,62.091202 0,0 38.06657,-14.5626846 63.92267,-66.082888 l 0.53079,0.14439 C 293.08955,0.84486401 245.63665,21.690385 245.63665,21.690385 l -0.79327,-0.521315 z"
         style="fill:#d49ac7;fill-opacity:1;stroke:none" />
    </g>
    <path
       style="fill:#1d1514;fill-opacity:1;stroke:none"
       d="m 444.50856,179.11384 c 0,0 3.46548,-4.29132 3.46548,-6.79132 l -5.26926,-8.35624 -1.14467,-1.17478 c 0,0 -10.2241,11.25411 -29.86696,0.18268 l -1.09626,0.91542 -2.56057,7.92876 c -0.0893,4.64286 4.1398,7.47802 4.1398,7.47802 5.89286,7.23215 26.966,5.75211 32.33244,-0.18254 z"
       id="rect2999"
       inkscape:connector-curvature="0"
       sodipodi:nodetypes="ccccccccc" />
    <path
       style="opacity:0.6;fill:#0d0601;fill-opacity:1;stroke:none"
       d="m 222.73864,149.13788 c -0.1894,8.46003 11.74302,12.12182 16.85692,12.05869 0,0 10.2278,0.94702 12.94258,-1.57836 8.52316,-1.8309 10.03839,-10.16466 10.03839,-10.16466 l -5.42957,-8.52316 -0.88389,-1.13642 -3.77586,2.80401 c -0.88388,8.3969 -8.97731,11.71693 -8.97731,11.71693 -7.35876,2.37061 -16.64078,2.16618 -20.36572,-7.4934 z"
       id="path3863"
       inkscape:connector-curvature="0"
       transform="translate(185.44553,22.998541)"
       sodipodi:nodetypes="cccccccccc" />
    <path
       sodipodi:nodetypes="cccccccccccccccccccccccccccccccccccccccccccccccccccccccccccccccccccccccccccccccccccccccccccccccccccccccccccccccccc"
       inkscape:connector-curvature="0"
       id="path3865"
       d="m 438.46219,168.27139 c -0.26371,1.46592 -0.97638,-1.13132 0,0 z m -12.2175,6.30434 c 0.12663,0.55929 0.32524,2.2658 -0.0936,2.02097 -0.0904,-1.14746 -0.25772,-2.42344 -0.7606,-3.42042 0.54272,-0.26744 1.12122,-0.11374 0.84558,0.87097 l -0.007,0.28263 0.0169,0.24573 10e-5,10e-6 z m -9.2692,-5.24915 c -0.26373,1.46592 -0.9764,-1.13134 0,0 z m -3.08383,1.31695 c 0.12663,0.5593 0.32525,2.26582 -0.0936,2.02098 -0.0904,-1.14746 -0.25772,-2.42345 -0.76061,-3.42043 0.54273,-0.26746 1.12123,-0.11374 0.84559,0.87097 l -0.007,0.28265 0.0169,0.24574 9e-5,-1e-5 z m 26.80653,-1.26463 c 0.62126,1.12195 0.42116,2.5162 0.0191,3.37761 0.10645,-0.99198 0.0474,-2.36895 -0.14757,-3.5376 l 0.12852,0.15999 z m -0.90591,0.20197 c -0.27267,1.56776 0.33864,3.39812 0.48262,5.064 -0.80944,-1.59914 -0.97675,-3.54101 -0.58972,-5.01227 l 0.0508,-0.0548 0.0564,0.005 z m -2.74227,1.09446 c -0.76608,0.82349 0.037,2.53055 0.47387,3.69197 0.65886,1.33822 -0.75554,0.5636 -0.58586,-0.36204 -0.39624,-1.51261 -1.26715,-2.87305 -1.6118,-4.38779 0.93855,-0.91961 0.51223,2.44516 1.3381,1.79601 0.47802,-0.46408 -0.17452,-2.35742 0.62196,-2.06844 0.039,0.49465 -0.11231,0.92676 -0.23627,1.33029 z m -7.59528,5.12849 c -0.007,0.56892 0.84511,2.66986 -0.006,1.65288 -0.17244,-1.06248 -0.27583,-2.15853 -0.18478,-3.15187 0.12104,0.50291 0.1173,0.99962 0.19021,1.49899 z m -1.37951,-1.2662 c 0.7001,1.63689 0.57858,3.42095 0.43072,4.96741 -0.29221,0.46392 0.24141,-2.61317 -0.62746,-1.6524 -0.15093,0.54412 0.29965,3.02342 -0.22709,1.17703 -0.41792,-1.45853 -0.46947,-3.02582 -0.19745,-4.31795 0.0749,-0.32924 0.35708,-0.49817 0.62129,-0.17404 z m -0.51036,1.46132 c 0.0371,0.68609 0.6323,2.14586 0.59415,0.72046 0.097,-0.531 -0.18472,-2.96834 -0.49057,-1.42869 -0.0419,0.23174 -0.0743,0.46925 -0.10358,0.70823 z m -2.99459,-1.29104 c -0.24824,1.70772 0.70975,3.58361 0.81952,5.34952 0.004,1.53667 -2.59591,-1.02731 -0.91337,-0.22736 1.13716,-0.17156 0.0685,-2.43819 -0.10203,-3.58291 -0.15018,-0.58752 -0.88895,-2.65098 0.19588,-1.53925 z m -5.35875,-4.27362 c 0.62129,1.12194 0.42118,2.51619 0.0191,3.37759 0.10645,-0.99197 0.0474,-2.36894 -0.14757,-3.5376 l 0.12851,0.16001 z m -0.90591,0.20196 c -0.27268,1.56777 0.33872,3.39812 0.4827,5.064 -0.80896,-1.59854 -0.97678,-3.54026 -0.59022,-5.01118 l 0.051,-0.055 0.0564,0.002 z m -2.5834,-0.0308 c 0.70008,1.6369 0.57859,3.42097 0.43071,4.9674 -0.29221,0.46393 0.24139,-2.61316 -0.62746,-1.65239 -0.15092,0.54412 0.29968,3.0234 -0.22707,1.17701 -0.41791,-1.45853 -0.46947,-3.02578 -0.19745,-4.31793 0.069,-0.32695 0.36398,-0.49807 0.62128,-0.17405 z m -0.51036,1.46132 c 0.0371,0.68609 0.63231,2.14588 0.59417,0.72047 0.097,-0.531 -0.18472,-2.96835 -0.49058,-1.42872 -0.0419,0.23173 -0.0743,0.46926 -0.10359,0.70825 z m 23.50779,-2.02754 c 0.69381,1.2611 -0.93008,-0.77402 -0.20182,-0.19819 z m -21.48669,1.05519 c 0.69647,1.25188 -0.93094,-0.7785 -0.20223,-0.19846 z m 13.58302,1.80107 c -0.35333,0.34064 -1.77307,-0.1142 -0.64814,-0.15132 0.084,0.019 1.0259,-0.059 0.64814,0.15132 z m 3.60996,1.84117 c 0.13485,0.48565 0.19863,2.74798 -0.12351,1.20706 -0.10669,-0.61364 -0.28418,-2.45201 0.0411,-2.28636 0.0551,0.36398 0.0666,0.72233 0.0824,1.0793 z m -12.77621,-0.69018 c 0.13484,0.48561 0.1986,2.74795 -0.12352,1.20704 -0.10871,-0.61984 -0.27918,-2.45627 0.0362,-2.30385 0.0557,0.36958 0.0693,0.73382 0.0873,1.09681 z m 12.18742,1.24699 c 0.1588,0.66686 0.0115,2.12688 -0.24508,0.61344 -0.31022,-0.67912 0.22818,-1.99034 0.24508,-0.61344 z m -12.77622,-0.69019 c 0.13845,0.5095 0.0553,2.1045 -0.2298,0.73767 -0.33461,-0.67225 0.21813,-2.2649 0.2298,-0.73767 z m 15.27039,-0.32735 c -0.1026,0.48655 -0.60869,1.43223 -0.32807,0.28855 0.10953,-0.55128 0.55202,-1.85916 0.34817,-0.52723 l -0.02,0.23865 z m -7.58315,7.01856 c -0.45085,0.14657 -1.86112,0.21859 -1.84238,-0.0285 0.38047,0.008 2.03362,-0.29687 1.84238,0.0285 z"
       style="fill:#e6c36e;fill-opacity:1;filter:url(#filter3871)" />
    <path
       style="fill:#ffffff;fill-opacity:1"
       d="m 438.46219,168.27139 c -0.26371,1.46592 -0.97638,-1.13132 0,0 z m -12.2175,6.30434 c 0.12663,0.55929 0.32524,2.2658 -0.0936,2.02097 -0.0904,-1.14746 -0.25772,-2.42344 -0.7606,-3.42042 0.54272,-0.26744 1.12122,-0.11374 0.84558,0.87097 l -0.007,0.28263 0.0169,0.24573 10e-5,10e-6 z m -9.2692,-5.24915 c -0.26373,1.46592 -0.9764,-1.13134 0,0 z m -3.08383,1.31695 c 0.12663,0.5593 0.32525,2.26582 -0.0936,2.02098 -0.0904,-1.14746 -0.25772,-2.42345 -0.76061,-3.42043 0.54273,-0.26746 1.12123,-0.11374 0.84559,0.87097 l -0.007,0.28265 0.0169,0.24574 9e-5,-1e-5 z m 26.80653,-1.26463 c 0.62126,1.12195 0.42116,2.5162 0.0191,3.37761 0.10645,-0.99198 0.0474,-2.36895 -0.14757,-3.5376 l 0.12852,0.15999 z m -0.90591,0.20197 c -0.27267,1.56776 0.33864,3.39812 0.48262,5.064 -0.80944,-1.59914 -0.97675,-3.54101 -0.58972,-5.01227 l 0.0508,-0.0548 0.0564,0.005 z m -2.74227,1.09446 c -0.76608,0.82349 0.037,2.53055 0.47387,3.69197 0.65886,1.33822 -0.75554,0.5636 -0.58586,-0.36204 -0.39624,-1.51261 -1.26715,-2.87305 -1.6118,-4.38779 0.93855,-0.91961 0.51223,2.44516 1.3381,1.79601 0.47802,-0.46408 -0.17452,-2.35742 0.62196,-2.06844 0.039,0.49465 -0.11231,0.92676 -0.23627,1.33029 z m -7.59528,5.12849 c -0.007,0.56892 0.84511,2.66986 -0.006,1.65288 -0.17244,-1.06248 -0.27583,-2.15853 -0.18478,-3.15187 0.12104,0.50291 0.1173,0.99962 0.19021,1.49899 z m -1.37951,-1.2662 c 0.7001,1.63689 0.57858,3.42095 0.43072,4.96741 -0.29221,0.46392 0.24141,-2.61317 -0.62746,-1.6524 -0.15093,0.54412 0.29965,3.02342 -0.22709,1.17703 -0.41792,-1.45853 -0.46947,-3.02582 -0.19745,-4.31795 0.0749,-0.32924 0.35708,-0.49817 0.62129,-0.17404 z m -0.51036,1.46132 c 0.0371,0.68609 0.6323,2.14586 0.59415,0.72046 0.097,-0.531 -0.18472,-2.96834 -0.49057,-1.42869 -0.0419,0.23174 -0.0743,0.46925 -0.10358,0.70823 z m -2.99459,-1.29104 c -0.24824,1.70772 0.70975,3.58361 0.81952,5.34952 0.004,1.53667 -2.59591,-1.02731 -0.91337,-0.22736 1.13716,-0.17156 0.0685,-2.43819 -0.10203,-3.58291 -0.15018,-0.58752 -0.88895,-2.65098 0.19588,-1.53925 z m -5.35875,-4.27362 c 0.62129,1.12194 0.42118,2.51619 0.0191,3.37759 0.10645,-0.99197 0.0474,-2.36894 -0.14757,-3.5376 l 0.12851,0.16001 z m -0.90591,0.20196 c -0.27268,1.56777 0.33872,3.39812 0.4827,5.064 -0.80896,-1.59854 -0.97678,-3.54026 -0.59022,-5.01118 l 0.051,-0.055 0.0564,0.002 z m -2.5834,-0.0308 c 0.70008,1.6369 0.57859,3.42097 0.43071,4.9674 -0.29221,0.46393 0.24139,-2.61316 -0.62746,-1.65239 -0.15092,0.54412 0.29968,3.0234 -0.22707,1.17701 -0.41791,-1.45853 -0.46947,-3.02578 -0.19745,-4.31793 0.069,-0.32695 0.36398,-0.49807 0.62128,-0.17405 z m -0.51036,1.46132 c 0.0371,0.68609 0.63231,2.14588 0.59417,0.72047 0.097,-0.531 -0.18472,-2.96835 -0.49058,-1.42872 -0.0419,0.23173 -0.0743,0.46926 -0.10359,0.70825 z m 23.50779,-2.02754 c 0.69381,1.2611 -0.93008,-0.77402 -0.20182,-0.19819 z m -21.48669,1.05519 c 0.69647,1.25188 -0.93094,-0.7785 -0.20223,-0.19846 z m 13.58302,1.80107 c -0.35333,0.34064 -1.77307,-0.1142 -0.64814,-0.15132 0.084,0.019 1.0259,-0.059 0.64814,0.15132 z m 3.60996,1.84117 c 0.13485,0.48565 0.19863,2.74798 -0.12351,1.20706 -0.10669,-0.61364 -0.28418,-2.45201 0.0411,-2.28636 0.0551,0.36398 0.0666,0.72233 0.0824,1.0793 z m -12.77621,-0.69018 c 0.13484,0.48561 0.1986,2.74795 -0.12352,1.20704 -0.10871,-0.61984 -0.27918,-2.45627 0.0362,-2.30385 0.0557,0.36958 0.0693,0.73382 0.0873,1.09681 z m 12.18742,1.24699 c 0.1588,0.66686 0.0115,2.12688 -0.24508,0.61344 -0.31022,-0.67912 0.22818,-1.99034 0.24508,-0.61344 z m -12.77622,-0.69019 c 0.13845,0.5095 0.0553,2.1045 -0.2298,0.73767 -0.33461,-0.67225 0.21813,-2.2649 0.2298,-0.73767 z m 15.27039,-0.32735 c -0.1026,0.48655 -0.60869,1.43223 -0.32807,0.28855 0.10953,-0.55128 0.55202,-1.85916 0.34817,-0.52723 l -0.02,0.23865 z m -7.58315,7.01856 c -0.45085,0.14657 -1.86112,0.21859 -1.84238,-0.0285 0.38047,0.008 2.03362,-0.29687 1.84238,0.0285 z"
       id="path3781"
       inkscape:connector-curvature="0"
       sodipodi:nodetypes="cccccccccccccccccccccccccccccccccccccccccccccccccccccccccccccccccccccccccccccccccccccccccccccccccccccccccccccccccc" />
    <path
       style="opacity:0.6;fill:#705438;fill-opacity:1;stroke:none"
       d="m 227.23214,139.41081 c 0,0 6.16072,-4.55357 27.58929,-2.67857 L 255,132.6251 l -28.125,-1.875 z"
       id="path3861"
       inkscape:connector-curvature="0"
       transform="translate(185.44553,22.998541)"
       sodipodi:nodetypes="ccccc" />
  </g>
</svg>
