<?xml version="1.0" encoding="UTF-8" standalone="no"?>
<!-- Created with Inkscape (http://www.inkscape.org/) -->

<svg
   xmlns:dc="http://purl.org/dc/elements/1.1/"
   xmlns:cc="http://creativecommons.org/ns#"
   xmlns:rdf="http://www.w3.org/1999/02/22-rdf-syntax-ns#"
   xmlns:svg="http://www.w3.org/2000/svg"
   xmlns="http://www.w3.org/2000/svg"
   xmlns:sodipodi="http://sodipodi.sourceforge.net/DTD/sodipodi-0.dtd"
   xmlns:inkscape="http://www.inkscape.org/namespaces/inkscape"
   width="74.497543"
   height="35.993896"
   id="svg3069"
   version="1.1"
   inkscape:version="0.48.4 r9939"
   sodipodi:docname="eyes-edge.svg">
  <defs
     id="defs3071" />
  <sodipodi:namedview
     id="base"
     pagecolor="#ffffff"
     bordercolor="#666666"
     borderopacity="1.0"
     inkscape:pageopacity="0.0"
     inkscape:pageshadow="2"
     inkscape:zoom="15.839192"
     inkscape:cx="37.173152"
     inkscape:cy="5.8570787"
     inkscape:document-units="px"
     inkscape:current-layer="layer1"
     showgrid="false"
     fit-margin-top="5"
     fit-margin-left="5"
     fit-margin-right="5"
     fit-margin-bottom="5"
     inkscape:window-width="1600"
     inkscape:window-height="870"
     inkscape:window-x="1366"
     inkscape:window-y="0"
     inkscape:window-maximized="1" />
  <metadata
     id="metadata3074">
    <rdf:RDF>
      <cc:Work
         rdf:about="">
        <dc:format>image/svg+xml</dc:format>
        <dc:type
           rdf:resource="http://purl.org/dc/dcmitype/StillImage" />
        <dc:title />
      </cc:Work>
    </rdf:RDF>
  </metadata>
  <g
     inkscape:label="レイヤー 1"
     inkscape:groupmode="layer"
     id="layer1"
     transform="translate(-110.52141,-244.2819)">
    <path
       sodipodi:nodetypes="cccccccccccc"
       style="fill:#fcf0e0;stroke:none"
       d="m 124.76459,273.83607 c 0,0 -3.59867,-1.32582 -4.41942,-2.52537 -2.96732,4.92449 4.04062,6.31345 4.04062,6.31345 l 7.95495,0.50507 8.20749,-2.14657 -0.25254,-3.03046 -2.27284,-0.25254 -2.14658,1.26269 -2.65165,0.50508 -4.04061,0.50508 -2.27284,-0.50508 z"
       id="path2990"
       inkscape:connector-curvature="0" />
    <path
       style="fill:#4c4438;stroke:none"
       d="m 154.79794,256.44841 c 0.63108,-1.89326 1.0784,-4.63534 7.02086,-6.6264 3.6293,-1.216 7.80659,-0.28783 10.96511,1.87411 3.03321,2.07618 6.7739,6.75348 7.19489,10.40498 0.0205,0.18028 0.0505,0.3673 0.0366,0.55808 -0.41441,5.69423 -2.53393,7.30342 -2.53393,7.30342 0,0 1.879,-2.43274 1.34407,-7.28456 -0.37252,-3.37886 -3.85412,-7.72135 -6.6726,-9.62172 -2.93004,-1.97555 -6.7814,-3.27263 -10.09736,-2.05102 -5.8565,2.15755 -7.25753,5.44311 -7.25753,5.44311 z"
       id="path3131"
       inkscape:connector-curvature="0"
       sodipodi:nodetypes="csssscssscc" />
    <path
       inkscape:connector-curvature="0"
       id="path2988"
       d="m 171.0043,273.83607 c 0,0 3.59867,-1.32582 4.41942,-2.52537 2.96732,4.92449 -4.04062,6.31345 -4.04062,6.31345 l -7.95495,0.50507 -8.20749,-2.14657 0.25254,-3.03046 2.27284,-0.25254 2.14658,1.26269 2.65165,0.50508 4.04061,0.50508 2.27284,-0.50508 z"
       style="fill:#fcf0e0;stroke:none"
       sodipodi:nodetypes="cccccccccccc" />
    <path
       style="fill:#4c4438;stroke:none"
       d="m 159.34776,273.87719 c 0,0 0.40895,1.48651 7.08414,1.39451 3.04062,-0.0419 4.40666,-1.56185 4.40666,-1.56185 0,0 -0.81137,0.5514 -4.57302,0.90573 -3.7987,0.35785 -6.91778,-0.73839 -6.91778,-0.73839 z"
       id="path3911"
       inkscape:connector-curvature="0"
       sodipodi:nodetypes="cscsc" />
    <path
       sodipodi:nodetypes="csssscssscc"
       inkscape:connector-curvature="0"
       id="path4095"
       d="m 140.74243,256.44841 c -0.63108,-1.89326 -1.0784,-4.63534 -7.02085,-6.6264 -3.62931,-1.216 -7.8066,-0.28783 -10.96513,1.87411 -3.03321,2.07618 -6.7739,6.75348 -7.19489,10.40498 -0.0205,0.18028 -0.0505,0.3673 -0.0366,0.55808 0.41441,5.69423 2.53394,7.30342 2.53394,7.30342 0,0 -1.879,-2.43274 -1.34407,-7.28456 0.37252,-3.37886 3.85412,-7.72135 6.6726,-9.62172 2.93005,-1.97555 6.78141,-3.27263 10.09736,-2.05102 5.85651,2.15755 7.25754,5.44311 7.25754,5.44311 z"
       style="fill:#4c4438;stroke:none" />
    <path
       sodipodi:nodetypes="cscsc"
       inkscape:connector-curvature="0"
       id="path4107"
       d="m 136.19261,273.87719 c 0,0 -0.40895,1.48651 -7.08414,1.39451 -3.04062,-0.0419 -4.40667,-1.56185 -4.40667,-1.56185 0,0 0.81137,0.5514 4.57303,0.90573 3.7987,0.35785 6.91778,-0.73839 6.91778,-0.73839 z"
       style="fill:#4c4438;stroke:none" />
  </g>
</svg>
