<?xml version="1.0" encoding="UTF-8" standalone="no"?>
<!-- Created with Inkscape (http://www.inkscape.org/) -->

<svg
   xmlns:dc="http://purl.org/dc/elements/1.1/"
   xmlns:cc="http://creativecommons.org/ns#"
   xmlns:rdf="http://www.w3.org/1999/02/22-rdf-syntax-ns#"
   xmlns:svg="http://www.w3.org/2000/svg"
   xmlns="http://www.w3.org/2000/svg"
   xmlns:xlink="http://www.w3.org/1999/xlink"
   xmlns:sodipodi="http://sodipodi.sourceforge.net/DTD/sodipodi-0.dtd"
   xmlns:inkscape="http://www.inkscape.org/namespaces/inkscape"
   width="102.7002"
   height="127.62427"
   id="svg3069"
   version="1.1"
   inkscape:version="0.48.4 r9939"
   sodipodi:docname="face.svg">
  <defs
     id="defs3071">
    <filter
       inkscape:collect="always"
       id="filter3792"
       x="-0.27819399"
       width="1.556388"
       y="-0.67809786"
       height="2.3561957">
      <feGaussianBlur
         inkscape:collect="always"
         stdDeviation="3.2290375"
         id="feGaussianBlur3794" />
    </filter>
    <filter
       color-interpolation-filters="sRGB"
       inkscape:collect="always"
       id="filter3792-2"
       x="-0.27819398"
       width="1.556388"
       y="-0.67809784"
       height="2.3561957">
      <feGaussianBlur
         inkscape:collect="always"
         stdDeviation="3.2290375"
         id="feGaussianBlur3794-5" />
    </filter>
    <linearGradient
       inkscape:collect="always"
       xlink:href="#linearGradient3997"
       id="linearGradient4003"
       x1="958.79834"
       y1="407.86023"
       x2="958.79834"
       y2="419.30359"
       gradientUnits="userSpaceOnUse"
       gradientTransform="matrix(0.9093027,0,0,0.9093027,83.252407,39.835999)" />
    <linearGradient
       id="linearGradient3997">
      <stop
         style="stop-color:#e65e10;stop-opacity:1;"
         offset="0"
         id="stop3999" />
      <stop
         style="stop-color:#f0a724;stop-opacity:0;"
         offset="1"
         id="stop4001" />
    </linearGradient>
    <linearGradient
       inkscape:collect="always"
       xlink:href="#linearGradient3987"
       id="linearGradient3993"
       x1="1125.2622"
       y1="170.4955"
       x2="1125.2622"
       y2="186.1324"
       gradientUnits="userSpaceOnUse"
       gradientTransform="matrix(0.89248875,0,0,0.89248875,-50.490476,243.48264)" />
    <linearGradient
       inkscape:collect="always"
       id="linearGradient3987">
      <stop
         style="stop-color:#ffffff;stop-opacity:1;"
         offset="0"
         id="stop3989" />
      <stop
         style="stop-color:#ffffff;stop-opacity:0;"
         offset="1"
         id="stop3991" />
    </linearGradient>
    <linearGradient
       inkscape:collect="always"
       xlink:href="#linearGradient3997"
       id="linearGradient4111"
       gradientUnits="userSpaceOnUse"
       gradientTransform="matrix(-0.9093027,0,0,0.9093027,1791.4866,39.835999)"
       x1="958.79834"
       y1="407.86023"
       x2="958.79834"
       y2="419.30359" />
    <linearGradient
       id="linearGradient3756">
      <stop
         style="stop-color:#e65e10;stop-opacity:1;"
         offset="0"
         id="stop3758" />
      <stop
         style="stop-color:#f0a724;stop-opacity:0;"
         offset="1"
         id="stop3760" />
    </linearGradient>
    <linearGradient
       inkscape:collect="always"
       xlink:href="#linearGradient3987"
       id="linearGradient4113"
       gradientUnits="userSpaceOnUse"
       x1="1125.2622"
       y1="170.4955"
       x2="1125.2622"
       y2="186.1324"
       gradientTransform="matrix(-0.89248875,0,0,0.89248875,1925.2294,243.48264)" />
  </defs>
  <sodipodi:namedview
     id="base"
     pagecolor="#ffffff"
     bordercolor="#666666"
     borderopacity="1.0"
     inkscape:pageopacity="0.0"
     inkscape:pageshadow="2"
     inkscape:zoom="5.6"
     inkscape:cx="65.285328"
     inkscape:cy="60.749487"
     inkscape:document-units="px"
     inkscape:current-layer="layer1"
     showgrid="false"
     fit-margin-top="5"
     fit-margin-left="5"
     fit-margin-right="5"
     fit-margin-bottom="5"
     inkscape:window-width="1600"
     inkscape:window-height="870"
     inkscape:window-x="1366"
     inkscape:window-y="0"
     inkscape:window-maximized="1" />
  <metadata
     id="metadata3074">
    <rdf:RDF>
      <cc:Work
         rdf:about="">
        <dc:format>image/svg+xml</dc:format>
        <dc:type
           rdf:resource="http://purl.org/dc/dcmitype/StillImage" />
        <dc:title />
      </cc:Work>
    </rdf:RDF>
  </metadata>
  <g
     inkscape:label="レイヤー 1"
     inkscape:groupmode="layer"
     id="layer1"
     transform="translate(-141.57839,-129.08952)">
    <g
       id="g3123"
       transform="translate(-745.52524,-208.46277)"
       inkscape:export-filename="/run/media/tnzk/A6382E54382E2431/Users/tnzk/Desktop/gymb/nicola/g4990.png"
       inkscape:export-xdpi="266.25"
       inkscape:export-ydpi="266.25">
      <path
         sodipodi:nodetypes="cccccccscc"
         inkscape:connector-curvature="0"
         id="rect3794-0-3"
         d="m 894.0761,380.89109 c 0,0 2.02031,-18.18274 10.85914,-25.75889 0,0 7.76633,-9.32436 24.43385,-12.60736 23.73858,-1.51523 39.61708,8.2013 39.61708,8.2013 12.6269,10.1015 14.87238,36.60718 14.87238,36.60718 1.26269,16.92005 -2.90932,40.52987 -2.90932,40.52987 -6.31344,20.96068 -27.37516,28.19187 -40.75969,28.69694 0,0 -4.82291,-0.23891 -7.39103,-0.44098 -12.22278,-0.96176 -33.41703,-9.50949 -35.43941,-17.39681 -4.54568,-16.66752 -7.82868,-30.55713 -3.283,-57.83125 z"
         style="fill:#fcf0e0;fill-opacity:1;stroke:#5d513b;stroke-width:0.5;stroke-linecap:butt;stroke-linejoin:miter;stroke-miterlimit:4;stroke-opacity:1" />
      <path
         style="fill:#bdb3a5;stroke:none"
         d="m 943.30192,399.09798 c 0,0 -1.83425,0.65176 -3.39733,2.55226 0,0 -0.21365,-1.23953 -0.97989,-1.54096 0.57353,-1.30361 2.67114,-1.27879 4.37722,-1.0113 z"
         id="path3835-4-4"
         inkscape:connector-curvature="0"
         sodipodi:nodetypes="cccc" />
      <path
         style="fill:#eed9bb;fill-opacity:1;stroke:none"
         d="m 936.71318,428.93991 c 0,0 -0.19929,1.08569 -1.13436,2.53366 0,0 0.98782,-0.17584 1.98672,-0.0684 0,0 0.71297,-0.6058 -0.13803,-2.18062 z"
         id="path3017-1"
         inkscape:connector-curvature="0"
         sodipodi:nodetypes="ccccc" />
      <path
         transform="matrix(0.73076924,0,0,0.921875,887.24478,345.73229)"
         d="m 46.071428,99.945694 c 0,3.155916 -6.236034,5.714286 -13.928571,5.714286 -7.692538,0 -13.928572,-2.55837 -13.928572,-5.714286 0,-3.155913 6.236034,-5.714286 13.928572,-5.714286 7.692537,0 13.928571,2.558373 13.928571,5.714286 z"
         sodipodi:ry="5.7142859"
         sodipodi:rx="13.928572"
         sodipodi:cy="99.945694"
         sodipodi:cx="32.142857"
         id="path3770-4"
         style="fill:#ffc9bc;fill-opacity:1;stroke:none;filter:url(#filter3792-2)"
         sodipodi:type="arc" />
      <path
         sodipodi:type="arc"
         style="fill:#ffc9bc;fill-opacity:1;stroke:none;filter:url(#filter3792-2)"
         id="path3796-0"
         sodipodi:cx="32.142857"
         sodipodi:cy="99.945694"
         sodipodi:rx="13.928572"
         sodipodi:ry="5.7142859"
         d="m 46.071428,99.945694 c 0,3.155916 -6.236034,5.714286 -13.928571,5.714286 -7.692538,0 -13.928572,-2.55837 -13.928572,-5.714286 0,-3.155913 6.236034,-5.714286 13.928572,-5.714286 7.692537,0 13.928571,2.558373 13.928571,5.714286 z"
         transform="matrix(0.73076924,0,0,0.921875,939.92336,345.73229)" />
      <path
         sodipodi:nodetypes="cccc"
         inkscape:connector-curvature="0"
         id="path4093"
         d="m 928.48487,399.09798 c 0,0 1.83425,0.65176 3.39732,2.55226 0,0 0.21367,-1.23953 0.97989,-1.54096 -0.57352,-1.30361 -2.67113,-1.27879 -4.37721,-1.0113 z"
         style="fill:#bdb3a5;stroke:none" />
    </g>
  </g>
</svg>
