<?xml version="1.0" encoding="UTF-8" standalone="no"?>
<!-- Created with Inkscape (http://www.inkscape.org/) -->

<svg
   xmlns:dc="http://purl.org/dc/elements/1.1/"
   xmlns:cc="http://creativecommons.org/ns#"
   xmlns:rdf="http://www.w3.org/1999/02/22-rdf-syntax-ns#"
   xmlns:svg="http://www.w3.org/2000/svg"
   xmlns="http://www.w3.org/2000/svg"
   xmlns:sodipodi="http://sodipodi.sourceforge.net/DTD/sodipodi-0.dtd"
   xmlns:inkscape="http://www.inkscape.org/namespaces/inkscape"
   width="622.25537"
   height="46.679722"
   id="svg3002"
   version="1.1"
   inkscape:version="0.48.4 r9939"
   sodipodi:docname="新規ドキュメント 1">
  <defs
     id="defs3004" />
  <sodipodi:namedview
     id="base"
     pagecolor="#ffffff"
     bordercolor="#666666"
     borderopacity="1.0"
     inkscape:pageopacity="0.0"
     inkscape:pageshadow="2"
     inkscape:zoom="0.35"
     inkscape:cx="138.98481"
     inkscape:cy="-117.54996"
     inkscape:document-units="px"
     inkscape:current-layer="layer1"
     showgrid="false"
     fit-margin-top="0"
     fit-margin-left="0"
     fit-margin-right="0"
     fit-margin-bottom="0"
     inkscape:window-width="976"
     inkscape:window-height="413"
     inkscape:window-x="1367"
     inkscape:window-y="51"
     inkscape:window-maximized="0" />
  <metadata
     id="metadata3007">
    <rdf:RDF>
      <cc:Work
         rdf:about="">
        <dc:format>image/svg+xml</dc:format>
        <dc:type
           rdf:resource="http://purl.org/dc/dcmitype/StillImage" />
        <dc:title></dc:title>
      </cc:Work>
    </rdf:RDF>
  </metadata>
  <g
     inkscape:label="レイヤー 1"
     inkscape:groupmode="layer"
     id="layer1"
     transform="translate(-236.01519,-348.1325)">
    <path
       style="fill:#000000"
       d="m 263.32127,392.96805 c -0.62692,-1.01431 0.8175,-1.84419 3.20994,-1.84419 2.3922,0 3.83663,0.82988 3.20971,1.84419 -0.62692,1.01429 -2.07135,1.84417 -3.20971,1.84417 -1.1386,0 -2.58302,-0.82988 -3.20994,-1.84417 z m 178.26599,-6.47413 c 1.91151,-4.57506 2.85154,-9.32802 2.08895,-10.56212 -0.76282,-1.2341 0.23471,-2.24381 2.21429,-2.24381 2.89566,0 3.15267,1.17932 1.31205,6.02064 -3.49019,9.17967 -2.7884,12.3338 2.99213,13.44714 3.31956,0.63936 2.05633,1.1359 -3.401,1.33682 l -8.68206,0.31963 3.47564,-8.3183 z m 96.34903,6.47413 c -0.62692,-1.01431 0.81751,-1.84419 3.20995,-1.84419 2.3922,0 3.83663,0.82988 3.20971,1.84419 -0.62692,1.01429 -2.07135,1.84417 -3.20971,1.84417 -1.1386,0 -2.58303,-0.82988 -3.20995,-1.84417 z m 42.13205,-6.47413 c 1.91151,-4.57506 2.85154,-9.32802 2.08895,-10.56212 -0.76282,-1.2341 0.23472,-2.24381 2.21429,-2.24381 2.89567,0 3.15268,1.17932 1.31205,6.02064 -3.49019,9.17967 -2.7884,12.3338 2.99213,13.44714 3.31956,0.63936 2.05633,1.1359 -3.401,1.33682 l -8.68206,0.31963 3.47564,-8.3183 z m 115.77582,5.0543 c 1.48996,-1.79521 2.93955,-6.54605 3.22121,-10.55745 0.44173,-6.28758 1.41298,-7.2941 7.04071,-7.29811 6.59076,-0.005 12.14714,7.07068 6.921,8.81275 -1.81551,0.60509 -1.9669,2.68566 -0.48046,6.59538 1.63995,4.31352 1.39092,5.71143 -1.01748,5.71143 -4.35418,0 -6.29596,-11.15186 -2.21476,-12.71801 4.74497,-1.82079 3.82489,-6.05909 -1.3151,-6.05909 -3.40687,0 -4.87008,2.26166 -6.07416,9.38855 -1.04518,6.18546 -2.81515,9.38855 -5.18811,9.38855 -2.80952,0 -3.00598,-0.71792 -0.89285,-3.264 z m 102.62434,1.41983 c -0.62692,-1.01431 0.81751,-1.84419 3.20994,-1.84419 2.39221,0 3.83664,0.82988 3.20971,1.84419 -0.62692,1.01429 -2.07134,1.84417 -3.20971,1.84417 -1.13859,0 -2.58302,-0.82988 -3.20994,-1.84417 z m 40.55102,-1.41983 c 1.48996,-1.79521 2.93955,-6.54605 3.22121,-10.55745 0.44173,-6.28758 1.41297,-7.2941 7.0407,-7.29811 6.59077,-0.005 12.14714,7.07068 6.92101,8.81275 -1.81551,0.60509 -1.9669,2.68566 -0.48046,6.59538 1.63994,4.31352 1.39091,5.71143 -1.01749,5.71143 -4.35417,0 -6.29596,-11.15186 -2.21475,-12.71801 4.74497,-1.82079 3.82489,-6.05909 -1.3151,-6.05909 -3.40687,0 -4.87008,2.26166 -6.07416,9.38855 -1.04518,6.18546 -2.81516,9.38855 -5.18811,9.38855 -2.80953,0 -3.00598,-0.71792 -0.89285,-3.264 z m -601.43649,-5.34218 c -4.73464,-4.73467 2.12017,-19.55946 9.04399,-19.55946 1.11325,0 0.0962,1.41051 -2.26241,3.13446 -2.44266,1.78603 -4.40252,6.32748 -4.55602,10.55676 -0.14787,4.08226 -0.35747,7.4247 -0.46521,7.42766 -0.10796,0.002 -0.89965,-0.69879 -1.76035,-1.55942 z m 11.94552,-0.87478 c 4.54148,-6.13654 7.23482,-22.28738 4.53185,-27.17536 -2.22414,-4.02224 -2.06853,-4.1115 1.73641,-0.99525 5.69651,4.66561 3.60943,20.13904 -3.62116,26.84711 -2.92664,2.71515 -4.11782,3.31071 -2.6471,1.3235 z m 37.28685,-5.33142 c 8.95574,-8.20728 9.39841,-13.84799 1.69205,-21.55435 -3.14798,-3.14805 -2.85928,-3.5346 2.63936,-3.5346 3.39584,0 5.5937,0.93928 4.88416,2.08729 -1.54442,2.49864 7.9582,26.5176 11.46365,28.97634 1.35218,0.94841 -0.50839,1.74057 -4.13472,1.76035 -3.84367,0.0211 -5.98285,-0.95157 -5.12943,-2.33221 0.80483,-1.30247 0.76751,-4.56142 -0.0822,-7.24211 l -1.547,-4.87397 -5.57351,5.23616 c -3.0656,2.87989 -5.01583,6.13884 -4.33399,7.24211 0.68184,1.10327 -0.91937,2.00596 -3.55849,2.00596 -4.09177,0 -3.54981,-1.1443 3.68125,-7.77097 z m 116.97756,-1.20352 c 1.02358,-7.81116 0.64147,-9.75876 -1.65943,-8.45744 -2.39572,1.35503 -2.40675,1.06318 -0.0563,-1.47027 5.38996,-5.80696 7.73921,0.615 3.92089,10.71884 l -3.53596,9.35693 1.32989,-10.14806 z m 14.51962,7.40972 c -3.14399,-3.1441 -1.42729,-16.23552 3.10385,-23.66695 2.55815,-4.19551 5.25454,-7.6282 5.99224,-7.6282 0.73747,0 -0.30325,2.34744 -2.31263,5.21654 -4.83815,6.90732 -4.60837,8.86628 1.04049,8.86628 4.46566,0 5.74391,-3.0525 4.91373,-11.73568 -0.23894,-2.50167 0.43117,-2.26447 2.31592,0.81948 6.39477,10.46353 -7.24045,35.94159 -15.0536,28.12853 z m 9.873,-7.97808 c 2.33634,-6.70159 2.15044,-7.1448 -2.70414,-6.45463 -3.70918,0.52733 -5.42705,2.60288 -5.95563,7.19571 -1.04095,9.04855 5.44043,8.49387 8.65977,-0.74108 z m 34.91835,7.98839 c 1.87654,-0.75721 2.93392,-6.11836 2.93392,-14.8755 0,-8.75714 -1.05738,-14.11829 -2.93392,-14.8755 -1.61365,-0.65112 2.61119,-1.26724 9.38855,-1.36915 10.30792,-0.15491 12.29196,0.48621 12.13705,3.92218 -0.11032,2.45379 -0.6619,2.92627 -1.36909,1.17357 -0.65109,-1.61366 -4.26451,-2.93392 -8.02979,-2.93392 -6.79167,0 -6.84566,0.10984 -6.84566,13.88723 0,8.91363 1.05058,14.3112 2.93392,15.07109 1.61366,0.65112 -0.23471,1.18385 -4.10749,1.18385 -3.87277,0 -5.72114,-0.53273 -4.10749,-1.18385 z m 49.09413,-0.009 c -4.73465,-4.73465 2.12017,-19.55945 9.04399,-19.55945 1.11324,0 0.0962,1.41052 -2.26241,3.13447 -2.44266,1.78603 -4.40252,6.32748 -4.55603,10.55676 -0.14787,4.08226 -0.35746,7.4247 -0.4652,7.42766 -0.10797,0.002 -0.89966,-0.69879 -1.76035,-1.55942 z m 11.94552,-0.87478 c 4.54147,-6.13654 7.23481,-22.28738 4.53185,-27.17539 -2.22415,-4.02221 -2.06853,-4.1115 1.73641,-0.99523 5.6965,4.66559 3.60943,20.13905 -3.62116,26.84709 -2.92665,2.71515 -4.11782,3.31073 -2.6471,1.32353 z m 32.65008,0.87478 c -3.14399,-3.14409 -1.42729,-16.2355 3.10386,-23.66694 2.55814,-4.1955 5.25453,-7.62819 5.99224,-7.62819 0.73747,0 -0.30325,2.34744 -2.31264,5.21654 -4.83815,6.90731 -4.60837,8.86628 1.04049,8.86628 4.46566,0 5.74391,-3.0525 4.91373,-11.73568 -0.23894,-2.50168 0.4314,-2.26447 2.31592,0.81948 6.39477,10.46353 -7.24045,35.94159 -15.0536,28.12853 z m 9.873,-7.97808 c 2.33634,-6.7016 2.15045,-7.14483 -2.70414,-6.45463 -3.70918,0.52731 -5.42705,2.60288 -5.95562,7.19571 -1.04119,9.04854 5.44043,8.49387 8.65976,-0.74108 z m 92.96423,0.56833 c 1.02358,-7.81113 0.64147,-9.75874 -1.65943,-8.45741 -2.39572,1.35502 -2.40675,1.06316 -0.0563,-1.47027 5.3902,-5.80696 7.73922,0.61499 3.92089,10.71883 l -3.53596,9.35696 1.32989,-10.14806 z m 14.51962,7.40975 c -3.14399,-3.14409 -1.42729,-16.2355 3.10386,-23.66694 2.55814,-4.1955 5.25453,-7.62819 5.99224,-7.62819 0.73747,0 -0.30325,2.34744 -2.31264,5.21654 -4.83815,6.90731 -4.60837,8.86628 1.04049,8.86628 4.46566,0 5.74391,-3.0525 4.91373,-11.73568 -0.23894,-2.50168 0.4314,-2.26447 2.31592,0.81948 6.39477,10.46353 -7.24045,35.94159 -15.0536,28.12853 z m 9.873,-7.97808 c 2.33634,-6.7016 2.15045,-7.14483 -2.70414,-6.45463 -3.70918,0.52731 -5.42705,2.60288 -5.95562,7.19571 -1.04119,9.04854 5.44043,8.49387 8.65976,-0.74108 z m 39.61263,7.98841 c 1.87654,-0.75721 2.93392,-6.11836 2.93392,-14.8755 0,-8.75715 -1.05738,-14.11829 -2.93392,-14.8755 -1.61366,-0.65112 2.61119,-1.26724 9.38855,-1.36915 10.30792,-0.15491 12.29195,0.48621 12.13704,3.92218 -0.11031,2.45379 -0.66189,2.92627 -1.36908,1.17357 -0.6511,-1.61366 -4.26451,-2.93392 -8.02979,-2.93392 -6.79168,0 -6.84566,0.10984 -6.84566,13.88723 0,8.91363 1.05058,14.3112 2.93392,15.07109 1.61366,0.65111 -0.23471,1.18384 -4.10749,1.18384 -3.87278,0 -5.72115,-0.53273 -4.10749,-1.18384 z m 49.09413,-0.009 c -4.73465,-4.73465 2.12016,-19.55945 9.04398,-19.55945 1.11325,0 0.0962,1.41052 -2.2624,3.13446 -2.44267,1.78603 -4.40253,6.32749 -4.55603,10.55677 -0.14787,4.08226 -0.35747,7.4247 -0.4652,7.42765 -0.10797,0.002 -0.89966,-0.69878 -1.76035,-1.55941 z m 11.94551,-0.87478 c 4.54148,-6.13654 7.23482,-22.28738 4.53186,-27.17539 -2.22415,-4.02222 -2.06854,-4.1115 1.73641,-0.99523 5.6965,4.66559 3.60943,20.13904 -3.62116,26.84709 -2.92665,2.71515 -4.11782,3.31073 -2.64711,1.32353 z m 32.65009,0.87478 c -3.14399,-3.14409 -1.4273,-16.2355 3.10385,-23.66694 2.55815,-4.1955 5.25454,-7.62819 5.99224,-7.62819 0.73747,0 -0.30325,2.34744 -2.31263,5.21653 -4.83815,6.90732 -4.60837,8.86629 1.04048,8.86629 4.46567,0 5.74392,-3.0525 4.91374,-11.73568 -0.23894,-2.50168 0.4314,-2.26448 2.31592,0.81947 6.39477,10.46354 -7.24045,35.9416 -15.0536,28.12854 z m 9.873,-7.97809 c 2.33634,-6.70159 2.15044,-7.14482 -2.70414,-6.45462 -3.70918,0.52731 -5.42705,2.60288 -5.95563,7.19571 -1.04119,9.04854 5.44043,8.49387 8.65977,-0.74109 z m -563.0148,4.8486 c -2.11547,-1.36711 -2.40511,-2.28961 -0.7255,-2.3112 1.53761,-0.0188 3.44818,1.02028 4.24621,2.3112 1.80096,2.91402 0.98838,2.91402 -3.52071,0 z m 274.61503,0 c -2.11547,-1.36711 -2.40511,-2.28961 -0.7255,-2.3112 1.53761,-0.0188 3.44818,1.02028 4.24621,2.3112 1.80096,2.91402 0.98838,2.91402 -3.52071,0 z m 260.53221,0 c -2.11548,-1.36711 -2.40511,-2.28961 -0.7255,-2.3112 1.53761,-0.0188 3.44818,1.02028 4.2462,2.3112 1.80096,2.91402 0.98838,2.91402 -3.5207,0 z M 362.17704,376.687 c 4.19551,-0.52064 11.06089,-0.52064 15.25639,0 4.19551,0.52066 0.76282,0.94667 -7.62819,0.94667 -8.39102,0 -11.8237,-0.42601 -7.6282,-0.94667 z m 258.18507,0 c 4.19551,-0.52064 11.06089,-0.52064 15.25639,0 4.19551,0.52066 0.76282,0.94667 -7.62819,0.94667 -8.39102,0 -11.82371,-0.42601 -7.6282,-0.94667 z M 320.74749,365.47488 c 3.55122,-13.94079 4.07346,-14.7837 4.27672,-6.90323 0.10093,3.94878 -1.35664,9.22983 -3.24139,11.73568 -3.09025,4.10867 -3.19188,3.63408 -1.03533,-4.83245 z m 168.99387,0 c 3.55121,-13.94079 4.07345,-14.7837 4.27671,-6.90323 0.10093,3.94878 -1.35664,9.22983 -3.24139,11.73568 -3.09024,4.10867 -3.19187,3.63408 -1.03532,-4.83245 z m 260.5322,0 c 3.55122,-13.94079 4.07346,-14.7837 4.27672,-6.90323 0.10093,3.94878 -1.35664,9.22983 -3.24139,11.73568 -3.09025,4.10867 -3.19188,3.63408 -1.03533,-4.83245 z m -420.7696,-2.93392 c 1.16206,-2.25912 2.71916,-5.6918 3.46062,-7.62819 0.74122,-1.93639 1.18741,-0.088 0.99143,4.10749 -0.21359,4.58107 -1.59629,7.62819 -3.46039,7.62819 -2.19621,0 -2.48632,-1.20124 -0.99166,-4.10749 z m 168.99386,0 c 1.16207,-2.25912 2.71916,-5.6918 3.46062,-7.62819 0.74123,-1.93639 1.18742,-0.088 0.99143,4.10749 -0.21359,4.58107 -1.59629,7.62819 -3.46038,7.62819 -2.19622,0 -2.48633,-1.20124 -0.99167,-4.10749 z m 260.53221,0 c 1.16206,-2.25912 2.71916,-5.6918 3.46062,-7.62819 0.74122,-1.93639 1.18741,-0.088 0.99143,4.10749 -0.21359,4.58107 -1.59629,7.62819 -3.46039,7.62819 -2.19621,0 -2.48632,-1.20124 -0.99166,-4.10749 z M 304.3173,360.19383 c 1.78453,-2.90459 4.7506,-5.28106 6.5917,-5.28106 1.84086,0 2.90716,0.27532 2.3692,0.6118 -0.53773,0.33649 -3.50404,2.71297 -6.59147,5.28106 l -5.61364,4.66925 3.24421,-5.28105 z m 121.23244,-11.70574 c 6.77736,-0.47412 17.86758,-0.47412 24.64494,0 6.77736,0.47412 1.23225,0.86206 -12.32247,0.86206 -13.55472,0 -19.09983,-0.38794 -12.32247,-0.86206 z m 257.09717,-0.007 c 7.46977,-0.4672 19.08809,-0.46288 25.81851,0.009 6.73018,0.47248 0.61847,0.85473 -13.58171,0.84945 -14.20018,-0.005 -19.7068,-0.39188 -12.2368,-0.85907 z"
       id="path3781"
       inkscape:connector-curvature="0" />
  </g>
</svg>
