<?xml version="1.0" encoding="UTF-8" standalone="no"?>
<!-- Created with Inkscape (http://www.inkscape.org/) -->

<svg
   xmlns:dc="http://purl.org/dc/elements/1.1/"
   xmlns:cc="http://creativecommons.org/ns#"
   xmlns:rdf="http://www.w3.org/1999/02/22-rdf-syntax-ns#"
   xmlns:svg="http://www.w3.org/2000/svg"
   xmlns="http://www.w3.org/2000/svg"
   xmlns:xlink="http://www.w3.org/1999/xlink"
   xmlns:sodipodi="http://sodipodi.sourceforge.net/DTD/sodipodi-0.dtd"
   xmlns:inkscape="http://www.inkscape.org/namespaces/inkscape"
   width="125.31944"
   height="145.32347"
   id="svg3069"
   version="1.1"
   inkscape:version="0.48.4 r9939"
   sodipodi:docname="fore-hair.svg">
  <defs
     id="defs3071">
    <linearGradient
       inkscape:collect="always"
       id="linearGradient3800">
      <stop
         style="stop-color:#ffffff;stop-opacity:1;"
         offset="0"
         id="stop3802" />
      <stop
         style="stop-color:#ffffff;stop-opacity:0;"
         offset="1"
         id="stop3804" />
    </linearGradient>
    <linearGradient
       inkscape:collect="always"
       id="linearGradient3786">
      <stop
         style="stop-color:#51a751;stop-opacity:1;"
         offset="0"
         id="stop3788" />
      <stop
         style="stop-color:#51a751;stop-opacity:0;"
         offset="1"
         id="stop3790" />
    </linearGradient>
    <linearGradient
       inkscape:collect="always"
       id="linearGradient3778">
      <stop
         style="stop-color:#51a751;stop-opacity:1;"
         offset="0"
         id="stop3780" />
      <stop
         style="stop-color:#51a751;stop-opacity:0;"
         offset="1"
         id="stop3782" />
    </linearGradient>
    <linearGradient
       inkscape:collect="always"
       id="linearGradient3770">
      <stop
         style="stop-color:#51a751;stop-opacity:1;"
         offset="0"
         id="stop3772" />
      <stop
         style="stop-color:#51a751;stop-opacity:0;"
         offset="1"
         id="stop3774" />
    </linearGradient>
    <linearGradient
       inkscape:collect="always"
       id="linearGradient3762">
      <stop
         style="stop-color:#51a751;stop-opacity:1;"
         offset="0"
         id="stop3764" />
      <stop
         style="stop-color:#51a751;stop-opacity:0;"
         offset="1"
         id="stop3766" />
    </linearGradient>
    <linearGradient
       inkscape:collect="always"
       xlink:href="#linearGradient3762"
       id="linearGradient3768"
       x1="23.001516"
       y1="132.5407"
       x2="26.593271"
       y2="36.828743"
       gradientUnits="userSpaceOnUse" />
    <linearGradient
       inkscape:collect="always"
       xlink:href="#linearGradient3770"
       id="linearGradient3776"
       x1="52.3041"
       y1="74.637497"
       x2="53.793781"
       y2="26.655256"
       gradientUnits="userSpaceOnUse" />
    <linearGradient
       inkscape:collect="always"
       xlink:href="#linearGradient3778"
       id="linearGradient3784"
       x1="88.312279"
       y1="91.32518"
       x2="74.288101"
       y2="44.605625"
       gradientUnits="userSpaceOnUse" />
    <linearGradient
       inkscape:collect="always"
       xlink:href="#linearGradient3786"
       id="linearGradient3792"
       x1="103.45631"
       y1="135.9317"
       x2="106.10455"
       y2="67.998947"
       gradientUnits="userSpaceOnUse" />
    <linearGradient
       inkscape:collect="always"
       xlink:href="#linearGradient3800"
       id="linearGradient3806"
       x1="-5.1805968"
       y1="55.648693"
       x2="53.158733"
       y2="22.818737"
       gradientUnits="userSpaceOnUse"
       gradientTransform="translate(129.07438,93.451996)" />
    <linearGradient
       inkscape:collect="always"
       xlink:href="#linearGradient3800"
       id="linearGradient3810"
       gradientUnits="userSpaceOnUse"
       gradientTransform="matrix(-1,0,0,1,243.45675,79.309864)"
       x1="2.6785712"
       y1="51.920444"
       x2="52.857143"
       y2="35.849018" />
    <linearGradient
       gradientTransform="translate(-1051.3913,-106.36243)"
       inkscape:collect="always"
       xlink:href="#linearGradient4833"
       id="linearGradient4839"
       x1="1123.4167"
       y1="165.29826"
       x2="1128.952"
       y2="128.44716"
       gradientUnits="userSpaceOnUse" />
    <linearGradient
       inkscape:collect="always"
       id="linearGradient4833">
      <stop
         style="stop-color:#e4b956;stop-opacity:1;"
         offset="0"
         id="stop4835" />
      <stop
         style="stop-color:#e4b956;stop-opacity:0;"
         offset="1"
         id="stop4837" />
    </linearGradient>
    <linearGradient
       gradientTransform="translate(-738.39858,-218.71386)"
       inkscape:collect="always"
       xlink:href="#linearGradient4841"
       id="linearGradient4847"
       x1="878.90387"
       y1="403.57605"
       x2="882.27039"
       y2="350.25186"
       gradientUnits="userSpaceOnUse" />
    <linearGradient
       inkscape:collect="always"
       id="linearGradient4841">
      <stop
         style="stop-color:#e4b956;stop-opacity:1;"
         offset="0"
         id="stop4843" />
      <stop
         style="stop-color:#e4b956;stop-opacity:0;"
         offset="1"
         id="stop4845" />
    </linearGradient>
    <linearGradient
       inkscape:collect="always"
       xlink:href="#linearGradient4833"
       id="linearGradient3062"
       gradientUnits="userSpaceOnUse"
       gradientTransform="translate(-919.3986,-16.351688)"
       x1="1123.4167"
       y1="165.29826"
       x2="1128.952"
       y2="128.44716" />
  </defs>
  <sodipodi:namedview
     id="base"
     pagecolor="#ffffff"
     bordercolor="#666666"
     borderopacity="1.0"
     inkscape:pageopacity="0.0"
     inkscape:pageshadow="2"
     inkscape:zoom="3.959798"
     inkscape:cx="118.33275"
     inkscape:cy="79.55079"
     inkscape:document-units="px"
     inkscape:current-layer="layer1"
     showgrid="false"
     fit-margin-top="5"
     fit-margin-left="5"
     fit-margin-right="5"
     fit-margin-bottom="5"
     inkscape:window-width="1600"
     inkscape:window-height="870"
     inkscape:window-x="1366"
     inkscape:window-y="0"
     inkscape:window-maximized="1" />
  <metadata
     id="metadata3074">
    <rdf:RDF>
      <cc:Work
         rdf:about="">
        <dc:format>image/svg+xml</dc:format>
        <dc:type
           rdf:resource="http://purl.org/dc/dcmitype/StillImage" />
        <dc:title />
      </cc:Work>
    </rdf:RDF>
  </metadata>
  <g
     inkscape:label="レイヤー 1"
     inkscape:groupmode="layer"
     id="layer1"
     transform="translate(-126.9927,-85.010746)">
    <path
       style="fill:#efca74;stroke:#6c3014;stroke-width:0.5;stroke-linecap:butt;stroke-linejoin:miter;stroke-opacity:1"
       d="m 222.36611,183.69737 c 0.738,41.88438 -9.0411,32.28972 -9.0411,32.28972 2.5832,15.49907 18.2667,11.6243 19.92731,-14.94553 0,0 -0.092,10.24046 0.2768,12.63913 1.6606,-3.598 2.6755,-11.16303 2.6755,-11.16303 0,0 1.1071,6.64246 -0.7381,14.392 23.9867,-30.99813 3.3213,-87.82805 3.3213,-87.82805 l -9.04121,16.97517 z"
       id="path4166"
       inkscape:connector-curvature="0"
       sodipodi:nodetypes="ccccccccc"
       inkscape:export-filename="/run/media/tnzk/A6382E54382E2431/Users/tnzk/Desktop/gymb/nicola/g4990.png"
       inkscape:export-xdpi="266.25"
       inkscape:export-ydpi="266.25" />
    <path
       style="fill:#efca74;stroke:#6c3014;stroke-width:0.5;stroke-linecap:butt;stroke-linejoin:miter;stroke-opacity:1"
       d="m 149.85261,168.01379 c -3.5057,40.40828 -1.8451,49.08037 1.6606,56.27637 -9.59469,-0.73805 -12.73139,-7.01148 -12.91589,-15.68358 -0.738,-18.26675 1.2916,-27.6769 1.2916,-27.6769 z"
       id="path4168"
       inkscape:connector-curvature="0"
       sodipodi:nodetypes="ccccc"
       inkscape:export-filename="/run/media/tnzk/A6382E54382E2431/Users/tnzk/Desktop/gymb/nicola/g4990.png"
       inkscape:export-xdpi="266.25"
       inkscape:export-ydpi="266.25" />
    <path
       style="fill:#efca74;fill-opacity:1;stroke:#6c3014;stroke-width:0.5;stroke-linecap:butt;stroke-linejoin:miter;stroke-opacity:1"
       d="m 173.10119,117.64182 c 0.1845,1.29159 -3.6461,23.57154 8.4876,50.18746 -0.065,-5.08834 0.5536,-9.04112 0.5536,-9.04112 1.1742,8.28486 7.511,13.35207 7.511,13.35207 2.0875,-7.82821 1.8991,-10.95341 1.8991,-10.95341 0,0 0.9206,3.15718 2.0296,3.87477 3.1965,-33.79178 1.6607,-40.5928 1.6607,-40.5928 0,0 2.0027,21.30559 17.5287,40.22377 1.0438,-2.34846 0.369,-6.27343 0.369,-6.27343 0,0 1.9618,15.50159 16.0526,39.1167 3.00081,-5.21881 3.94191,-15.3037 3.94191,-15.3037 0,0 -1.20971,6.70962 0.4864,11.79796 3.5227,-4.30552 4.2438,-12.91589 4.2438,-12.91589 0,0 -0.5443,6.69808 0.7604,8.65513 1.1742,-1.17423 1.5078,-3.86164 1.5078,-3.86164 0,0 -0.112,0.87236 -0.6655,8.25287 1.5683,-1.799 7.0694,-21.34944 3.5637,-56.59137 0,0 -1.4761,-22.14153 -21.40351,-36.71803 0,0 -5.53539,-6.088918 -21.957,-8.672088 0,0 -8.48759,-2.02964 -14.39199,0.36902 0,0 -4.42831,-2.76769 -11.4398,-2.21415 0,0 -19.37381,5.53538 -27.8614,18.451268 0,0 -8.8566,8.85661 -13.1004,36.71803 -2.9522,42.80695 5.3508,58.85956 5.3508,58.85956 -1.0438,-9.52432 -0.7381,-14.5765 -0.7381,-14.5765 0,0 0.9319,7.10645 1.8452,8.67209 1.1742,-1.95705 1.8451,-7.196 1.8451,-7.196 0,0 -0.5798,3.67873 2.0296,10.33271 0,0 7.196,-31.18264 12.5469,-73.80508 0,0 -1.5973,15.66663 -0.55351,19.18933 l 1.4761,-3.32123 c 0,0 0,3.27509 0.92261,5.16635 2.07579,-5.58151 2.5831,-13.1004 2.5831,-13.1004 0,0 -0.87641,10.9785 -0.369,15.31455 7.8879,-9.59466 13.2849,-33.3968 13.2849,-33.3968 z"
       id="path4164"
       inkscape:connector-curvature="0"
       sodipodi:nodetypes="ccccccccccccccccccccccccccccccccccc"
       inkscape:export-filename="/run/media/tnzk/A6382E54382E2431/Users/tnzk/Desktop/gymb/nicola/g4990.png"
       inkscape:export-xdpi="266.25"
       inkscape:export-ydpi="266.25" />
    <path
       style="fill:url(#linearGradient4847);fill-opacity:1;stroke:none"
       d="m 137.40998,133.69468 c -6.9149,23.48463 -0.3914,67.06168 -0.3914,67.06168 l 0.5219,-12.39467 1.4352,7.56727 1.8265,-7.17586 1.95709,10.9595 c 10.1767,-55.44983 12.3678,-76.13471 12.3678,-76.13471 l -11.9934,7.56502 z"
       id="path4829"
       inkscape:connector-curvature="0"
       sodipodi:nodetypes="ccccccccc"
       inkscape:export-filename="/run/media/tnzk/A6382E54382E2431/Users/tnzk/Desktop/gymb/nicola/g4990.png"
       inkscape:export-xdpi="266.25"
       inkscape:export-ydpi="266.25" />
    <path
       style="opacity:0.8;fill:url(#linearGradient3062);fill-opacity:1;stroke:none"
       d="m 156.32821,129.25869 c 0,0 -0.6524,17.22207 -0.6524,16.56972 0,-0.65235 1.4352,-2.34846 1.4352,-2.34846 l 0.6523,4.17504 3.0008,-13.17749 -0.5218,15.65643 c 0,0 12.4267,-27.43663 11.383,-32.26403 l 3.2296,0.4293 c -4.436,16.70018 6.1321,50.49196 6.5235,48.79585 0.3914,-1.69611 1.3047,-9.91573 1.3047,-9.91573 1.3047,8.35009 6.7845,13.82984 6.7845,13.82984 l 2.6094,-11.35091 1.4352,3.65316 1.8697,-39.01477 1.2615,0.39559 c 3.3923,22.57135 16.5698,39.0106 16.5698,39.0106 l 0.3914,-7.17587 c 2.6094,16.1783 16.0478,40.18481 16.0478,40.18481 l 3.91411,-15.52594 c 0,0 -0.086,9.15913 0.6524,11.74231 l 4.4359,-13.04701 c 0,0 -0.5693,7.74906 0.261,9.13291 l 1.4351,-3.9141 0.1306,6.5235 c 2.4137,-12.06848 3.1312,-46.83879 3.1312,-46.83879 l -6.7844,-26.61592 -12.91661,-15.52597 -6.1321,-4.566448 -17.0916,-3.78364 -24.91979,-0.13047 -13.1774,7.828218 c -6.0017,3.65316 -6.2626,27.92062 -6.2626,27.92062 z"
       id="path4831"
       inkscape:connector-curvature="0"
       sodipodi:nodetypes="csccccccscccccccccccccccccccccccc"
       inkscape:export-filename="/run/media/tnzk/A6382E54382E2431/Users/tnzk/Desktop/gymb/nicola/g4990.png"
       inkscape:export-xdpi="266.25"
       inkscape:export-ydpi="266.25" />
  </g>
</svg>
