<?xml version="1.0" encoding="UTF-8" standalone="no"?>
<!-- Created with Inkscape (http://www.inkscape.org/) -->

<svg
   xmlns:dc="http://purl.org/dc/elements/1.1/"
   xmlns:cc="http://creativecommons.org/ns#"
   xmlns:rdf="http://www.w3.org/1999/02/22-rdf-syntax-ns#"
   xmlns:svg="http://www.w3.org/2000/svg"
   xmlns="http://www.w3.org/2000/svg"
   xmlns:sodipodi="http://sodipodi.sourceforge.net/DTD/sodipodi-0.dtd"
   xmlns:inkscape="http://www.inkscape.org/namespaces/inkscape"
   width="49.44519"
   height="156.76315"
   id="svg3069"
   version="1.1"
   inkscape:version="0.48.4 r9939"
   sodipodi:docname="leg-right.svg">
  <defs
     id="defs3071" />
  <sodipodi:namedview
     id="base"
     pagecolor="#ffffff"
     bordercolor="#666666"
     borderopacity="1.0"
     inkscape:pageopacity="0.0"
     inkscape:pageshadow="2"
     inkscape:zoom="1.979899"
     inkscape:cx="84.362511"
     inkscape:cy="79.811199"
     inkscape:document-units="px"
     inkscape:current-layer="g3257"
     showgrid="false"
     fit-margin-top="5"
     fit-margin-left="5"
     fit-margin-right="5"
     fit-margin-bottom="5"
     inkscape:window-width="1600"
     inkscape:window-height="870"
     inkscape:window-x="1366"
     inkscape:window-y="0"
     inkscape:window-maximized="1" />
  <metadata
     id="metadata3074">
    <rdf:RDF>
      <cc:Work
         rdf:about="">
        <dc:format>image/svg+xml</dc:format>
        <dc:type
           rdf:resource="http://purl.org/dc/dcmitype/StillImage" />
        <dc:title />
      </cc:Work>
    </rdf:RDF>
  </metadata>
  <g
     inkscape:label="レイヤー 1"
     inkscape:groupmode="layer"
     id="layer1"
     transform="translate(-379.39424,-115.79385)">
    <g
       transform="translate(-206.34317,-461.1988)"
       id="g3257">
      <g
         id="g4254"
         transform="matrix(-1,0,0,1,1508.7411,-18.494199)"
         inkscape:export-filename="/run/media/tnzk/A6382E54382E2431/Users/tnzk/Desktop/gymb/nicola/g4990.png"
         inkscape:export-xdpi="266.25"
         inkscape:export-ydpi="266.25">
        <path
           style="fill:#fcf0e0;fill-opacity:1;stroke:#635448;stroke-width:0.43616164;stroke-linecap:butt;stroke-linejoin:miter;stroke-miterlimit:4;stroke-opacity:1"
           d="m 886.56448,648.31291 13.08487,-5.29627 16.20029,9.65787 c -1.65503,47.18673 -12.90491,53.53295 1.19435,88.47861 1.33082,3.29849 -3.06362,4.36152 -3.06362,4.36152 l -30.21979,-0.31154 -4.63949,-5.68177 9.78638,-13.66539 c 4.98469,-24.92352 -3.58918,-45.45401 -2.343,-77.54303 z"
           id="path4225"
           inkscape:connector-curvature="0"
           sodipodi:nodetypes="cccscccccc" />
        <path
           style="fill:#503831;fill-opacity:1;stroke:#876c78;stroke-width:0.5;stroke-linecap:butt;stroke-linejoin:miter;stroke-miterlimit:4;stroke-opacity:1"
           d="m 1068.25,469.8125 c 1.7209,19.66693 5.2884,35.52689 1.6562,53.6875 l -9.7812,13.65625 4.625,5.6875 30.2188,0.3125 c 0,0 4.3933,-1.07651 3.0624,-4.375 -11.8699,-29.42018 -5.7747,-38.65448 -2.5624,-68.96875 0,0 -13.9339,-3.69025 -27.2188,0 z"
           transform="translate(-181,202.36218)"
           id="path4291"
           inkscape:connector-curvature="0"
           sodipodi:nodetypes="cccccccc" />
        <path
           style="fill:#31221e;fill-opacity:1;stroke:#3b2934;stroke-width:0.43616164;stroke-linecap:butt;stroke-linejoin:miter;stroke-miterlimit:4;stroke-opacity:1"
           d="m 886.44953,727.8335 c 3.2444,-2.50096 6.93943,-4.05444 11.67816,-3.82742 4.73873,0.22702 15.73772,5.01506 15.73772,5.01506 0,0 7.83712,12.39275 0.6716,18.00054 l -30.81909,-0.62309 c -4.05007,-0.31154 -4.85979,-3.92043 -4.94625,-6.69328 -0.14688,-4.71045 3.94536,-8.99459 7.67786,-11.87181 z"
           id="path4227"
           inkscape:connector-curvature="0"
           sodipodi:nodetypes="szcccss" />
        <path
           style="fill:#fcf0e0;fill-opacity:1;stroke:none"
           d="m 884.75295,600.48685 32.08137,6.28413 c 3.11544,18.69264 -0.98022,48.12987 -0.98022,48.12987 -6.54243,7.78861 -26.48124,1.55773 -29.28514,-5.91934 0,0 -4.71876,-25.23535 -1.81601,-48.49466 z"
           id="path4229"
           inkscape:connector-curvature="0"
           sodipodi:nodetypes="ccccc" />
        <path
           style="fill:#503831;fill-opacity:1;stroke:none"
           d="m 1067.2188,398.125 c -0.5145,4.12223 -0.7707,8.31136 -0.875,12.40625 16.4393,5.74069 34.0624,6.21875 34.0624,6.21875 -0.1333,-4.3333 -0.4628,-8.55807 -1.0937,-12.34375 z"
           transform="translate(-182.4761,202.36218)"
           id="path4752"
           inkscape:connector-curvature="0"
           sodipodi:nodetypes="ccccc" />
      </g>
    </g>
  </g>
</svg>
