<?xml version="1.0" encoding="UTF-8" standalone="no"?>
<!-- Created with Inkscape (http://www.inkscape.org/) -->

<svg
   xmlns:dc="http://purl.org/dc/elements/1.1/"
   xmlns:cc="http://creativecommons.org/ns#"
   xmlns:rdf="http://www.w3.org/1999/02/22-rdf-syntax-ns#"
   xmlns:svg="http://www.w3.org/2000/svg"
   xmlns="http://www.w3.org/2000/svg"
   xmlns:sodipodi="http://sodipodi.sourceforge.net/DTD/sodipodi-0.dtd"
   xmlns:inkscape="http://www.inkscape.org/namespaces/inkscape"
   width="62.153786"
   height="46.670124"
   id="svg3163"
   version="1.1"
   inkscape:version="0.48.4 r9939"
   sodipodi:docname="shoulder-left.svg">
  <defs
     id="defs3165">
    <filter
       inkscape:collect="always"
       id="filter3853"
       x="-0.26644531"
       width="1.5328906"
       y="-0.071383752"
       height="1.1427675"
       color-interpolation-filters="sRGB">
      <feGaussianBlur
         inkscape:collect="always"
         stdDeviation="0.8786976"
         id="feGaussianBlur3855" />
    </filter>
  </defs>
  <sodipodi:namedview
     id="base"
     pagecolor="#ffffff"
     bordercolor="#666666"
     borderopacity="1.0"
     inkscape:pageopacity="0.0"
     inkscape:pageshadow="2"
     inkscape:zoom="5.6"
     inkscape:cx="79.394888"
     inkscape:cy="22.444125"
     inkscape:document-units="px"
     inkscape:current-layer="layer1"
     showgrid="false"
     inkscape:window-width="1600"
     inkscape:window-height="870"
     inkscape:window-x="1366"
     inkscape:window-y="0"
     inkscape:window-maximized="1"
     fit-margin-top="5"
     fit-margin-left="5"
     fit-margin-right="5"
     fit-margin-bottom="5" />
  <metadata
     id="metadata3168">
    <rdf:RDF>
      <cc:Work
         rdf:about="">
        <dc:format>image/svg+xml</dc:format>
        <dc:type
           rdf:resource="http://purl.org/dc/dcmitype/StillImage" />
        <dc:title />
      </cc:Work>
    </rdf:RDF>
  </metadata>
  <g
     inkscape:label="レイヤー 1"
     inkscape:groupmode="layer"
     id="layer1"
     transform="translate(-345.05654,-487.42598)">
    <path
       style="opacity:0.22493226;fill:#ec6bb2;stroke:none"
       d="m 369.63517,521.03321 c 8.58018,-2.17795 13.72828,-7.84063 13.72828,-7.84063 0,0 -2.92735,4.3559 -5.45093,6.75166 -3.12924,1.63347 -8.27735,1.08897 -8.27735,1.08897 z"
       id="path3794"
       inkscape:connector-curvature="0"
       sodipodi:nodetypes="cccc" />
    <g
       id="g4986"
       inkscape:transform-center-x="-10.055589"
       inkscape:transform-center-y="-0.48513469"
       transform="matrix(-1.1237069,0.13412514,-0.12432796,-1.2122562,1420.3355,941.63788)"
       inkscape:export-filename="/run/media/tnzk/A6382E54382E2431/Users/tnzk/Desktop/gymb/nicola/g4990.png"
       inkscape:export-xdpi="266.25"
       inkscape:export-ydpi="266.25">
      <path
         inkscape:transform-center-y="-0.84563651"
         inkscape:transform-center-x="11.293233"
         sodipodi:nodetypes="cccccccccc"
         inkscape:connector-curvature="0"
         id="path4609"
         d="m 900.45912,460.00823 c 0,0 5.16512,-11.11733 -3.34175,-17.26348 -11.12966,-4.98729 -16.87775,-3.50201 -16.87775,-3.50201 0,0 -8.97399,-1.43463 -17.44197,0.16807 0.22477,6.25992 -0.23914,2.29056 -0.23914,2.29056 0,0 0.77701,2.35999 0.59784,3.80768 -2.00831,5.60312 -0.25841,5.36978 -1.05727,11.11595 -2.54333,3.98678 -1.39989,6.17402 -1.39989,6.17402 11.55199,2.64657 13.99857,0.77727 13.99857,0.77727 17.84383,3.99213 25.76136,-3.56806 25.76136,-3.56806 z"
         style="fill:#a23f51;fill-opacity:1;stroke:#452d31;stroke-width:0.5;stroke-opacity:1" />
      <path
         sodipodi:nodetypes="ccccccccccccccccccccccc"
         inkscape:connector-curvature="0"
         id="path4849"
         d="m 899.90436,445.52995 c 0,0 0.9926,12.22216 -23.0356,15.65638 -1.28016,-1.0251 -2.98675,-2.10921 -5.18851,-2.91057 -3.19725,0.0893 -5.03735,-0.92286 -5.03732,-0.92276 -1.40138,-1.94685 -1.71957,-7.23599 -1.71959,-7.23608 l -0.29454,-8.53824 -1.94042,-1.94785 0.72012,5.19291 -1.5279,4.92427 0.20299,5.99037 -1.34822,4.46386 -0.36871,2.36821 8.17402,1.68706 c 0,0 4.95167,-0.1 6.3844,-0.84272 l 2.78931,0.65413 0.19386,0.27513 1.03071,0.012 1.0885,0.25525 c 0,0 -0.11542,-0.18596 -0.15617,-0.25192 l 6.99488,0.10429 c 0,0 8.82468,-0.28778 13.46353,-4.70909 0,0 3.74188,-5.06866 -0.4253,-14.22467 z"
         style="opacity:0.6;fill:#933043;fill-opacity:1;stroke:none" />
    </g>
    <path
       style="fill:#37242b;fill-opacity:1;stroke:none"
       d="m 386.54833,494.60169 1.12188,-0.53551 13.45208,-1.52098 1.08803,1.03484 -1.01016,34.86639 -1.14628,0.64967 -13.12674,-0.37723 -0.62497,-0.87148 z"
       id="rect2999"
       inkscape:connector-curvature="0"
       sodipodi:nodetypes="ccccccccc" />
    <path
       style="fill:#f5e7c5;fill-opacity:1"
       d="m 397.40931,524.14052 c -1.29027,-0.67577 1.08003,-0.83318 0,0 z m -0.66225,-16.23861 c -0.50851,0.003 -2.04666,-0.2031 -1.7981,-0.62171 1.03117,0.1882 2.1826,0.32073 3.10885,-0.003 0.20007,0.69118 0.0215,1.3163 -0.83819,0.74926 l -0.25189,-0.0801 -0.22066,-0.043 -1e-5,1.1e-4 z m 1.25448,-8.70011 c -1.29027,-0.67579 1.08005,-0.83319 0,0 z m -0.95583,-3.87582 c -0.50851,0.003 -2.04666,-0.2031 -1.7981,-0.62171 1.03117,0.1882 2.1826,0.32073 3.10885,-0.003 0.20009,0.69119 0.0215,1.31629 -0.83819,0.74925 l -0.25189,-0.0801 -0.22067,-0.043 0,1.1e-4 z m -0.78515,31.10003 c -1.04629,0.42783 -2.2771,-0.15668 -3.01763,-0.8375 0.87825,0.37462 2.11213,0.65716 3.1697,0.7307 l -0.15207,0.1068 z m -0.11565,-1.09151 c -1.38058,-0.71199 -3.05879,-0.47583 -4.55676,-0.73439 1.48589,-0.52247 3.23197,-0.22048 4.51821,0.59825 l 0.0452,0.0724 -0.007,0.0638 z m -0.78154,-3.42706 c -0.68069,-1.08912 -2.26248,-0.60145 -3.33087,-0.39533 -1.24212,0.41598 -0.44935,-1.01088 0.36515,-0.58054 1.3791,-0.0701 2.65622,-0.72386 4.03352,-0.73415 0.75422,1.31161 -2.22017,-0.034 -1.69944,1.07937 0.38029,0.66693 2.1177,0.39945 1.80275,1.24041 -0.44452,-0.0811 -0.8196,-0.36475 -1.17111,-0.60976 z m 0.0577,-10.63237 c -0.50756,-0.15296 -2.44461,0.29099 -1.47568,-0.4268 0.96113,0.0723 1.94733,0.23252 2.8279,0.58982 -0.45776,0.011 -0.90107,-0.11969 -1.35222,-0.16302 z m 1.22927,-1.26171 c -1.51178,0.38731 -3.09633,-0.20614 -4.46679,-0.76942 -0.39343,-0.45355 2.31639,0.94209 1.52045,-0.29998 -0.47515,-0.31173 -2.72139,-0.42524 -1.03489,-0.56023 1.33234,-0.10871 2.73565,0.23089 3.87013,0.872 0.28867,0.16974 0.41938,0.53674 0.11105,0.75763 z m -1.26855,-0.95781 c -0.61534,-0.13204 -1.96147,0.17996 -0.68583,0.49885 0.46727,0.24644 2.664,0.54319 1.31091,-0.19973 -0.20396,-0.10713 -0.41376,-0.20472 -0.62508,-0.29912 z m 1.3668,-3.10978 c -1.50731,-0.71956 -3.25095,-0.0969 -4.83578,-0.42022 -1.37256,-0.38671 1.10279,-2.71914 0.26826,-0.99085 0.072,1.34929 2.17247,0.69912 3.20691,0.79451 0.5354,-0.0229 2.43088,-0.34613 1.36061,0.61656 z m 0.10439,-4.45847 c -1.04629,0.42785 -2.2771,-0.15668 -3.01763,-0.83751 0.87825,0.37463 2.11214,0.65716 3.1697,0.73071 l -0.15207,0.1068 z m -0.11566,-1.09153 c -1.38059,-0.71199 -3.05879,-0.47574 -4.55675,-0.73429 1.48531,-0.52209 3.23131,-0.2207 4.51726,0.5974 l 0.0455,0.0726 -0.006,0.0642 z m 0.21194,-2.95834 c -1.51178,0.38731 -3.09633,-0.20614 -4.46678,-0.76942 -0.39343,-0.45355 2.31639,0.94208 1.52045,-0.29997 -0.47514,-0.31174 -2.72139,-0.42523 -1.03489,-0.56021 1.33234,-0.10871 2.73564,0.23088 3.87013,0.87199 0.28704,0.1624 0.41879,0.54464 0.11105,0.75761 z m -1.26854,-0.9578 c -0.61534,-0.13204 -1.96148,0.17997 -0.68584,0.49887 0.46728,0.24644 2.66401,0.5432 1.31092,-0.19973 -0.20395,-0.10713 -0.41375,-0.20473 -0.62508,-0.29914 z m 0.13176,27.50667 c -1.17574,0.47572 0.75764,-0.87094 0.1914,-0.1813 l -0.1914,0.1813 z m 0.59218,-24.93873 c -1.16771,0.48114 0.7617,-0.87078 0.19167,-0.18169 l -0.19167,0.18169 z m -1.41434,15.99061 c -0.27896,-0.49236 0.22858,-2.00672 0.18143,-0.70566 -0.0229,0.0917 -0.0206,1.19292 -0.18143,0.70566 z m -1.90203,3.67634 c -0.44332,0.0313 -2.4682,-0.47116 -1.06912,-0.44894 0.55562,0.0337 2.21001,0.29761 2.03885,0.62899 -0.32897,-0.0294 -0.64982,-0.10734 -0.96973,-0.18005 z m 0.36445,-15.34691 c -0.44331,0.0313 -2.46819,-0.47118 -1.0691,-0.44894 0.56129,0.0329 2.21344,0.30444 2.05481,0.62773 -0.33402,-0.03 -0.66026,-0.10712 -0.98571,-0.17879 z m -0.8199,14.5292 c -0.60686,0.0127 -1.90018,-0.52786 -0.53031,-0.43747 0.62863,-0.18338 1.76112,0.76842 0.53031,0.43747 z m 0.36446,-15.34691 c -0.46488,0.0294 -1.88331,-0.47209 -0.64234,-0.45154 0.62424,-0.21315 2.00703,0.82673 0.64234,0.45154 z m -0.79824,17.61619 c -0.42718,-0.24161 -1.23555,-1.0633 -0.23426,-0.45011 0.48449,0.26604 1.62086,1.10688 0.44597,0.53391 l -0.21171,-0.0837 z m -1.63105,-11.09936 c -0.0987,-0.55495 -0.0623,-2.1925 0.15706,-2.1081 -0.0344,0.43487 0.11987,2.41046 -0.15706,2.1081 z"
       id="path3781"
       inkscape:connector-curvature="0" />
    <path
       inkscape:connector-curvature="0"
       id="path3807"
       d="m 397.40931,524.5025 c -1.29027,-0.62641 1.08003,-0.77232 0,0 z m -0.66225,-15.05246 c -0.50851,0.003 -2.04666,-0.18826 -1.7981,-0.5763 1.03117,0.17446 2.1826,0.29731 3.10885,-0.003 0.20007,0.64069 0.0215,1.22015 -0.83819,0.69453 l -0.25189,-0.0742 -0.22066,-0.0399 -1e-5,1e-4 z m 1.25448,-8.06461 c -1.29027,-0.62643 1.08005,-0.77233 0,0 z m -0.95583,-3.59271 c -0.50851,0.003 -2.04666,-0.18826 -1.7981,-0.5763 1.03117,0.17446 2.1826,0.29731 3.10885,-0.003 0.20009,0.6407 0.0215,1.22014 -0.83819,0.69452 l -0.25189,-0.0742 -0.22067,-0.0399 0,1e-4 z m -0.78515,28.82833 c -1.04629,0.39658 -2.2771,-0.14524 -3.01763,-0.77633 0.87825,0.34726 2.11213,0.60916 3.1697,0.67733 l -0.15207,0.099 z m -0.11565,-1.01178 c -1.38058,-0.65999 -3.05879,-0.44108 -4.55676,-0.68075 1.48589,-0.48431 3.23197,-0.20438 4.51821,0.55455 l 0.0452,0.0671 -0.007,0.0591 z m -0.78154,-3.17673 c -0.68069,-1.00957 -2.26248,-0.55752 -3.33087,-0.36646 -1.24212,0.3856 -0.44935,-0.93704 0.36515,-0.53813 1.3791,-0.065 2.65622,-0.67099 4.03352,-0.68053 0.75422,1.21581 -2.22017,-0.0315 -1.69944,1.00053 0.38029,0.61822 2.1177,0.37027 1.80275,1.14981 -0.44452,-0.0752 -0.8196,-0.33811 -1.17111,-0.56522 z m 0.0577,-9.85573 c -0.50756,-0.14179 -2.44461,0.26973 -1.47568,-0.39563 0.96113,0.067 1.94733,0.21554 2.8279,0.54674 -0.45776,0.0102 -0.90107,-0.11095 -1.35222,-0.15111 z m 1.22927,-1.16955 c -1.51178,0.35902 -3.09633,-0.19108 -4.46679,-0.71322 -0.39343,-0.42042 2.31639,0.87328 1.52045,-0.27807 -0.47515,-0.28896 -2.72139,-0.39417 -1.03489,-0.5193 1.33234,-0.10077 2.73565,0.21402 3.87013,0.8083 0.28867,0.15734 0.41938,0.49753 0.11105,0.70229 z m -1.26855,-0.88785 c -0.61534,-0.12239 -1.96147,0.16682 -0.68583,0.46241 0.46727,0.22844 2.664,0.50352 1.31091,-0.18514 -0.20396,-0.0993 -0.41376,-0.18976 -0.62508,-0.27727 z m 1.3668,-2.88262 c -1.50731,-0.667 -3.25095,-0.0898 -4.83578,-0.38953 -1.37256,-0.35846 1.10279,-2.52052 0.26826,-0.91847 0.072,1.25073 2.17247,0.64805 3.20691,0.73647 0.5354,-0.0212 2.43088,-0.32084 1.36061,0.57153 z m 0.10439,-4.1328 c -1.04629,0.39659 -2.2771,-0.14524 -3.01763,-0.77634 0.87825,0.34727 2.11214,0.60916 3.1697,0.67734 l -0.15207,0.099 z m -0.11566,-1.0118 c -1.38059,-0.65999 -3.05879,-0.44099 -4.55675,-0.68066 1.48531,-0.48395 3.23131,-0.20458 4.51726,0.55377 l 0.0455,0.0673 -0.006,0.0595 z m 0.21194,-2.74225 c -1.51178,0.35902 -3.09633,-0.19108 -4.46678,-0.71322 -0.39343,-0.42042 2.31639,0.87327 1.52045,-0.27806 -0.47514,-0.28897 -2.72139,-0.39417 -1.03489,-0.51929 1.33234,-0.10077 2.73564,0.21402 3.87013,0.8083 0.28704,0.15054 0.41879,0.50486 0.11105,0.70227 z m -1.26854,-0.88784 c -0.61534,-0.12239 -1.96148,0.16683 -0.68584,0.46243 0.46728,0.22844 2.66401,0.50352 1.31092,-0.18514 -0.20395,-0.0993 -0.41375,-0.18977 -0.62508,-0.27729 z m 0.13176,25.49745 c -1.17574,0.44097 0.75764,-0.80733 0.1914,-0.16806 l -0.1914,0.16806 z m 0.59218,-23.11708 c -1.16771,0.44599 0.7617,-0.80718 0.19167,-0.16842 l -0.19167,0.16842 z m -1.41434,14.82257 c -0.27896,-0.45639 0.22858,-1.86014 0.18143,-0.65411 -0.0229,0.085 -0.0206,1.10578 -0.18143,0.65411 z m -1.90203,3.4078 c -0.44332,0.029 -2.4682,-0.43674 -1.06912,-0.41614 0.55562,0.0312 2.21001,0.27587 2.03885,0.58304 -0.32897,-0.0273 -0.64982,-0.0995 -0.96973,-0.1669 z m 0.36445,-14.22589 c -0.44331,0.029 -2.46819,-0.43676 -1.0691,-0.41615 0.56129,0.0305 2.21344,0.2822 2.05481,0.58188 -0.33402,-0.0278 -0.66026,-0.0993 -0.98571,-0.16573 z m -0.8199,13.46791 c -0.60686,0.0118 -1.90018,-0.4893 -0.53031,-0.40551 0.62863,-0.16999 1.76112,0.71229 0.53031,0.40551 z m 0.36446,-14.22589 c -0.46488,0.0273 -1.88331,-0.43761 -0.64234,-0.41856 0.62424,-0.19758 2.00703,0.76634 0.64234,0.41856 z m -0.79824,16.32941 c -0.42718,-0.22396 -1.23555,-0.98563 -0.23426,-0.41723 0.48449,0.24661 1.62086,1.02603 0.44597,0.49491 l -0.21171,-0.0776 z m -1.63105,-10.2886 c -0.0987,-0.51442 -0.0623,-2.03235 0.15706,-1.95412 -0.0344,0.40311 0.11987,2.23439 -0.15706,1.95412 z"
       style="fill:#cb7c20;fill-opacity:1;filter:url(#filter3853)"
       transform="matrix(1,0,0,1.0788011,0,-41.693353)" />
  </g>
</svg>
