<?xml version="1.0" encoding="UTF-8" standalone="no"?>
<!-- Created with Inkscape (http://www.inkscape.org/) -->

<svg
   xmlns:dc="http://purl.org/dc/elements/1.1/"
   xmlns:cc="http://creativecommons.org/ns#"
   xmlns:rdf="http://www.w3.org/1999/02/22-rdf-syntax-ns#"
   xmlns:svg="http://www.w3.org/2000/svg"
   xmlns="http://www.w3.org/2000/svg"
   xmlns:xlink="http://www.w3.org/1999/xlink"
   xmlns:sodipodi="http://sodipodi.sourceforge.net/DTD/sodipodi-0.dtd"
   xmlns:inkscape="http://www.inkscape.org/namespaces/inkscape"
   width="297.69043"
   height="211.36475"
   id="svg3163"
   version="1.1"
   inkscape:version="0.48.4 r9939"
   sodipodi:docname="back-hair.svg">
  <defs
     id="defs3165">
    <linearGradient
       inkscape:collect="always"
       id="linearGradient3886">
      <stop
         style="stop-color:#75bc75;stop-opacity:1;"
         offset="0"
         id="stop3888" />
      <stop
         style="stop-color:#75bc75;stop-opacity:0;"
         offset="1"
         id="stop3890" />
    </linearGradient>
    <linearGradient
       inkscape:collect="always"
       id="linearGradient3878">
      <stop
         style="stop-color:#74bc74;stop-opacity:1;"
         offset="0"
         id="stop3880" />
      <stop
         style="stop-color:#74bc74;stop-opacity:0;"
         offset="1"
         id="stop3882" />
    </linearGradient>
    <linearGradient
       inkscape:collect="always"
       id="linearGradient3870">
      <stop
         style="stop-color:#64b464;stop-opacity:1;"
         offset="0"
         id="stop3872" />
      <stop
         style="stop-color:#64b464;stop-opacity:0;"
         offset="1"
         id="stop3874" />
    </linearGradient>
    <linearGradient
       inkscape:collect="always"
       id="linearGradient3862">
      <stop
         style="stop-color:#65b465;stop-opacity:1;"
         offset="0"
         id="stop3864" />
      <stop
         style="stop-color:#65b465;stop-opacity:0;"
         offset="1"
         id="stop3866" />
    </linearGradient>
    <linearGradient
       id="linearGradient3848">
      <stop
         id="stop3850"
         offset="0"
         style="stop-color:#ecf2da;stop-opacity:1;" />
      <stop
         id="stop3852"
         offset="1"
         style="stop-color:#bfd380;stop-opacity:0;" />
    </linearGradient>
    <linearGradient
       id="linearGradient3842">
      <stop
         id="stop3844"
         offset="0"
         style="stop-color:#2f1523;stop-opacity:1;" />
      <stop
         id="stop3846"
         offset="1"
         style="stop-color:#652e4c;stop-opacity:0;" />
    </linearGradient>
    <linearGradient
       id="linearGradient3836">
      <stop
         id="stop3838"
         offset="0"
         style="stop-color:#637529;stop-opacity:1;" />
      <stop
         id="stop3840"
         offset="1"
         style="stop-color:#637529;stop-opacity:0;" />
    </linearGradient>
    <linearGradient
       id="linearGradient3767">
      <stop
         style="stop-color:#2f1523;stop-opacity:1;"
         offset="0"
         id="stop3769" />
      <stop
         style="stop-color:#652e4c;stop-opacity:0;"
         offset="1"
         id="stop3771" />
    </linearGradient>
    <linearGradient
       id="linearGradient3757">
      <stop
         style="stop-color:#f7c2de;stop-opacity:1;"
         offset="0"
         id="stop3759" />
      <stop
         style="stop-color:#e2bfd2;stop-opacity:0;"
         offset="1"
         id="stop3761" />
    </linearGradient>
    <linearGradient
       inkscape:collect="always"
       xlink:href="#linearGradient3757"
       id="linearGradient3763"
       x1="33.57143"
       y1="74.846893"
       x2="18.035715"
       y2="101.63261"
       gradientUnits="userSpaceOnUse" />
    <linearGradient
       inkscape:collect="always"
       xlink:href="#linearGradient3767"
       id="linearGradient3773"
       x1="342.57846"
       y1="538.716"
       x2="328.4375"
       y2="498.89459"
       gradientUnits="userSpaceOnUse" />
    <linearGradient
       inkscape:collect="always"
       xlink:href="#linearGradient3767"
       id="linearGradient3806"
       gradientUnits="userSpaceOnUse"
       x1="342.57846"
       y1="538.716"
       x2="328.4375"
       y2="498.89459"
       gradientTransform="matrix(1.0562886,0,0,1.0562886,-19.07624,-29.388757)" />
    <linearGradient
       inkscape:collect="always"
       xlink:href="#linearGradient3836"
       id="linearGradient3830"
       gradientUnits="userSpaceOnUse"
       gradientTransform="matrix(1.0562886,0,0,1.0562886,-19.07624,-29.388757)"
       x1="342.57846"
       y1="538.716"
       x2="328.4375"
       y2="498.89459" />
    <linearGradient
       inkscape:collect="always"
       xlink:href="#linearGradient3836"
       id="linearGradient3832"
       gradientUnits="userSpaceOnUse"
       x1="342.57846"
       y1="538.716"
       x2="328.4375"
       y2="498.89459" />
    <linearGradient
       inkscape:collect="always"
       xlink:href="#linearGradient3848"
       id="linearGradient3834"
       gradientUnits="userSpaceOnUse"
       x1="33.57143"
       y1="74.846893"
       x2="18.035715"
       y2="101.63261" />
    <linearGradient
       inkscape:collect="always"
       xlink:href="#linearGradient3862"
       id="linearGradient3868"
       x1="229.61044"
       y1="118.91386"
       x2="237.85776"
       y2="84.413857"
       gradientUnits="userSpaceOnUse" />
    <linearGradient
       inkscape:collect="always"
       xlink:href="#linearGradient3870"
       id="linearGradient3876"
       x1="30.5"
       y1="161.48975"
       x2="43.75"
       y2="113.98975"
       gradientUnits="userSpaceOnUse" />
    <linearGradient
       inkscape:collect="always"
       xlink:href="#linearGradient3878"
       id="linearGradient3884"
       x1="63"
       y1="42.364746"
       x2="85"
       y2="57.364746"
       gradientUnits="userSpaceOnUse" />
    <linearGradient
       inkscape:collect="always"
       xlink:href="#linearGradient3886"
       id="linearGradient3892"
       x1="194.64285"
       y1="25.341278"
       x2="227.98634"
       y2="44.841278"
       gradientUnits="userSpaceOnUse" />
  </defs>
  <sodipodi:namedview
     id="base"
     pagecolor="#ffffff"
     bordercolor="#666666"
     borderopacity="1.0"
     inkscape:pageopacity="0.0"
     inkscape:pageshadow="2"
     inkscape:zoom="2"
     inkscape:cx="187.68502"
     inkscape:cy="61.31069"
     inkscape:document-units="px"
     inkscape:current-layer="layer1"
     showgrid="false"
     inkscape:window-width="1600"
     inkscape:window-height="870"
     inkscape:window-x="1366"
     inkscape:window-y="0"
     inkscape:window-maximized="1"
     fit-margin-top="5"
     fit-margin-left="5"
     fit-margin-right="5"
     fit-margin-bottom="5" />
  <metadata
     id="metadata3168">
    <rdf:RDF>
      <cc:Work
         rdf:about="">
        <dc:format>image/svg+xml</dc:format>
        <dc:type
           rdf:resource="http://purl.org/dc/dcmitype/StillImage" />
        <dc:title />
      </cc:Work>
    </rdf:RDF>
  </metadata>
  <g
     inkscape:label="レイヤー 1"
     inkscape:groupmode="layer"
     id="layer1"
     transform="translate(-306.60597,-419.57203)">
    <path
       style="fill:#659365;fill-opacity:1;stroke:#1e4a1f;stroke-width:0.5;stroke-linecap:butt;stroke-linejoin:miter;stroke-miterlimit:4;stroke-opacity:1"
       d="m 349.5633,526.14706 c 0,0 25.25382,-51.51778 37.88073,-64.64976 8.2092,-12.77798 6.90734,-25.46795 49.29597,-25.67758 42.39412,-0.20965 39.9947,10.67231 48.51873,20.50999 19.30294,22.27775 12.40526,70.18467 12.40526,70.18467 0,0 -0.64043,22.82985 -12.76226,47.57858 3.53553,-17.67767 -1.30476,-20.76093 -1.30476,-20.76093 0,0 -7.24416,11.52469 -11.32839,16.77585 0.50508,-7.07107 -0.90024,-14.73049 -0.90024,-14.73049 -1.01015,9.59644 -9.2781,18.60959 -9.2781,18.60959 2.0203,-7.07107 -1.15933,-18.0422 -1.15933,-18.0422 -3.03046,12.87945 -13.37284,18.7308 -13.37284,18.7308 2.52538,-9.09137 0.0676,-17.8642 0.0676,-17.8642 0,0 -0.49908,12.81913 -7.06542,23.93081 l -3.49671,-16.29443 -4.99331,16.45681 c -5.05077,-9.59645 -2.21454,-21.54948 -2.21454,-21.54948 -3.53553,5.05076 -6.39281,17.77733 -6.39281,17.77733 -7.57615,-18.18274 -6.08676,-24.26032 -6.08676,-24.26032 0,0 -5.34805,1.71582 -3.83282,17.87826 -12.62691,-9.09137 -11.35148,-28.62359 -11.35148,-28.62359 l -0.36132,29.90649 c -9.59645,-9.09137 -9.33573,-25.68315 -9.33573,-25.68315 -16.16244,9.59645 -16.16244,39.90103 -16.16244,39.90103 -12.6269,-13.13198 -21.2132,-39.39595 -21.2132,-39.39595 z"
       id="rect3808"
       inkscape:connector-curvature="0"
       sodipodi:nodetypes="ccsscccccccccccccccccccccc" />
    <path
       style="fill:#95d995;fill-opacity:1;stroke:#1e4a1f;stroke-width:0.5;stroke-linecap:butt;stroke-linejoin:miter;stroke-miterlimit:4;stroke-opacity:1"
       d="m 342.2397,481.4478 c 47.47717,-3.03046 31.56726,-20.96066 63.38707,-39.14341 -6.06091,33.33504 -34.85026,83.33758 -34.85026,83.33758 0,0 -1.14848,10.10084 -1.2759,23.24563 -0.13054,13.46578 0.81047,30.12598 5.1554,42.39403 -10.10152,-3.03046 -18.52671,-24.72848 -18.52671,-24.72848 0,0 -1.21075,22.76814 16.97199,59.13363 0,0 -21.24813,-5.88983 -30.3395,-34.1741 l -5.90031,-3.31812 c 0,0 -10.22828,-3.84392 -12.24859,-17.98605 -1.51523,25.75889 -11.56276,36.38365 -11.56276,36.38365 8.08122,-39.90103 -2.96261,-63.75896 -0.9423,-88.5077 0,0 4.87805,-34.61636 30.13187,-36.63666 z"
       id="rect3802"
       inkscape:connector-curvature="0"
       sodipodi:nodetypes="cccsccccccccc" />
    <path
       style="fill:#95d995;fill-opacity:1;stroke:#1e4a1f;stroke-width:0.5;stroke-linecap:butt;stroke-linejoin:miter;stroke-miterlimit:4;stroke-opacity:1"
       d="m 454.27825,439.64013 c 0,0 21.39728,-3.55587 39.58002,37.35531 0,0 7.72365,-28.94677 35.50285,-48.64474 15.15229,-6.06092 30.31393,-7.2595 54.55759,21.02477 11.61675,13.13199 40.26876,77.37074 -34.9876,127.37329 l 2.58524,-8.12438 c 0,0 -9.81239,18.67876 -30.52052,31.30566 20.20305,-36.36549 17.06569,-54.56473 17.06569,-54.56473 -2.02031,13.13198 -9.41599,19.3436 -9.41599,19.3436 0,0 2.24017,-13.81311 -1.80044,-27.45017 0,0 2.53983,14.41716 -6.04647,31.58975 1.01015,-30.80965 -7.47081,-31.91438 -7.47081,-31.91438 -5.55584,28.78935 -21.83806,43.25611 -21.83806,43.25611 0,0 1.32561,-29.11711 -3.72515,-56.39123 z"
       id="rect3805"
       inkscape:connector-curvature="0"
       sodipodi:nodetypes="ccccccccccccccc" />
    <path
       style="opacity:0.59999999999999998;fill:url(#linearGradient3868);stroke:none;fill-opacity:1"
       d="m 185.11045,160.85712 c 19.1929,-37.62818 12.62691,-70.710679 12.62691,-70.710679 57.32616,4.04061 67.17514,-48.487321 67.17514,-48.487321 0,0 23.37843,40.092359 -22.58351,115.60126 0,0 10.50678,-31.19204 14.01168,-54.43516 0,0 -19.42322,53.09972 -41.64658,77.34338 19.69797,-34.72399 17.59557,-58.65406 15.8278,-67.24036 0,0 -3.62067,21.88699 -8.41889,32.36732 1.51523,-18.56155 -3.82789,-35.41464 -3.82789,-35.41464 0,0 1.12507,23.86099 -4.17823,39.39209 0.50508,-29.92577 -7.328,-31.92197 -7.328,-31.92197 0,0 -1.18744,19.57945 -21.65843,43.50608 z"
       id="path3854"
       inkscape:connector-curvature="0"
       sodipodi:nodetypes="cccccccccccc"
       transform="translate(306.60597,419.57203)" />
    <path
       style="opacity:0.59999999999999998;fill:url(#linearGradient3892);fill-opacity:1;stroke:none"
       d="m 187.14286,57.614747 c 0,0 5.55904,11.904166 7.85714,23.571428 0,0 -4.57285,-30.084353 37.32323,-55.009867 11.31371,-5.303301 16.33613,-29.6841347 -10.18037,-17.1329893 -26.33973,20.5060963 -35,48.5714283 -35,48.5714283 z"
       id="path3856"
       inkscape:connector-curvature="0"
       transform="translate(306.60597,419.57203)"
       sodipodi:nodetypes="ccccc" />
    <g
       id="g3816"
       transform="matrix(1.172256,0,0,1.172256,154.52373,-138.92882)">
      <path
         inkscape:connector-curvature="0"
         id="path3820"
         d="m 357.00893,522.10891 c 0,12.26458 -8.10726,22.207 -18.10809,22.207 -10.0008,0 -18.10807,-9.94242 -18.10807,-22.207 0,-12.26459 8.10727,-22.207 18.10807,-22.207 10.00083,0 18.10809,9.94241 18.10809,22.207 z"
         style="fill:#637529;fill-opacity:1;stroke:none" />
      <path
         inkscape:connector-curvature="0"
         id="path3818"
         d="m 358.02821,522.10891 c 0,12.95494 -8.56361,23.457 -19.12737,23.457 -10.56373,0 -19.12735,-10.50206 -19.12735,-23.457 0,-12.95495 8.56362,-23.457 19.12735,-23.457 10.56376,0 19.12737,10.50205 19.12737,23.457 z"
         style="fill:url(#linearGradient3830);fill-opacity:1.0;stroke:none" />
      <path
         inkscape:connector-curvature="0"
         id="path3822"
         d="m 347.60654,522.31259 c 0,6.90536 -4.12986,12.50328 -9.22428,12.50328 -5.09443,0 -9.22429,-5.59792 -9.22429,-12.50328 0,-6.90535 4.12986,-12.50326 9.22429,-12.50326 5.09442,0 9.22428,5.59791 9.22428,12.50326 z"
         style="fill:#acc361;fill-opacity:1;stroke:none" />
      <path
         style="fill:url(#linearGradient3832);fill-opacity:1.0;stroke:none"
         d="m 357.00893,522.10891 c 0,12.26458 -8.10726,22.207 -18.10809,22.207 -10.0008,0 -18.10807,-9.94242 -18.10807,-22.207 0,-12.26459 8.10727,-22.207 18.10807,-22.207 10.00083,0 18.10809,9.94241 18.10809,22.207 z"
         id="path3824"
         inkscape:connector-curvature="0" />
      <path
         style="fill:url(#linearGradient3834);fill-opacity:1.0;stroke:none"
         d="m 15.714286,104.57903 c 0,-22.142855 17.142857,-22.321426 17.142857,-22.321426 0,0 -13.214286,9.107143 -17.142857,22.321426 z"
         id="path3826"
         inkscape:connector-curvature="0"
         transform="translate(306.60597,419.57203)"
         sodipodi:nodetypes="ccc" />
      <path
         style="fill:#ecd4e1;fill-opacity:1;stroke:none"
         d="m 330.1774,513.34749 c 0,0.83829 -0.67957,1.51786 -1.51786,1.51786 -0.83829,0 -1.51786,-0.67957 -1.51786,-1.51786 0,-0.83829 0.67957,-1.51786 1.51786,-1.51786 0.83829,0 1.51786,0.67957 1.51786,1.51786 z"
         id="path3828"
         inkscape:connector-curvature="0" />
    </g>
    <path
       style="opacity:0.59999999999999998;fill:url(#linearGradient3876);fill-opacity:1;stroke:none"
       d="m 49.25,113.61475 -36.5,-10.75 C 11.112128,109.8257 8.0009473,121.11481 8.7509473,140.86481 11.750947,168.86481 6.5,186.86475 6.5,186.86475 c 13.435029,-19.26866 11.633883,-34.62348 10.75,-39.75 0,0 -0.622213,17.13343 19,24.73483 0,0 -11.25,-9.73483 -15,-36.48483 0,0 7.419865,1.42363 17.419866,-5.57637 -1.750001,35 17.984958,73.01769 27.580134,76.32637 -22.5,-47.5 -15.75,-72.5 -15.75,-72.5 0,0 3.75,24.5 17.25,38.25 -7,-20.75 -4.5,-64.75 -4.5,-64.75 0,0 -4.5,9.75 -14,6.5 z"
       id="path3858"
       inkscape:connector-curvature="0"
       transform="translate(306.60597,419.57203)"
       sodipodi:nodetypes="ccccccccccccc" />
    <g
       id="g3808">
      <path
         style="fill:url(#linearGradient3806);fill-opacity:1;stroke:none"
         d="m 358.02821,522.10891 c 0,12.95494 -8.56361,23.457 -19.12737,23.457 -10.56373,0 -19.12735,-10.50206 -19.12735,-23.457 0,-12.95495 8.56362,-23.457 19.12735,-23.457 10.56376,0 19.12737,10.50205 19.12737,23.457 z"
         id="path3804"
         inkscape:connector-curvature="0" />
      <path
         style="fill:#652e4c;fill-opacity:1;stroke:none"
         d="m 357.00893,522.10891 c 0,12.26458 -8.10726,22.207 -18.10809,22.207 -10.0008,0 -18.10807,-9.94242 -18.10807,-22.207 0,-12.26459 8.10727,-22.207 18.10807,-22.207 10.00083,0 18.10809,9.94241 18.10809,22.207 z"
         id="path3973"
         inkscape:connector-curvature="0" />
      <path
         style="fill:#ff60b6;fill-opacity:1;stroke:none"
         d="m 347.60654,522.31259 c 0,6.90536 -4.12986,12.50328 -9.22428,12.50328 -5.09443,0 -9.22429,-5.59792 -9.22429,-12.50328 0,-6.90535 4.12986,-12.50326 9.22429,-12.50326 5.09442,0 9.22428,5.59791 9.22428,12.50326 z"
         id="path3790"
         inkscape:connector-curvature="0" />
      <path
         inkscape:connector-curvature="0"
         id="path3765"
         d="m 357.00893,522.10891 c 0,12.26458 -8.10726,22.207 -18.10809,22.207 -10.0008,0 -18.10807,-9.94242 -18.10807,-22.207 0,-12.26459 8.10727,-22.207 18.10807,-22.207 10.00083,0 18.10809,9.94241 18.10809,22.207 z"
         style="fill:url(#linearGradient3773);fill-opacity:1.0;stroke:none" />
      <path
         sodipodi:nodetypes="ccc"
         transform="translate(306.60597,419.57203)"
         inkscape:connector-curvature="0"
         id="path2987"
         d="m 15.714286,104.57903 c 0,-22.142855 17.142857,-22.321426 17.142857,-22.321426 0,0 -13.214286,9.107143 -17.142857,22.321426 z"
         style="fill:url(#linearGradient3763);stroke:none;fill-opacity:1" />
      <path
         inkscape:connector-curvature="0"
         id="path3775"
         d="m 330.1774,513.34749 c 0,0.83829 -0.67957,1.51786 -1.51786,1.51786 -0.83829,0 -1.51786,-0.67957 -1.51786,-1.51786 0,-0.83829 0.67957,-1.51786 1.51786,-1.51786 0.83829,0 1.51786,0.67957 1.51786,1.51786 z"
         style="fill:#ecd4e1;fill-opacity:1;stroke:none" />
    </g>
    <path
       style="opacity:0.59999999999999998;fill:url(#linearGradient3884);stroke:none;fill-opacity:1"
       d="m 99,23.114746 c 0,0 -15,34 -38.75,52.25 -34.25,-5.25 -15.75,-14.25 -15.75,-14.25 37.25,-4.25 26.25,-23 54.5,-38 z"
       id="path3860"
       inkscape:connector-curvature="0"
       transform="translate(306.60597,419.57203)"
       sodipodi:nodetypes="cccc" />
  </g>
</svg>
