<?xml version="1.0" encoding="UTF-8" standalone="no"?>
<!-- Created with Inkscape (http://www.inkscape.org/) -->

<svg
   xmlns:dc="http://purl.org/dc/elements/1.1/"
   xmlns:cc="http://creativecommons.org/ns#"
   xmlns:rdf="http://www.w3.org/1999/02/22-rdf-syntax-ns#"
   xmlns:svg="http://www.w3.org/2000/svg"
   xmlns="http://www.w3.org/2000/svg"
   xmlns:xlink="http://www.w3.org/1999/xlink"
   xmlns:sodipodi="http://sodipodi.sourceforge.net/DTD/sodipodi-0.dtd"
   xmlns:inkscape="http://www.inkscape.org/namespaces/inkscape"
   width="170.01816"
   height="198.58124"
   id="svg3069"
   version="1.1"
   inkscape:version="0.48.4 r9939"
   sodipodi:docname="body.svg">
  <defs
     id="defs3071">
    <filter
       inkscape:collect="always"
       id="filter3841"
       x="-0.24450402"
       width="1.489008"
       y="-0.24450402"
       height="1.489008">
      <feGaussianBlur
         inkscape:collect="always"
         stdDeviation="1.8464495"
         id="feGaussianBlur3843" />
    </filter>
    <filter
       inkscape:collect="always"
       id="filter3881"
       x="-0.30575277"
       width="1.6115055"
       y="-0.30550738"
       height="1.6110148">
      <feGaussianBlur
         inkscape:collect="always"
         stdDeviation="4.956539"
         id="feGaussianBlur3883" />
    </filter>
    <linearGradient
       inkscape:collect="always"
       xlink:href="#linearGradient3898"
       id="linearGradient3904"
       x1="143.125"
       y1="97.953117"
       x2="143.125"
       y2="120.85312"
       gradientUnits="userSpaceOnUse"
       gradientTransform="translate(97.500002,-51.500004)" />
    <linearGradient
       id="linearGradient3898">
      <stop
         style="stop-color:#640000;stop-opacity:1;"
         offset="0"
         id="stop3900" />
      <stop
         style="stop-color:#e25858;stop-opacity:1;"
         offset="1"
         id="stop3902" />
    </linearGradient>
    <linearGradient
       inkscape:collect="always"
       xlink:href="#linearGradient3898"
       id="linearGradient3912"
       x1="149.09364"
       y1="98.205742"
       x2="149.21864"
       y2="77.450439"
       gradientUnits="userSpaceOnUse"
       gradientTransform="translate(97.500002,-51.500001)" />
    <linearGradient
       id="linearGradient4091">
      <stop
         style="stop-color:#640000;stop-opacity:1;"
         offset="0"
         id="stop4093" />
      <stop
         style="stop-color:#e25858;stop-opacity:1;"
         offset="1"
         id="stop4095" />
    </linearGradient>
    <radialGradient
       inkscape:collect="always"
       xlink:href="#linearGradient3916"
       id="radialGradient3924"
       cx="129.77051"
       cy="71.612068"
       fx="129.77051"
       fy="71.612068"
       r="26.9062"
       gradientTransform="matrix(-0.46872866,0.49062401,-0.2915335,-0.27852308,308.91784,-7.8003403)"
       gradientUnits="userSpaceOnUse" />
    <linearGradient
       inkscape:collect="always"
       id="linearGradient3916">
      <stop
         style="stop-color:#ffffff;stop-opacity:1;"
         offset="0"
         id="stop3918" />
      <stop
         style="stop-color:#ffffff;stop-opacity:0;"
         offset="1"
         id="stop3920" />
    </linearGradient>
    <linearGradient
       inkscape:collect="always"
       xlink:href="#linearGradient4043"
       id="linearGradient4049"
       x1="142.78125"
       y1="102"
       x2="142.78125"
       y2="118.62688"
       gradientUnits="userSpaceOnUse"
       gradientTransform="translate(97.500002,-51.500004)" />
    <linearGradient
       inkscape:collect="always"
       id="linearGradient4043">
      <stop
         style="stop-color:#785628;stop-opacity:1;"
         offset="0"
         id="stop4045" />
      <stop
         style="stop-color:#56350a;stop-opacity:1"
         offset="1"
         id="stop4047" />
    </linearGradient>
  </defs>
  <sodipodi:namedview
     id="base"
     pagecolor="#ffffff"
     bordercolor="#666666"
     borderopacity="1.0"
     inkscape:pageopacity="0.0"
     inkscape:pageshadow="2"
     inkscape:zoom="5.6"
     inkscape:cx="92.797041"
     inkscape:cy="135.2211"
     inkscape:document-units="px"
     inkscape:current-layer="layer1"
     showgrid="false"
     fit-margin-top="5"
     fit-margin-left="5"
     fit-margin-right="5"
     fit-margin-bottom="5"
     inkscape:window-width="1600"
     inkscape:window-height="870"
     inkscape:window-x="1366"
     inkscape:window-y="0"
     inkscape:window-maximized="1"
     showguides="true"
     inkscape:guide-bbox="true">
    <sodipodi:guide
       orientation="0,1"
       position="75.982142,160.53571"
       id="guide3887" />
  </sodipodi:namedview>
  <metadata
     id="metadata3074">
    <rdf:RDF>
      <cc:Work
         rdf:about="">
        <dc:format>image/svg+xml</dc:format>
        <dc:type
           rdf:resource="http://purl.org/dc/dcmitype/StillImage" />
        <dc:title />
      </cc:Work>
    </rdf:RDF>
  </metadata>
  <g
     inkscape:label="レイヤー 1"
     inkscape:groupmode="layer"
     id="layer1"
     transform="translate(-290.66879,-139.78632)">
    <g
       transform="translate(-192.39128,-289.61757)"
       id="g3177">
      <path
         sodipodi:nodetypes="ccccc"
         inkscape:connector-curvature="0"
         id="rect2999"
         d="m 545.7349,434.65389 28.53681,-10e-6 c -1.2627,10.85914 2.52538,14.64722 2.52538,14.64722 -0.83281,23.20134 -32.29251,26.20627 -31.81981,1.01015 0,0 2.27285,-2.77792 0.75762,-15.65736 z"
         style="fill:#0d262b;fill-opacity:1;stroke:#000000;stroke-width:0.50000000000000000;stroke-linecap:butt;stroke-linejoin:miter;stroke-miterlimit:4;stroke-opacity:1" />
      <path
         sodipodi:nodetypes="ccccccccccccccccccccccccccccccccccc"
         inkscape:connector-curvature="0"
         id="rect2996"
         d="m 532.21431,450.05673 3.97552,-3.85038 6.43242,0.64395 c 0,0 5.505,2.38929 9.29307,15.52127 l 16.23957,0.75528 c 0,0 4.64968,-12.34089 10.20552,-17.13911 l 7.48127,0.55105 c 0,0 3.86295,2.70284 3.86296,5.22822 0,20.45559 4.01252,28.59629 4.26505,32.88943 0,0 3.21288,9.34257 2.45526,21.71694 l -0.18244,4.79957 c 1.76776,12.37437 -0.61598,18.3755 3.92971,26.70926 3.78807,-0.75762 2.73816,1.37431 1.98055,8.44538 14.64721,10.85914 32.56204,25.17186 32.56204,25.17186 1.76777,4.04061 1.2462,8.16333 1.2462,8.16333 -3.283,11.61676 -20.20477,21.88624 -20.20477,21.88624 -10.35406,4.29314 -19.67254,7.81577 -19.67254,7.81577 -2.27284,2.52538 -8.66135,3.07237 -8.66135,3.07237 -13.63706,0 -15.32288,2.51239 -15.32288,2.51239 l -4.63459,-2.50864 c -9.66562,-0.86841 -7.19115,0.44117 -6.98337,3.80071 l -3.02106,0.004 c -2.52538,-1.26269 -4.72351,-3.40453 -4.72351,-3.40453 0,0 -3.77705,-2.56863 -8.0702,-3.07371 l -10.12083,-1.5941 -6.39028,-4.86993 c -5.59086,-0.51942 -6.63046,-2.89263 -11.70417,-3.75279 -4.16864,-1.80883 -5.43664,-5.00307 -8.91546,-6.74411 -7.5267,-6.2034 -8.9928,-9.31301 -13.10975,-19.14699 5.86699,-7.24969 14.40356,-14.29195 33.91969,-27.00126 -2.79853,-9.91594 -1.31456,-8.45648 2.23667,-9.97924 0,0 -1.76777,-14.14213 -0.75762,-30.30457 -0.80419,-17.39926 0.16957,-19.96054 0.75762,-25.25382 0.10766,-5.71933 4.10581,-11.04961 1.63167,-31.06384 z"
         style="fill:#3f4831;fill-opacity:1;stroke:#000000;stroke-width:0.5;stroke-opacity:1" />
      <path
         inkscape:connector-curvature="0"
         id="path3029"
         d="m 559.80804,490.21429 c -10.74983,0 -19.4375,8.71892 -19.4375,19.46875 0,10.74982 8.68767,19.46875 19.4375,19.46875 1.64672,0 3.25406,-0.24002 4.78125,-0.625 -0.47948,-1.24579 -0.78125,-2.61652 -0.78125,-4.03125 0,-6.17336 5.01414,-11.15625 11.1875,-11.15625 1.33589,0 2.62495,0.22643 3.8125,0.65625 0.31279,-1.38511 0.46875,-2.83285 0.46875,-4.3125 0,-10.74983 -8.71893,-19.46875 -19.46875,-19.46875 z"
         style="fill:#9ac512;fill-opacity:1;stroke:#58710a;stroke-width:0.25;stroke-linecap:butt;stroke-linejoin:miter;stroke-miterlimit:4;stroke-opacity:1" />
      <path
         style="fill:#f2fcd5;fill-opacity:1;stroke:#58710a;stroke-width:0.25000000000000000;stroke-linecap:butt;stroke-linejoin:miter;stroke-miterlimit:4;stroke-opacity:1;filter:url(#filter3881)"
         d="m 559.80804,490.21429 c -10.74983,0 -19.4375,8.71892 -19.4375,19.46875 0,10.74982 8.68767,19.46875 19.4375,19.46875 1.64672,0 3.25406,-0.24002 4.78125,-0.625 -0.47948,-1.24579 -0.78125,-2.61652 -0.78125,-4.03125 0,-6.17336 5.01414,-11.15625 11.1875,-11.15625 1.33589,0 2.62495,0.22643 3.8125,0.65625 0.31279,-1.38511 0.46875,-2.83285 0.46875,-4.3125 0,-10.74983 -8.71893,-19.46875 -19.46875,-19.46875 z"
         id="path3817"
         inkscape:connector-curvature="0" />
      <path
         style="fill:#d1157c;fill-opacity:1;stroke:#640a3b;stroke-width:0.25;stroke-linecap:butt;stroke-linejoin:miter;stroke-miterlimit:4;stroke-opacity:1"
         d="m 584.06218,524.50504 c 0,5.0049 -4.05728,9.06218 -9.06218,9.06218 -5.0049,0 -9.06218,-4.05728 -9.06218,-9.06218 0,-5.0049 4.05728,-9.06218 9.06218,-9.06218 5.0049,0 9.06218,4.05728 9.06218,9.06218 z"
         id="path3032"
         inkscape:connector-curvature="0" />
      <path
         style="opacity:0.6;fill:#2f3424;stroke:none"
         d="m 524.72886,549.19323 c -18.94036,34.34519 3.15673,50.25509 3.15673,50.25509 l -19.95052,-3.15673 -12.38385,-18.46013 -0.49559,-4.89965 c 9.09137,-10.73287 29.67323,-23.73858 29.67323,-23.73858 z"
         id="path3795"
         inkscape:connector-curvature="0"
         sodipodi:nodetypes="cccccc" />
      <path
         sodipodi:nodetypes="cccccc"
         inkscape:connector-curvature="0"
         id="path3815"
         d="m 606.04615,549.19323 c 31.441,34.724 -3.78808,52.40166 -3.78808,52.40166 l 20.58187,-5.3033 14.53042,-15.42967 -1.65098,-7.93011 c -10.22779,-9.34391 -29.67323,-23.73858 -29.67323,-23.73858 z"
         style="opacity:0.6;fill:#2f3424;stroke:none" />
      <path
         inkscape:connector-curvature="0"
         id="path3927"
         d="m 647.125,571.15625 c -0.92116,0.002 -3.04153,0.31933 -7.875,1.96875 0,0 -3.61131,-0.85275 -5.375,-0.75 -1.33472,0.0778 -1.60047,0.70672 1.46875,2.65625 -2.61594,-0.15911 -4.6601,0.5002 -5.03125,1.84375 -0.29537,1.06923 0.5406,2.33168 2.0625,3.40625 l -1.90625,0.53125 c 0,0 1.75172,1.2808 2.0625,1.5 -3.33243,0.78866 -8.7125,2.70448 -5.09375,6.40625 l -1.9375,1.125 -5.34375,-1.40625 c 0,0 1.28827,2.9054 1.75,3.90625 -0.50773,-0.12753 -1.11335,-0.20998 -1.6875,-0.3125 -0.26799,-0.048 -0.50877,-0.1511 -0.78125,-0.1875 -0.36531,-0.0492 -0.70268,-0.0423 -1.0625,-0.0625 -0.3905,-0.0217 -0.75998,-0.0548 -1.125,-0.0312 -0.51983,0.0327 -0.95478,0.12706 -1.375,0.28125 -0.0613,0.0223 -0.1287,0.006 -0.1875,0.0312 -0.11644,0.0499 -0.23931,0.1251 -0.34375,0.1875 -0.21217,0.12808 -0.40955,0.28349 -0.5625,0.46875 -0.1221,0.14714 -0.20325,0.28144 -0.28125,0.46875 -0.0715,0.17174 -0.12635,0.38532 -0.15625,0.59375 -0.0294,0.20367 -0.0463,0.44621 -0.0312,0.6875 0.0159,0.25352 0.0554,0.54579 0.125,0.84375 0.0717,0.30665 0.14731,0.61182 0.28125,0.96875 -1.62694,-0.32681 -3.39282,-0.48415 -4.6875,-0.0625 -6.22912,-7.52702 -3.96374,1.59185 -4.09375,3.1875 -0.14553,1.78643 -3.40625,-0.625 -3.40625,-0.625 0,0 -0.0595,0.0575 -0.0625,0.0625 -0.92494,-0.72776 -1.73682,-0.47345 -2,1.9375 -1.14596,-0.33503 -2.77866,2.86569 -3.65625,4.21875 -0.72789,-0.2992 -1.46864,-0.58413 -2.15625,-0.75 -0.3128,-0.68539 -0.5,-1.34375 -0.5,-1.34375 0,0 -1.97613,-0.28806 -3.09375,0.21875 -0.0122,-3.8e-4 -0.0193,-1.7e-4 -0.0312,0 -0.42434,0.006 -0.68949,0.35512 -0.84375,0.90625 -0.005,-0.002 -0.0937,-0.0312 -0.0937,-0.0312 0,0 -1.17203,3.88757 -2.34375,2.53125 -1.0466,-1.21146 -4.63185,-9.94012 -5.21875,-0.1875 -1.29402,0.42363 -2.62941,1.6198 -3.75,2.84375 -0.10254,-0.36718 -0.22068,-0.64762 -0.34375,-0.9375 -0.11966,-0.28161 -0.2382,-0.56721 -0.375,-0.78125 -0.13014,-0.20374 -0.29362,-0.38414 -0.4375,-0.53125 -0.14711,-0.15063 -0.30965,-0.27857 -0.46875,-0.375 -0.17352,-0.10518 -0.31459,-0.17202 -0.5,-0.21875 -0.2328,-0.0593 -0.47189,-0.0843 -0.71875,-0.0625 -0.12111,0.0113 -0.28278,0.0341 -0.40625,0.0625 -0.0624,0.0142 -0.0937,0.0753 -0.15625,0.0937 -0.43023,0.12352 -0.84228,0.3134 -1.28125,0.59375 -0.30858,0.1964 -0.60378,0.40833 -0.90625,0.65625 -0.27855,0.22869 -0.54665,0.4634 -0.8125,0.71875 -0.19847,0.19022 -0.34323,0.39683 -0.53125,0.59375 -0.40301,0.42158 -0.82161,0.81617 -1.15625,1.21875 -0.21787,-1.08048 -0.90625,-4.15625 -0.90625,-4.15625 l -3.46875,4.25 -2.25,0.25 c 0.73693,-5.124 -4.7193,-3.48614 -7.875,-2.15625 0.12154,-0.36037 0.75,-2.40625 0.75,-2.40625 l -3.75,1.4375 c 0.0241,-0.0705 0.34375,-1.09375 0.34375,-1.09375 l -5.9375,2.3125 c 0.0358,-0.0731 0.0578,-0.11317 0.0937,-0.1875 3.57216,-7.32572 3.01571,-8.27036 1.53125,-7.3125 -1.11755,0.72109 -2.45073,2.22632 -3.1875,3.0625 1.10558,-2.75625 -3.6875,-1.96875 -3.6875,-1.96875 0,0 -1.09949,3.91326 -2.3125,2.59375 -0.73527,-0.79982 -2.75911,-5.02881 -4.0625,-4.625 -0.30174,-2.40643 -1.11809,-2.64873 -2.03125,-1.90625 -0.003,-0.005 -0.0625,-0.0625 -0.0625,-0.0625 0,0 -3.20088,2.47137 -3.375,0.6875 -0.15554,-1.59337 1.95155,-10.7508 -4.15625,-3.125 -1.30126,-0.40086 -3.06599,-0.22782 -4.6875,0.125 0.12817,-0.35904 0.1832,-0.62974 0.25,-0.9375 0.0648,-0.29904 0.11319,-0.62125 0.125,-0.875 0.0113,-0.24149 10e-4,-0.48432 -0.0312,-0.6875 -0.0332,-0.20791 -0.082,-0.39192 -0.15625,-0.5625 -0.081,-0.18603 -0.18805,-0.35483 -0.3125,-0.5 -0.15592,-0.18274 -0.3483,-0.31286 -0.5625,-0.4375 -0.1054,-0.0607 -0.22655,-0.1394 -0.34375,-0.1875 -0.0591,-0.0244 -0.12577,-0.0103 -0.1875,-0.0312 -0.42264,-0.14742 -0.85472,-0.2256 -1.375,-0.25 -0.36535,-0.0177 -0.73491,0.003 -1.125,0.0312 -0.35947,0.026 -0.69802,0.0386 -1.0625,0.0937 -0.27186,0.0408 -0.51406,0.13519 -0.78125,0.1875 -0.57243,0.11169 -1.15062,0.20811 -1.65625,0.34375 0.44565,-1.00812 1.65625,-3.9375 1.65625,-3.9375 l -5.3125,1.5 -1.9375,-1.09375 c 3.55903,-3.75923 -1.87412,-5.60856 -5.21875,-6.34375 0.30723,-0.22415 2.03125,-1.5 2.03125,-1.5 l -3.90625,-1 c 0.0604,-0.0437 0.90625,-0.6875 0.90625,-0.6875 l -6.1875,-1.5625 c 0.0714,-0.039 0.14642,-0.0539 0.21875,-0.0937 7.1451,-3.92098 7.2026,-4.98802 5.4375,-5.0625 -1.7651,-0.0745 -5.34375,0.84375 -5.34375,0.84375 -7.77481,-2.5149 -8.59375,-1.71875 -8.59375,-1.71875 0,0 3.05538,1.54807 2.40625,3.21875 -0.51348,1.3216 -5.29674,7.11714 -0.21875,5.625 1.88419,1.37024 -1.78125,4.03125 -1.78125,4.03125 0,0 -0.24756,3.85152 3.0625,2.5625 0.15382,1.18287 0.91042,2.92346 4.09375,1.0625 1.13903,-0.11496 2.9556,-0.14132 2.5,1.03125 -0.55039,1.41663 -6.01455,7.98933 1.03125,5.1875 -0.11284,1.34883 0.4497,3.26479 5.25,1.375 0.17771,-0.0701 0.10862,-0.0258 0.28125,-0.0937 l 0,0.0625 c 4.12363,-1.17781 1.8125,4.25 1.8125,4.25 0,0 1.07361,2.2899 2.6875,1.625 0,0 0.20121,-0.12486 0.46875,-0.3125 0.0113,-0.009 0.0192,-0.0539 0.0312,-0.0625 0.22757,-0.1573 0.5085,-0.32921 0.8125,-0.5 0.30402,-0.17078 0.6395,-0.34413 0.9375,-0.4375 0.14892,-0.0467 0.24296,-0.0522 0.375,-0.0625 0.0677,-0.004 0.12636,-0.038 0.1875,-0.0312 0.13749,0.0155 0.25063,0.0998 0.34375,0.1875 0.10724,0.10098 0.22423,0.24619 0.25,0.46875 0.0258,0.22257 5e-5,0.57544 -0.0312,1.03125 -0.0207,0.33205 -0.033,0.52916 -0.0625,0.9375 -0.0329,0.44854 -0.0492,0.87584 -0.0625,1.34375 -0.0117,0.40885 -0.0272,0.82229 0,1.1875 0.003,0.0375 -0.003,0.0886 0,0.125 0.0328,0.35138 0.0928,0.65619 0.1875,0.90625 0.009,0.0218 0.0217,0.0419 0.0312,0.0625 0.1745,0.39926 0.49545,0.61074 0.9375,0.5 0.12258,-0.0308 0.25787,-0.1049 0.40625,-0.1875 0.0348,-0.0193 0.0887,-0.009 0.125,-0.0312 0.10378,-0.0651 0.22759,-0.19072 0.34375,-0.28125 0.0753,-0.0597 0.20053,-0.11658 0.28125,-0.1875 0.18025,-0.15945 0.38561,-0.40722 0.59375,-0.625 0.0276,-0.0289 0.0345,-0.0638 0.0625,-0.0937 0.0212,-0.0235 0.0405,-0.0386 0.0625,-0.0625 0.67582,-0.50103 2.94823,-2.0886 3.125,-0.5625 0.17381,1.50049 -1.56549,9.84095 3.25,4.28125 0.36418,-0.12496 4.24188,-1.4252 5.78125,0.0625 1.35778,1.31222 5.39597,9.65186 7.34375,2.59375 0.96415,7.17504 3.98319,4.06938 6.25,0.40625 0.15072,2.43552 0.54756,5.34528 2.875,2.40625 2.32953,0.0316 0.875,4.3125 0.875,4.3125 0,0 2.0095,3.27551 3.96875,0.3125 0.80828,0.87722 2.44309,1.8882 3.96875,-1.46875 0.86385,-0.75125 2.3516,-1.81427 2.65625,-0.59375 0.3681,1.47454 -0.32447,9.97945 3.8125,3.625 0.6863,1.16665 2.26422,2.40745 5.09375,-1.90625 0.10467,-0.1598 0.0545,-0.0637 0.15625,-0.21875 l 0.0312,0.0312 c 2.68783,-3.34172 3.9375,2.4375 3.9375,2.4375 0,0 2.22199,1.22441 3.15625,-0.25 0,0 0.10856,-0.22361 0.21875,-0.53125 0.004,-0.0139 -0.0361,-0.0173 -0.0312,-0.0312 0.0951,-0.2598 0.2253,-0.59133 0.375,-0.90625 0.14971,-0.31493 0.31052,-0.62676 0.5,-0.875 0.0947,-0.12408 0.17936,-0.19664 0.28125,-0.28125 0.053,-0.0423 0.0712,-0.0952 0.125,-0.125 0.12123,-0.0667 0.2796,-0.0803 0.40625,-0.0625 0.14585,0.0206 0.31926,0.0831 0.46875,0.25 0.14952,0.16688 0.325,0.4847 0.5625,0.875 0.17473,0.28311 0.28843,0.43075 0.5,0.78125 0.232,0.38529 0.45957,0.76645 0.71875,1.15625 0.22641,0.34064 0.45451,0.65495 0.6875,0.9375 0.0241,0.0289 0.0392,0.097 0.0625,0.125 0.22958,0.26803 0.43457,0.47546 0.65625,0.625 0.0199,0.0126 0.0741,0.02 0.0937,0.0312 0.37293,0.22535 0.73416,0.22055 1.03125,-0.125 0.0823,-0.0959 0.14524,-0.25316 0.21875,-0.40625 0.0173,-0.0359 0.077,-0.0546 0.0937,-0.0937 0.0472,-0.11306 0.0824,-0.26528 0.125,-0.40625 0.027,-0.0922 0.10002,-0.23925 0.125,-0.34375 0.0552,-0.23424 0.0807,-0.51452 0.125,-0.8125 0.006,-0.0395 -0.005,-0.11562 0,-0.15625 0.004,-0.0314 0.0272,-0.0303 0.0312,-0.0625 0.26275,-0.7992 1.19363,-3.42553 2.21875,-2.28125 1.00792,1.12507 4.40107,8.94451 5.125,1.625 0.22529,-0.31222 2.63428,-3.60777 4.75,-3.28125 1.5987,0.24674 7.75924,3.5698 7.9375,0.1875 0.45505,0.0301 0.85858,-0.19363 1.21875,-0.71875 2.08314,1.61276 3.07079,0.80139 3.46875,-0.90625 1.88811,-0.40813 3.97074,-4.53513 4.875,-5.4375 1.51535,-1.51214 5.41512,-0.30661 5.78125,-0.1875 4.90391,5.48188 3.00648,-2.77817 3.15625,-4.28125 0.1523,-1.52874 2.4725,0.01 3.15625,0.5 0.0224,0.0235 0.0408,0.008 0.0625,0.0312 0.028,0.0298 0.0656,0.0967 0.0937,0.125 0.21164,0.2144 0.41095,0.43722 0.59375,0.59375 0.0818,0.0696 0.20505,0.129 0.28125,0.1875 0.11763,0.0886 0.23888,0.1866 0.34375,0.25 0.0367,0.0217 0.0899,0.0437 0.125,0.0625 0.14969,0.0802 0.28321,0.1586 0.40625,0.1875 0.44377,0.10365 0.73816,-0.12925 0.90625,-0.53125 0.009,-0.0206 0.0535,-0.0406 0.0625,-0.0625 0.0907,-0.25154 0.12905,-0.55438 0.15625,-0.90625 0.002,-0.0363 -0.002,-0.0874 0,-0.125 0.0213,-0.36559 0.0182,-0.77887 0,-1.1875 -0.0207,-0.46764 -0.0536,-0.8958 -0.0937,-1.34375 -0.036,-0.40783 -0.0678,-0.60583 -0.0937,-0.9375 -0.0382,-0.45525 -0.0534,-0.80829 -0.0312,-1.03125 0.0222,-0.22296 0.11316,-0.36605 0.21875,-0.46875 0.0917,-0.0891 0.20644,-0.1703 0.34375,-0.1875 0.061,-0.008 0.1198,0.0282 0.1875,0.0312 0.1322,0.008 0.25657,0.0183 0.40625,0.0625 0.29945,0.0886 0.63079,0.24034 0.9375,0.40625 0.3067,0.16589 0.58241,0.34639 0.8125,0.5 0.012,0.008 0.0195,0.0535 0.0312,0.0625 0.2705,0.18332 0.46875,0.28125 0.46875,0.28125 1.62433,0.63896 2.65625,-1.65625 2.65625,-1.65625 0,0 -2.39196,-5.39287 1.75,-4.28125 l 0,-0.0625 c 0.17369,0.0651 0.10246,0.0266 0.28125,0.0937 4.82995,1.81269 5.38442,-0.1219 5.25,-1.46875 7.08976,2.68865 1.47924,-3.77986 0.90625,-5.1875 -0.47433,-1.16508 1.35927,-1.1592 2.5,-1.0625 3.21271,1.80976 3.92763,0.0289 4.0625,-1.15625 3.33027,1.23585 3.03125,-2.59375 3.03125,-2.59375 0,0 -3.67449,-2.63102 -1.8125,-4.03125 5.10124,1.41065 0.19082,-4.28053 -0.34375,-5.59375 -0.67581,-1.66006 2.34375,-3.25 2.34375,-3.25 0,0 -0.10355,-0.12628 -0.65625,-0.125 z"
         style="fill:#e9d2dd;fill-opacity:1;stroke:none" />
      <path
         style="fill:#153b43;fill-opacity:1;stroke:none"
         d="m 64.776032,10.314058 c 12.2481,7.449875 25.127544,-0.3788069 25.127544,-0.3788069 -0.378807,5.0507629 1.136422,8.3337589 1.136422,8.3337589 0,0 -5.177033,7.197337 -5.682109,12.500638 0,0 -7.197336,3.156726 -15.404825,-0.126269 -1.136422,-5.934647 -6.060916,-11.364217 -6.060916,-11.364217 1.010153,-3.788072 0.883884,-8.965104 0.883884,-8.965104 z"
         id="path3758"
         inkscape:connector-curvature="0"
         transform="translate(483.06007,429.40389)"
         sodipodi:nodetypes="ccccccc" />
      <path
         style="fill:#0d262b;stroke:none;fill-opacity:1"
         d="m 563.05035,459.87576 c -0.37881,-2.52539 4.54568,-3.40927 4.54568,-3.40927 0,0 -7.3236,-0.63135 -4.54568,3.40927 z"
         id="path3760"
         inkscape:connector-curvature="0" />
      <path
         inkscape:connector-curvature="0"
         id="path3780"
         d="m 558.15542,459.87576 c 0.28638,-2.52539 -3.43647,-3.40927 -3.43647,-3.40927 0,0 5.53654,-0.63135 3.43647,3.40927 z"
         style="fill:#0d262b;stroke:none;fill-opacity:1" />
      <path
         style="opacity:0.6;fill:#2f3424;fill-opacity:1;stroke:none"
         d="m 53.258928,16.706239 6.167553,1.023649 -3.404773,7.16087 c 0,0 1.06797,4.120831 1.835435,12.976195 -7.197337,12.374369 -5.892858,21.964286 -5.892858,21.964286 -2.020305,8.965104 -5.535714,10.178571 -5.535714,10.178571 0,-7.134202 0.730375,-19.26527 3.192622,-31.071428 0.505076,-7.954951 -0.380122,-18.169643 -0.380122,-18.169643 z"
         id="path3782"
         inkscape:connector-curvature="0"
         transform="translate(483.06007,429.40389)"
         sodipodi:nodetypes="ccccccccc" />
      <path
         sodipodi:nodetypes="ccccccccc"
         inkscape:connector-curvature="0"
         id="path3784"
         d="m 585.86664,446.6012 -6.12291,-0.28817 3.40477,7.98162 c 0,0 0.3606,4.2994 -0.40686,13.15476 3.26877,1.48151 4.46429,21.78572 4.46429,21.78572 2.0203,8.9651 9.13438,9.67349 9.13438,9.67349 0,-7.1342 -3.43618,-18.84948 -5.89843,-30.65564 -0.50508,-7.95495 -0.73595,-17.23214 -0.73595,-17.23214 -0.625,-1.60714 -3.83929,-4.41964 -3.83929,-4.41964 z"
         style="opacity:0.6;fill:#2f3424;fill-opacity:1;stroke:none" />
      <path
         style="opacity:0.6;fill:#2f3424;stroke:none"
         d="m 45.456864,117.39023 c 11.174812,6.06092 33.335034,5.55584 33.335034,5.55584 -25.316948,-6.56599 -34.723993,-13.63706 -34.723993,-13.63706 -0.631345,0.69448 1.388959,8.08122 1.388959,8.08122 z"
         id="path3786"
         inkscape:connector-curvature="0"
         transform="translate(483.06007,429.40389)"
         sodipodi:nodetypes="cccc" />
      <path
         sodipodi:nodetypes="cccc"
         inkscape:connector-curvature="0"
         id="path3788"
         d="m 602.11754,546.09964 c -11.17481,6.06092 -36.89749,11.42889 -36.89749,11.42889 25.31695,-6.56599 37.2763,-19.25757 37.2763,-19.25757 0.63134,0.69448 -0.37881,7.82868 -0.37881,7.82868 z"
         style="opacity:0.6;fill:#2f3424;stroke:none" />
      <path
         style="opacity:0.6;fill:#2f3424;stroke:none"
         d="m 553.13659,568.64842 c 2.88012,5.34878 17.09689,7.10171 17.09689,7.10171 0,0 -14.73108,0.71574 -17.09689,-7.10171 z"
         id="path3790"
         inkscape:connector-curvature="0"
         sodipodi:nodetypes="ccc" />
      <path
         sodipodi:nodetypes="ccc"
         inkscape:connector-curvature="0"
         id="path3792"
         d="m 581.36177,562.82971 c -12.40826,11.02202 -20.80632,8.92006 -20.80632,8.92006 0,0 8.91237,3.69783 20.80632,-8.92006 z"
         style="opacity:0.6;fill:#2f3424;stroke:none" />
      <path
         inkscape:connector-curvature="0"
         id="path3823"
         d="m 584.06218,524.50504 c 0,5.0049 -4.05728,9.06218 -9.06218,9.06218 -5.0049,0 -9.06218,-4.05728 -9.06218,-9.06218 0,-5.0049 4.05728,-9.06218 9.06218,-9.06218 5.0049,0 9.06218,4.05728 9.06218,9.06218 z"
         style="fill:#ff61bb;fill-opacity:1;stroke:#640a3b;stroke-width:0.25000000000000000;stroke-linecap:butt;stroke-linejoin:miter;stroke-miterlimit:4;stroke-opacity:1;filter:url(#filter3841)" />
      <path
         style="opacity:0.6;fill:#2f3424;stroke:none"
         d="m 95.625,16.349096 c 0,0 -3.571429,1.875 -9.017858,27.142857 L 84.375,38.045524 c -0.982142,3.571429 -11.339286,3.303575 -12.589286,4e-6 l -2.321428,5.178568 c -2.678572,-15 -9.642858,-25.625 -9.642858,-25.625 0,0 5.714286,3.571428 8.928572,15.535714 l 16.160714,0.535714 C 89.642857,22.50981 95.625,16.349096 95.625,16.349096 z"
         id="path3885"
         inkscape:connector-curvature="0"
         transform="translate(483.06007,429.40389)"
         sodipodi:nodetypes="ccccccccc" />
      <g
         transform="matrix(0.2466183,0,0,0.2466183,500.29245,457.97365)"
         id="g4057">
        <path
           inkscape:connector-curvature="0"
           id="path3896"
           d="m 245.25,71.843746 -0.28125,0 0.125,0.09375 c 0.0353,0.0614 0.0291,0 0.0312,0 l 0.125,-0.09375 z"
           style="fill:#8f0000;stroke:none" />
        <path
           inkscape:connector-curvature="0"
           id="path3894"
           d="m 272,46.937496 -53.75,0 9.3125,12.125 17.40625,12.78125 0.28125,0 17.40625,-12.78125 9.34375,-12.125 z"
           style="fill:url(#linearGradient3904);fill-opacity:1;stroke:none" />
        <path
           inkscape:connector-curvature="0"
           id="path3884"
           d="m 245.09375,34.54419 -18.03125,1.25 -8.84375,11.15625 0.0312,0.03125 53.75,0 0.0312,-0.03125 -8.875,-11.15625 -18.03125,-1.25 -0.0312,0 z"
           style="fill:url(#linearGradient3912);fill-opacity:1;stroke:none" />
        <path
           style="fill:url(#radialGradient3924);fill-opacity:1;stroke:none"
           d="m 245.03661,34.476789 -18.03125,1.25 -8.84375,11.15625 0.0312,0.03125 53.75,0 0.0312,-0.03125 -8.875,-11.15625 -18.03125,-1.25 -0.0312,0 z"
           id="path3914"
           inkscape:connector-curvature="0" />
        <path
           inkscape:connector-curvature="0"
           id="path3996"
           d="m 227.5625,50.312496 -2.65625,5.28125 -0.375,-0.53125 0.0625,1.03125 2.90625,3.71875 1.84375,1.03125 10,-10.40625 -0.1875,-0.125 -11.59375,0 z m 23.3125,0 -0.1875,0.125 10.03125,10.40625 1.8125,-1.03125 2.90625,-3.71875 0.0937,-1.03125 -0.40625,0.53125 -2.625,-5.28125 -11.625,0 z m -10.34375,7.15625 -7.84375,5.34375 -0.375,-0.28125 0.0312,0.46875 5.71875,4.1875 6.59375,-4.8125 0,-4.90625 -4.125,0 z m 4.875,0 0,4.90625 6.5625,4.8125 5.75,-4.1875 0.0312,-0.46875 -0.40625,0.28125 -7.8125,-5.34375 -4.125,0 z"
           style="fill:url(#linearGradient4049);fill-opacity:1;stroke:none" />
        <path
           inkscape:connector-curvature="0"
           id="path3994"
           d="m 223.0625,39.557134 -3.65625,3.90625 0.4375,1.375 8.03125,4.937505 -0.3125,0.625 11.59375,0 -15.5625,-10.312505 0.375,-0.4375 -0.90625,-0.09375 z"
           style="fill:#89622e;fill-opacity:1;stroke:none" />
        <path
           inkscape:connector-curvature="0"
           id="path4051"
           d="m 234.625,33.854996 10.375,-12.375 10.25,12 -0.875,0.75 -9.625,-12.125 -9.5,11.875 z"
           style="fill:#000000;stroke:none" />
        <path
           inkscape:connector-curvature="0"
           id="rect3928"
           d="m 235.53125,32.343746 -6.375,3.15625 12.375,8.53125 3.125,0 0,-5.59375 -5.3125,-3.5 0.625,-0.0625 -4.4375,-2.53125 z"
           style="fill:#89622e;fill-opacity:1;stroke:none" />
        <path
           inkscape:connector-curvature="0"
           id="path3987"
           d="m 267,39.557134 -0.90625,0.09375 0.34375,0.4375 -15.5625,10.312505 11.625,0 -0.3125,-0.625 8.03125,-4.937505 0.4375,-1.375 L 267,39.557134 z"
           style="fill:#89622e;fill-opacity:1;stroke:none" />
        <path
           inkscape:connector-curvature="0"
           id="path3980"
           d="m 254.53125,32.343746 -4.4375,2.53125 0.625,0.0625 -5.3125,3.5 0,5.59375 3.125,0 12.375,-8.53125 -6.375,-3.15625 z"
           style="fill:#89622e;fill-opacity:1;stroke:none" />
        <g
           transform="translate(97.500002,-51.500001)"
           id="g4022">
          <path
             style="fill:#693b00;fill-opacity:1;stroke:none"
             d="m 147.53125,90.374997 -0.84943,0.849432 -0.73864,0 0,0.738636 -0.84943,0.849432 0.84943,0.849432 0,0.738636 0.70171,0 0.88636,0.886364 0.88636,-0.886364 0.70171,0 0,-0.738636 0.84943,-0.849432 -0.84943,-0.849432 0,-0.738636 -0.73864,0 -0.84943,-0.849432 z"
             id="rect4014"
             inkscape:connector-curvature="0" />
          <path
             inkscape:connector-curvature="0"
             id="path4020"
             d="m 147.53125,91.128311 -0.58889,0.588887 -0.51207,0 0,0.512076 -0.58889,0.588887 0.58889,0.588887 0,0.512076 0.48647,0 0.61449,0.614491 0.61449,-0.614491 0.48647,0 0,-0.512076 0.58889,-0.588887 -0.58889,-0.588887 0,-0.512076 -0.51207,0 -0.58889,-0.588887 z"
             style="fill:#f42455;fill-opacity:1;stroke:none" />
        </g>
        <g
           transform="translate(97.500002,-32.625001)"
           id="g4026">
          <path
             inkscape:connector-curvature="0"
             id="path4028"
             d="m 147.53125,90.374997 -0.84943,0.849432 -0.73864,0 0,0.738636 -0.84943,0.849432 0.84943,0.849432 0,0.738636 0.70171,0 0.88636,0.886364 0.88636,-0.886364 0.70171,0 0,-0.738636 0.84943,-0.849432 -0.84943,-0.849432 0,-0.738636 -0.73864,0 -0.84943,-0.849432 z"
             style="fill:#3e3220;fill-opacity:1;stroke:none" />
          <path
             style="fill:#b71f42;fill-opacity:1;stroke:none"
             d="m 147.53125,91.128311 -0.58889,0.588887 -0.51207,0 0,0.512076 -0.58889,0.588887 0.58889,0.588887 0,0.512076 0.48647,0 0.61449,0.614491 0.61449,-0.614491 0.48647,0 0,-0.512076 0.58889,-0.588887 -0.58889,-0.588887 0,-0.512076 -0.51207,0 -0.58889,-0.588887 z"
             id="path4030"
             inkscape:connector-curvature="0" />
        </g>
        <path
           sodipodi:nodetypes="ccccccccc"
           inkscape:connector-curvature="0"
           id="path4055"
           d="m 244.31905,21.347125 c 0,0 -18.57022,1.813764 -63.6264,-61.418486 l 1.23744,-1.06066 c 42.75217,61.184242 63.09006,62.091202 63.09006,62.091202 0,0 38.06657,-14.5626846 63.92267,-66.082888 l 0.53079,0.14439 C 293.08955,0.84486401 245.63665,21.690385 245.63665,21.690385 l -0.79327,-0.521315 z"
           style="fill:#251b17;stroke:none;fill-opacity:1" />
      </g>
    </g>
  </g>
</svg>
