<?xml version="1.0" encoding="UTF-8" standalone="no"?>
<!-- Created with Inkscape (http://www.inkscape.org/) -->

<svg
   xmlns:dc="http://purl.org/dc/elements/1.1/"
   xmlns:cc="http://creativecommons.org/ns#"
   xmlns:rdf="http://www.w3.org/1999/02/22-rdf-syntax-ns#"
   xmlns:svg="http://www.w3.org/2000/svg"
   xmlns="http://www.w3.org/2000/svg"
   xmlns:sodipodi="http://sodipodi.sourceforge.net/DTD/sodipodi-0.dtd"
   xmlns:inkscape="http://www.inkscape.org/namespaces/inkscape"
   width="102.7002"
   height="127.62427"
   id="svg3069"
   version="1.1"
   inkscape:version="0.48.4 r9939"
   sodipodi:docname="face.svg">
  <defs
     id="defs3071" />
  <sodipodi:namedview
     id="base"
     pagecolor="#ffffff"
     bordercolor="#666666"
     borderopacity="1.0"
     inkscape:pageopacity="0.0"
     inkscape:pageshadow="2"
     inkscape:zoom="3.959798"
     inkscape:cx="9.4011696"
     inkscape:cy="36.672232"
     inkscape:document-units="px"
     inkscape:current-layer="layer1"
     showgrid="false"
     fit-margin-top="5"
     fit-margin-left="5"
     fit-margin-right="5"
     fit-margin-bottom="5"
     inkscape:window-width="1600"
     inkscape:window-height="870"
     inkscape:window-x="1366"
     inkscape:window-y="0"
     inkscape:window-maximized="1" />
  <metadata
     id="metadata3074">
    <rdf:RDF>
      <cc:Work
         rdf:about="">
        <dc:format>image/svg+xml</dc:format>
        <dc:type
           rdf:resource="http://purl.org/dc/dcmitype/StillImage" />
        <dc:title />
      </cc:Work>
    </rdf:RDF>
  </metadata>
  <g
     inkscape:label="レイヤー 1"
     inkscape:groupmode="layer"
     id="layer1"
     transform="translate(-141.57839,-129.08952)">
    <path
       style="fill:#fcf0e0;fill-opacity:1;stroke:#5d513b;stroke-width:0.5;stroke-linecap:butt;stroke-linejoin:miter;stroke-miterlimit:4;stroke-opacity:1"
       d="m 148.67071,173.03874 c 0,0 2.02031,-18.18274 10.85914,-25.75889 0,0 7.76632,-9.32437 24.43384,-12.60737 23.73859,-1.51523 39.61709,8.2013 39.61709,8.2013 12.6269,10.10151 14.87238,36.60719 14.87238,36.60719 1.26269,16.92005 -2.90932,40.52987 -2.90932,40.52987 -6.31344,20.96067 -28.15799,31.0622 -41.54252,31.56727 0,0 -4.92216,0.29438 -7.39103,-0.44098 -14.17983,-4.22351 -32.6342,-12.37983 -34.65658,-20.26714 -4.54568,-16.66752 -7.82868,-30.55713 -3.283,-57.83125 z"
       id="rect3794-0"
       inkscape:connector-curvature="0"
       sodipodi:nodetypes="cccccccscc" />
    <path
       style="fill:#bdb3a5;stroke:none"
       d="m 173.87404,192.80689 c 0,0 5.12652,0.87685 8.75044,1.84912 0,0 -1.25249,-0.93758 -0.65633,-1.99355 0,0 -4.13357,-0.66607 -8.09411,0.14439 z"
       id="path3819-2"
       inkscape:connector-curvature="0"
       sodipodi:nodetypes="ccccc" />
    <path
       sodipodi:nodetypes="ccccc"
       inkscape:connector-curvature="0"
       id="path3835-4"
       d="m 209.0526,192.80689 c 0,0 -5.12653,0.87685 -8.75045,1.84912 0,0 1.25249,-0.93758 0.65634,-1.99355 0,0 4.13355,-0.66607 8.09411,0.14439 z"
       style="fill:#bdb3a5;stroke:none" />
    <path
       sodipodi:nodetypes="ccccc"
       inkscape:connector-curvature="0"
       id="path3017"
       d="m 191.31705,218.80626 c 0,0 -0.19928,2.72453 -1.13436,6.35822 0,0 0.98783,-0.44128 1.98672,-0.17164 0,0 0.71297,-1.52026 -0.13803,-5.47229 z"
       style="fill:#bdb3a5;stroke:none" />
  </g>
</svg>
