<?xml version="1.0" encoding="UTF-8" standalone="no"?>
<!-- Created with Inkscape (http://www.inkscape.org/) -->

<svg
   xmlns:dc="http://purl.org/dc/elements/1.1/"
   xmlns:cc="http://creativecommons.org/ns#"
   xmlns:rdf="http://www.w3.org/1999/02/22-rdf-syntax-ns#"
   xmlns:svg="http://www.w3.org/2000/svg"
   xmlns="http://www.w3.org/2000/svg"
   xmlns:sodipodi="http://sodipodi.sourceforge.net/DTD/sodipodi-0.dtd"
   xmlns:inkscape="http://www.inkscape.org/namespaces/inkscape"
   width="66.547302"
   height="59.723873"
   id="svg3163"
   version="1.1"
   inkscape:version="0.48.4 r9939"
   sodipodi:docname="shoulder-left.svg">
  <defs
     id="defs3165" />
  <sodipodi:namedview
     id="base"
     pagecolor="#ffffff"
     bordercolor="#666666"
     borderopacity="1.0"
     inkscape:pageopacity="0.0"
     inkscape:pageshadow="2"
     inkscape:zoom="5.6"
     inkscape:cx="57.726363"
     inkscape:cy="9.7955967"
     inkscape:document-units="px"
     inkscape:current-layer="layer1"
     showgrid="false"
     inkscape:window-width="1600"
     inkscape:window-height="870"
     inkscape:window-x="1366"
     inkscape:window-y="0"
     inkscape:window-maximized="1"
     fit-margin-top="5"
     fit-margin-left="5"
     fit-margin-right="5"
     fit-margin-bottom="5" />
  <metadata
     id="metadata3168">
    <rdf:RDF>
      <cc:Work
         rdf:about="">
        <dc:format>image/svg+xml</dc:format>
        <dc:type
           rdf:resource="http://purl.org/dc/dcmitype/StillImage" />
        <dc:title />
      </cc:Work>
    </rdf:RDF>
  </metadata>
  <g
     inkscape:label="レイヤー 1"
     inkscape:groupmode="layer"
     id="layer1"
     transform="translate(-341.30395,-482.70312)">
    <g
       id="g3754">
      <path
         sodipodi:nodetypes="cccccccc"
         inkscape:connector-curvature="0"
         id="rect3770"
         d="m 374.10408,530.34546 c 0,0 -17.6915,-0.55563 -25.28305,-12.5011 -6.24844,-12.02611 2.40115,-13.89325 2.40115,-13.89325 0,0 2.61352,-8.10977 22.66877,-13.08782 0,0 8.5798,-0.78457 15.27664,2.9921 6.22974,16.20588 4.38149,31.96998 4.38149,31.96998 -1.67746,4.61633 -6.2652,4.85385 -13.26292,0.55605 0,0 -0.52352,5.03974 -6.18208,3.96404 z"
         style="fill:#fb97ce;fill-opacity:1;stroke:#ab325e;stroke-width:0.5;stroke-opacity:1" />
      <path
         style="opacity:0.59999999999999998;fill:#ec6bb2;stroke:none;fill-opacity:1"
         d="m 347.87276,506.26327 c 0,0 5.35714,3.30358 6.07143,1.60715 0.98214,-1.07143 0.89286,-2.85715 0.89286,-2.85715 0,0 22.32142,-3.66071 22.14285,6.60715 9.46429,-10.53571 6.25,-12.67858 6.25,-12.67858 l 4.28572,-6.07142 -5.53572,-1.25 -7.5,-0.71429 c 0,0 -13.92857,2.94643 -20.44643,9.10715 0,0 -2.05357,2.32143 -2.67857,3.83928 0,0 -3.03571,0.89285 -3.48214,2.41071 z"
         id="path3759"
         inkscape:connector-curvature="0"
         sodipodi:nodetypes="ccccccccccc" />
      <path
         sodipodi:nodetypes="ccccccccccccscccsccccccccccccccccsccccsccsccccccccccccccccccccc"
         inkscape:connector-curvature="0"
         id="path3881"
         d="m 399.27615,536.32679 c 0,0 3.14281,-2.14625 0.11854,-3.93743 0.82739,-0.8418 1.74317,-2.48795 -1.64924,-3.83134 -0.78477,-0.81695 -1.9208,-2.24286 -0.72948,-2.60373 1.4393,-0.43603 9.9034,-0.16726 3.42064,-3.94459 1.11939,-0.73543 2.24888,-2.36231 -2.15295,-4.94744 -0.16307,-0.0957 -0.0691,-0.0571 -0.22736,-0.15012 l 0.0528,-0.0304 c -3.43429,-2.49272 2.18864,-4.00711 2.18864,-4.00711 0,0 1.12648,-2.23781 -0.37645,-3.08892 0,0 -0.22035,-0.0927 -0.5298,-0.18655 -0.013,-0.004 -0.0394,0.0337 -0.0528,0.0305 -0.26142,-0.0812 -0.57454,-0.19598 -0.89312,-0.32851 -0.31858,-0.13253 -0.64667,-0.28939 -0.90129,-0.46448 -0.12726,-0.0875 -0.19979,-0.15901 -0.28828,-0.25564 -0.0447,-0.05 -0.11187,-0.0761 -0.14394,-0.12781 -0.0715,-0.11676 -0.0888,-0.25142 -0.0773,-0.37748 0.0132,-0.14506 0.0595,-0.32111 0.21702,-0.47703 0.15754,-0.15602 0.46192,-0.36944 0.83601,-0.62334 0.27123,-0.18659 0.42489,-0.28342 0.76093,-0.50963 0.36947,-0.24811 0.72722,-0.50047 1.0998,-0.77566 0.32554,-0.2405 0.64319,-0.49295 0.9111,-0.73694 0.0278,-0.0243 0.0786,-0.0372 0.10556,-0.0609 0.25361,-0.2401 0.44937,-0.46385 0.58632,-0.69024 0.0119,-0.0205 0.0122,-0.063 0.0222,-0.083 0.20444,-0.37959 0.18525,-0.75022 -0.17082,-1.0269 -0.0988,-0.0767 -0.23891,-0.12958 -0.3938,-0.19473 -0.0363,-0.0154 -0.0741,-0.0605 -0.11365,-0.0751 -0.11402,-0.0411 -0.2747,-0.0762 -0.41611,-0.11152 -0.0926,-0.0222 -0.2284,-0.0696 -0.33289,-0.0892 -0.23419,-0.043 -0.52738,-0.0578 -0.82403,-0.087 -0.0394,-0.004 -0.0954,0.0119 -0.13595,0.008 -0.0313,-0.002 -0.051,-0.0197 -0.083,-0.0223 -0.80273,-0.22054 -3.41742,-1.02868 -2.33674,-2.09785 1.06257,-1.05123 8.59912,-4.77223 1.32977,-5.12917 -0.31961,-0.20739 -4.47024,-2.67596 -3.46596,-4.54113 6.35092,-7.2003 -16.17879,0.43945 -12.15058,1.73919 -10e-4,0.005 -0.0223,0.0832 -0.0223,0.0832 0,0 3.89991,0.99304 2.61686,2.21749 -1.14605,1.09369 -9.57635,5.05075 0.0909,5.15309 0.48207,1.25814 1.70592,2.51346 2.97045,3.56097 -0.3579,0.11929 -0.62461,0.24603 -0.90509,0.38187 -0.27242,0.1321 -0.53384,0.28069 -0.73864,0.42644 -0.19492,0.13869 -0.38094,0.29134 -0.51943,0.44059 -0.1417,0.15266 -0.26546,0.32323 -0.35297,0.48519 -0.0954,0.17669 -0.14947,0.34423 -0.18657,0.52976 -0.0472,0.23299 -0.0456,0.46747 -0.0119,0.71037 0.0169,0.11914 0.0431,0.25684 0.0772,0.37748 0.017,0.0609 0.07,0.0973 0.0914,0.15818 0.1431,0.41918 0.34934,0.82382 0.64798,1.24386 0.20918,0.29536 0.44645,0.57169 0.70649,0.85835 0.23957,0.26414 0.46349,0.52481 0.72887,0.77506 0.1977,0.18683 0.4255,0.30463 0.62933,0.48081 0.43638,0.37765 0.85254,0.7866 1.26681,1.09759 -1.05718,0.26826 -4.08319,1.0912 -4.08319,1.0912 l 4.39713,3.2297 0.3498,2.18982 c -5.10018,-0.47737 -3.23211,4.85825 -1.76322,7.91189 -0.3621,-0.10246 -2.41338,-0.64665 -2.41338,-0.64665 l 1.61064,3.6426 c -0.071,-0.0203 -1.08186,-0.2899 -1.08186,-0.2899 0.0258,2.83232 2.55713,5.76934 2.55713,5.76934 7.6113,5.81783 6.73105,1.45036 10.13391,1.95717 z"
         style="fill:#e9d2dd;fill-opacity:1;stroke:none" />
      <path
         sodipodi:nodetypes="cccc"
         transform="translate(341.30395,482.70312)"
         inkscape:connector-curvature="0"
         id="path2984"
         d="m 19.821428,44.723873 c 0,0 17.321429,7.678571 19.464286,-1.25 L 42.678571,22.045302 C 36.964285,41.688159 19.821428,44.723873 19.821428,44.723873 z"
         style="opacity:0.6;fill:#d970aa;fill-opacity:1;stroke:none" />
    </g>
    <path
       style="fill:#ec6bb2;stroke:none;opacity:0.22493225"
       d="m 367.37538,518.85556 c 7.58929,-1.78571 12.14286,-6.42857 12.14286,-6.42857 0,0 -2.58929,3.57143 -4.82143,5.53572 -2.76786,1.33929 -7.32143,0.89285 -7.32143,0.89285 z"
       id="path3794"
       inkscape:connector-curvature="0"
       sodipodi:nodetypes="cccc" />
  </g>
</svg>
