<?xml version="1.0" encoding="UTF-8" standalone="no"?>
<!-- Created with Inkscape (http://www.inkscape.org/) -->

<svg
   xmlns:dc="http://purl.org/dc/elements/1.1/"
   xmlns:cc="http://creativecommons.org/ns#"
   xmlns:rdf="http://www.w3.org/1999/02/22-rdf-syntax-ns#"
   xmlns:svg="http://www.w3.org/2000/svg"
   xmlns="http://www.w3.org/2000/svg"
   xmlns:sodipodi="http://sodipodi.sourceforge.net/DTD/sodipodi-0.dtd"
   xmlns:inkscape="http://www.inkscape.org/namespaces/inkscape"
   width="509.30182"
   height="395.04184"
   id="svg3145"
   version="1.1"
   inkscape:version="0.48.4 r9939"
   sodipodi:docname="forehair.svg">
  <defs
     id="defs3147" />
  <sodipodi:namedview
     id="base"
     pagecolor="#ffffff"
     bordercolor="#666666"
     borderopacity="1.0"
     inkscape:pageopacity="0.0"
     inkscape:pageshadow="2"
     inkscape:zoom="0.35"
     inkscape:cx="-142.4217"
     inkscape:cy="288.39653"
     inkscape:document-units="px"
     inkscape:current-layer="layer1"
     showgrid="false"
     inkscape:window-width="1366"
     inkscape:window-height="714"
     inkscape:window-x="0"
     inkscape:window-y="159"
     inkscape:window-maximized="1"
     fit-margin-top="5"
     fit-margin-left="5"
     fit-margin-right="5"
     fit-margin-bottom="5" />
  <metadata
     id="metadata3150">
    <rdf:RDF>
      <cc:Work
         rdf:about="">
        <dc:format>image/svg+xml</dc:format>
        <dc:type
           rdf:resource="http://purl.org/dc/dcmitype/StillImage" />
        <dc:title></dc:title>
      </cc:Work>
    </rdf:RDF>
  </metadata>
  <g
     inkscape:label="レイヤー 1"
     inkscape:groupmode="layer"
     id="layer1"
     transform="translate(-517.4217,-405.71687)">
    <g
       transform="translate(222.40691,199.64354)"
       id="twintail"
       class="head">
      <g
         id="twintail-right">
        <g
           id="g3238">
          <path
             style="fill:#e83174"
             inkscape:connector-curvature="0"
             id="path3240"
             d="m 476.63481,247.79766 c -4.133,-10.668 -7.908,-20.105 -19.281,-30.575 -11.373,-10.47 -16.056,-3.579 -16.056,-3.579 -16.725,-6.021 -75.596,75.596 -106.369,150.734 -2.665,6.506 -25.421,62.003 -17.394,134.254 8.027,72.251 40.139,80.947 40.139,80.947 -16.056,-47.498 -10.704,-84.292 14.049,-161.965 4.994,-15.67 12.521,-30.432 21.262,-43.895 -0.258,5.142 -0.437,11.033 -0.523,17.812 -0.669,52.118 34.788,79.673 34.788,79.673 -17.218,-36.314 -19.053,-70.432 -16.133,-96.456 0.386,23.041 12.741,32.171 12.741,32.171 -15.433,-41.788 12.665,-80.387 12.665,-80.387 h -3.458 c 15.2,-15 28.808,-24.42 35.55,-27.928 0.998,-10.566 11.061,-42.955 8.02,-50.806 z" />
          <path
             style="fill:#ce3070"
             inkscape:connector-curvature="0"
             id="path3242"
             d="m 365.46681,303.73466 62.67,34.591 -7.167,25.355 c 0,0 -14.951,1.229 -34.078,-12.323 -8.521,-6.037 -31.696,-30.174 -31.696,-30.174 l 10.271,-17.449 z" />
          <path
             style="fill:#ce3070"
             inkscape:connector-curvature="0"
             id="path3244"
             d="m 434.27581,262.88966 c 0,0 20.695,-4.954 24.127,-8.219 11.73,-11.163 11.73,-21.469 11.73,-21.469 0,0 7.446,14.052 7.072,17.956 -0.76,7.935 -15.46,27.884 -15.46,27.884 l -27.469,-16.152 z" />
          <path
             style="fill:#8cd366"
             inkscape:connector-curvature="0"
             id="path3246"
             d="M 414.56981,363.25766" />
          <path
             style="fill:#ce3070"
             inkscape:connector-curvature="0"
             id="path3248"
             d="m 357.67481,579.57966 c 0,0 -16.949,-50.873 4.234,-118.595 18.466,-59.035 31.076,-87.265 31.076,-87.265 0,0 -29.879,33.151 -43.715,92.632 -16.039,68.95 8.405,113.228 8.405,113.228 z" />
          <path
             style="fill:#ce3070"
             inkscape:connector-curvature="0"
             id="path3250"
             d="m 427.24981,471.20466 c 0,0 -10.709,-20.079 -13.547,-50.199 -2.403,-25.507 -2.586,-46.257 -2.586,-46.257 0,0 -3.61,12.232 -3.67,37.333 -0.07,29.097 19.803,59.123 19.803,59.123 z" />
          <path
             style="fill:#ce3070"
             inkscape:connector-curvature="0"
             id="path3252"
             d="m 423.85781,406.91966 c 0,0 -6.848,-16.283 -4.649,-31.25 1.762,-11.989 2.115,-20.43 2.115,-20.43 0,0 -6.436,3.973 -6.753,16.571 -0.369,14.605 9.287,35.109 9.287,35.109 z" />
        </g>
        <path
           style="fill:#bf102d"
           inkscape:connector-curvature="0"
           id="path3257"
           d="m 453.21279,271.04964 c 15.208,33.182 0,54.188 0,54.188 0,0 -34.421,35.339 -69.752,13.11 -33.062,-20.801 -43.177,-54.247 -54.891,-67.175 -8.066,-8.902 -18.831,-13.378 -28.555,-5.078 0,0 2.007,-25.149 69.575,-36.522 0,0 60.903,-8.096 83.623,41.477 z" />
        <path
           style="fill:#9b1239"
           inkscape:connector-curvature="0"
           id="path3259"
           d="m 450.23579,287.48164 c 0,0 -12.004,-16.972 -40.98,-13.66 0,0 12.832,15.315 29.804,19.455 0,0 -14.488,-7.037 -28.976,3.726 0,0 13.246,10.763 33.529,7.451 20.283,-3.312 6.623,-16.972 6.623,-16.972 z" />
        <path
           style="fill:#9b1239"
           inkscape:connector-curvature="0"
           id="path3263"
           d="m 441.12979,330.53264 c 0,0 -67.887,22.352 -105.141,-62.092 0,0 -9.107,-18.627 -21.525,-12.418 l -14.449,10.073 c 0,0 16.104,-19.18 44.253,30.08 0,0 16.971,36.84 48.845,47.603 0,0 19.456,12.004 47.189,-8.279 25.021,-18.3 0.828,-4.967 0.828,-4.967 z" />
      </g>
      <g
         id="twintail-left">
        <g
           id="g3220">
          <path
             style="fill:#e83174"
             inkscape:connector-curvature="0"
             id="path3222"
             d="m 799.31496,449.54316 c 0.323,-78.462 -46.859,-138.145 -46.859,-138.145 0,0 -71.108,-112.841 -106.161,-99.177 0,0 -10.693,5.941 -11.288,10.694 0,0 -10.1,11.882 -16.041,11.882 l 19.605,57.035 16.041,49.905 c 0,0 19.94,45.869 12.644,80.266 0,0 12.903,-24.209 5.18,-70.952 0,0 9.964,21.313 9.778,43.687 1.542,-6.01 3.271,-12.591 4.989,-19.058 4.185,25.508 2.956,58.75 -19.947,87.302 0,0 66.545,-50.286 29.812,-123.769 0.006,-0.021 0.014,-0.048 0.014,-0.048 0,0 51.115,22.03 66.938,97.242 14.045,66.765 10.822,127.009 -25.836,159.708 22.309,-18.747 60.787,-63.138 61.131,-146.572 z" />
          <path
             style="fill:#ce3070"
             inkscape:connector-curvature="0"
             id="path3224"
             d="m 740.15896,594.42016 c 0,0 52.052,-44.679 23.859,-158.015 -19.402,-78.001 -66.951,-97.194 -66.951,-97.194 0,0 54.42,14.183 81.37,102.621 26.43,86.73 -38.278,152.588 -38.278,152.588 z" />
          <path
             style="fill:#ce3070"
             inkscape:connector-curvature="0"
             id="path3226"
             d="m 667.25496,422.00216 c 0,0 1.369,-20.243 0,-35.832 -1.166,-13.277 -4.006,-18.782 -4.006,-18.782 0,0 7.115,3.271 7.883,16.231 1.303,21.985 -3.877,38.383 -3.877,38.383 z" />
          <path
             style="fill:#ce3070"
             inkscape:connector-curvature="0"
             id="path3228"
             d="m 667.25496,462.98016 c 0,0 17.07,-21.148 21.119,-51.774 1.117,-8.453 -1.172,-35.527 -1.172,-35.527 0,0 6.822,22.288 6.106,38.943 -0.854,19.888 -26.053,48.358 -26.053,48.358 z" />
          <path
             style="fill:#ce3070"
             inkscape:connector-curvature="0"
             id="path3230"
             d="m 682.21296,394.73716 c 0,0 -0.499,-13.189 -4.312,-28.516 -1.053,-4.229 -5.467,-15.171 -5.467,-15.171 0,0 5.924,3.438 8.969,11.328 3.64,9.42 0.81,32.359 0.81,32.359 z" />
          <path
             style="fill:#ce3070"
             inkscape:connector-curvature="0"
             id="path3232"
             d="m 660.63796,385.05016 c 0,0 -6.44,-19.458 -6.026,-43.314 0.352,-20.318 0.484,-28.165 0.484,-28.165 0,0 15.458,0.688 14.271,20.758 -2.014,34.04 -8.729,50.721 -8.729,50.721 z" />
          <path
             style="fill:#ce3070"
             inkscape:connector-curvature="0"
             id="path3234"
             d="m 744.99396,300.08816 -85.514,30.87 0.85,10.009 c 0,0 51.923,2.454 71.05,-11.099 8.521,-6.037 22.706,-16.296 22.706,-16.296 l -9.092,-13.484 z" />
          <path
             style="fill:#ce3070"
             inkscape:connector-curvature="0"
             id="path3236"
             d="m 623.93096,232.96816 14.299,24.299 14.322,-18.25 c 0,0 -9.899,-1.176 -12.287,-3.275 -2.604,-2.289 -5.259,-12.827 -5.259,-12.827 l -11.075,10.053" />
        </g>
        <path
           style="fill:#bf102d"
           inkscape:connector-curvature="0"
           id="path3255"
           d="m 644.67729,324.78881 c -9.977,-4.101 -12.711,-66.229 -12.711,-66.229 0,0 16.086,-47.387 63.554,-42.146 32.126,3.546 37.054,9.338 56.195,20.504 9.028,5.797 33.448,21.643 38.801,16.291 0,0 -50.845,66.229 -69.575,68.236 0,-0.001 -43.39,16.859 -76.264,3.344 z" />
        <path
           style="fill:#9b1239"
           inkscape:connector-curvature="0"
           id="path3261"
           d="m 644.32129,317.79481 c 0,0 38.146,6.928 67.474,-1.656 16.97,-4.967 41.393,-23.594 59.607,-45.534 8.481,-10.216 19.114,-17.398 19.114,-17.398 0,0 -43.123,56.723 -61.336,66.244 -18.213,9.521 -55.883,14.487 -74.096,7.451 -18.213,-7.036 -10.763,-9.107 -10.763,-9.107 z" />
        <path
           style="fill:#9b1239"
           inkscape:connector-curvature="0"
           id="path3265"
           d="m 638.70629,284.63281 c 0,0 2.989,-22.41 39.447,-22.41 0,0 -5.378,11.951 -23.907,16.931 0,0 13.147,-4.482 29.883,-0.498 0,0 -13.15,13.943 -33.47,12.948 -20.32,-0.995 -11.953,-6.971 -11.953,-6.971 z" />
      </g>
    </g>
  </g>
</svg>
