<?xml version="1.0" encoding="UTF-8" standalone="no"?>
<!-- Created with Inkscape (http://www.inkscape.org/) -->

<svg
   xmlns:dc="http://purl.org/dc/elements/1.1/"
   xmlns:cc="http://creativecommons.org/ns#"
   xmlns:rdf="http://www.w3.org/1999/02/22-rdf-syntax-ns#"
   xmlns:svg="http://www.w3.org/2000/svg"
   xmlns="http://www.w3.org/2000/svg"
   xmlns:sodipodi="http://sodipodi.sourceforge.net/DTD/sodipodi-0.dtd"
   xmlns:inkscape="http://www.inkscape.org/namespaces/inkscape"
   width="96.066002"
   height="152.00168"
   id="svg3145"
   version="1.1"
   inkscape:version="0.48.4 r9939"
   sodipodi:docname="backhair.svg">
  <defs
     id="defs3147" />
  <sodipodi:namedview
     id="base"
     pagecolor="#ffffff"
     bordercolor="#666666"
     borderopacity="1.0"
     inkscape:pageopacity="0.0"
     inkscape:pageshadow="2"
     inkscape:zoom="3.4407515"
     inkscape:cx="48.033001"
     inkscape:cy="76.000839"
     inkscape:document-units="px"
     inkscape:current-layer="layer1"
     showgrid="false"
     inkscape:window-width="1366"
     inkscape:window-height="714"
     inkscape:window-x="0"
     inkscape:window-y="159"
     inkscape:window-maximized="1"
     fit-margin-top="5"
     fit-margin-left="5"
     fit-margin-right="5"
     fit-margin-bottom="5" />
  <metadata
     id="metadata3150">
    <rdf:RDF>
      <cc:Work
         rdf:about="">
        <dc:format>image/svg+xml</dc:format>
        <dc:type
           rdf:resource="http://purl.org/dc/dcmitype/StillImage" />
        <dc:title></dc:title>
      </cc:Work>
    </rdf:RDF>
  </metadata>
  <g
     inkscape:label="レイヤー 1"
     inkscape:groupmode="layer"
     id="layer1"
     transform="translate(-583.67441,-710.47216)">
    <g
       transform="translate(77.209764,229.57117)"
       id="cloth-b">
      <path
         style="fill:#59071b"
         inkscape:connector-curvature="0"
         id="path3289"
         d="m 517.21665,593.21366 -0.443,13.972 -5.308,14.142 2.587,1.082 -0.721,2.164 6.788,2.704 0.663,-3.245 4.568,0.901 0.391,2.344 7.725,0.181 v -1.534 h 7.991 l 0.181,1.668 9.375,0.31 0.36,-2.296 7.212,-0.607 0.36,2.132 8.654,-0.738 0.181,-1.812 6.851,-0.184 0.18,2.521 7.753,0.179 0.181,-2.704 6.491,-0.09 1.442,2.345 6.852,-2.301 c 0,0 -1.442,-0.249 -2.524,-7.64 -0.645,-4.402 -1.231,-9.09 -1.898,-12.951 -0.666,-3.86 -2.079,-10.557 -2.079,-10.557 l -73.813,0.014 z" />
      <path
         style="fill:#8c5e5e;fill-opacity:1;stroke:none"
         d="m 513.08381,616.97946 -1.125,3 c 2.83653,3.45111 11.90625,4.15625 11.90625,4.15625 l 11,0.25 6.125,0.125 12,0.5 16.5,-1.625 15,0.625 4.875,0 6.6875,-2.3125 c -0.19169,-0.61214 -0.36805,-1.34879 -0.5625,-2.28125 l -8,3.09375 -15,-0.625 -3.75,-0.625 -14.375,1.5 -15.25,-0.5 -4.875,0.375 -11,-0.5 -1.5,-0.5 c 0,0 -7.51005,-1.06364 -8.65625,-4.65625 z"
         id="path4171"
         inkscape:connector-curvature="0" />
      <path
         style="fill:#49071d"
         inkscape:connector-curvature="0"
         id="path3291"
         d="m 587.27965,598.29866 c 3.196,0.299 4.988,0.523 4.988,0.523 -0.26,-1.56 -0.584,-5.717 -0.584,-5.717 l -74.467,0.108 -0.18,5.803 c 0.059,-0.008 0.117,-0.014 0.175,-0.021 l -0.235,5.501 -5.512,16.871 2.587,1.122 c 3.461,-9.518 4.565,-20.564 4.821,-23.695 1.296,-0.156 2.591,-0.302 3.883,-0.438 l -1.975,25.676 4.568,0.901 c 0,0 -1.535,-21.8 0.285,-26.861 2.568,-0.239 5.119,-0.44 7.644,-0.605 -0.223,2.874 -1.181,16.837 0.187,28.458 h 8 c 0,0 -4.357,-17.784 -1.932,-28.801 3.729,-0.165 7.372,-0.262 10.892,-0.3 0.185,1.851 1.771,18.233 0.948,28.782 l 7.212,-0.607 c 0,0 1.127,-16.797 -1.808,-28.188 3.458,0.024 6.757,0.097 9.853,0.201 0.349,1.943 1.903,11.694 1.15,27.569 l 6.851,-0.184 c 0,0 1.425,-0.309 -0.906,-27.078 3.05,0.161 5.792,0.345 8.186,0.526 0.528,2.713 1.752,11.028 0.834,26.548 l 6.491,-0.09 c 0.002,0.001 -2.449,-2.683 -1.956,-26.004 z" />
      <path
         style="fill:#6e3636;fill-opacity:1;stroke:none"
         d="m 512.58381,617.88571 -0.4375,1.375 2.59375,1.21875 c 0.17578,-0.54247 0.33808,-1.07875 0.5,-1.625 l -2.65625,-0.96875 z m 75.5,2.25 -5.1875,0.6875 c -0.0275,0.67284 -0.0575,1.35841 -0.0937,2.0625 l 5.875,0 c -0.18275,-0.62432 -0.39276,-1.46788 -0.59375,-2.75 z m -20.15625,0.15625 c -0.0115,0.48472 -0.0466,1.00168 -0.0625,1.5 l 7.125,0.53125 c 0.0176,-0.27752 0.0197,-0.57628 0.0312,-0.9375 l -7.09375,-1.09375 z m -9.1875,0.4375 -7.1875,0.8125 c -0.0141,0.56015 -0.039,1.11386 -0.0625,1.65625 l 7.1875,-0.46875 c 0.026,-0.62875 0.0411,-1.11872 0.0625,-2 z m -37.71875,0.15625 -0.125,1.40625 4.28125,0.34375 c -0.0377,-0.62018 -0.0463,-0.76188 -0.0937,-1.65625 l -4.0625,-0.0937 z m 12.03125,0.78125 c 0.0401,0.56243 0.10722,1.12968 0.15625,1.6875 l 7.59375,-0.34375 c -0.0782,-0.38728 -0.16443,-0.89422 -0.25,-1.34375 -1.05671,0.0714 -4.75405,0.30986 -7.5,0 z"
         id="path4180"
         inkscape:connector-curvature="0" />
    </g>
    <g
       transform="translate(77.209764,229.57117)"
       id="cloth-t">
      <path
         style="fill:#161111"
         inkscape:connector-curvature="0"
         id="path3294"
         d="m 592.0415,599.4595 c 0,0 1.957,-1.811 2.032,-2.692 0.079,-0.924 -1.324,-3.102 -1.324,-3.102 0,0 0.629,-1.65 0.594,-2.326 -0.039,-0.753 -1.128,-2.055 -1.141,-2.455 -2.096,-68.455 -10.63,-97.425 -10.63,-97.425 h -54.185 c 0,0 -9.748,29.916 -9.856,97.528 0,0.071 -1.432,2.348 -1.227,3.216 0.109,0.463 0.246,1.554 0.246,1.554 0,0 -1.166,2.229 -1.165,2.305 0.01,1.132 1.901,3.392 1.901,3.392 l 74.755,0.005 z" />
      <path
         style="fill:#2b2626"
         inkscape:connector-curvature="0"
         id="path3296"
         d="m 594.0735,596.7675 c 0,0 -11.612,1.733 -37.813,2.704 -26.201,0.971 0,0 0,0 l 35.781,-0.012 c 0,0 1.306,-1.238 2.032,-2.692" />
      <path
         style="fill:#2b2626"
         inkscape:connector-curvature="0"
         id="path3298"
         d="m 593.3435,591.3395 c 0,0 -19.541,5.505 -31.677,4.805 14.417,0.832 17.745,0 24.676,-0.831 l 6.407,-1.647 0.594,-2.327 z" />
      <path
         style="fill:#2b2626"
         inkscape:connector-curvature="0"
         id="path3300"
         d="m 515.3855,596.0625 c 0,0 7.188,2.438 37.548,3.409 l -35.647,-0.018 c -0.001,0 -1.465,-1.117 -1.901,-3.391 z" />
      <path
         style="fill:#2b2626"
         inkscape:connector-curvature="0"
         id="path3302"
         d="m 516.3045,592.2035 c 0,0 11.397,3.941 31.083,3.941 0,0 -21.487,0.276 -30.775,-1.941 l -0.308,-2 z" />
      <path
         style="fill:#2b2626;stroke:none"
         d="m 533.83473,494.80435 c -1.48196,8.78591 6.78125,11.65625 6.78125,11.65625 0,0 -2.19522,-0.9783 -4.09375,-3.6875 1.58053,1.29544 3.44163,1.67941 4.125,1.78125 -0.84126,-0.2129 -3.6225,-1.19187 -5.625,-4.625 -0.57148,-1.42145 -1.02119,-3.10556 -1.1875,-5.125 z"
         id="path3105"
         inkscape:connector-curvature="0" />
      <path
         inkscape:connector-curvature="0"
         id="path3110"
         d="m 575.66588,495.01606 c 1.48196,8.78591 -6.78125,11.65625 -6.78125,11.65625 0,0 2.19522,-0.9783 4.09375,-3.6875 -1.58053,1.29544 -3.44163,1.67941 -4.125,1.78125 0.84126,-0.2129 3.6225,-1.19187 5.625,-4.625 0.57148,-1.42145 1.02119,-3.10556 1.1875,-5.125 z"
         style="fill:#2b2626;stroke:none" />
      <ellipse
         style="fill:#59071b"
         sodipodi:ry="10.899"
         sodipodi:rx="21.194"
         sodipodi:cy="496.79999"
         sodipodi:cx="554.87"
         id="ellipse3304"
         ry="10.899"
         rx="21.194"
         cy="496.79999"
         cx="554.87"
         d="m 576.064,496.79999 c 0,6.01935 -9.48888,10.899 -21.194,10.899 -11.70513,0 -21.19401,-4.87965 -21.19401,-10.899 0,-6.01935 9.48888,-10.899 21.19401,-10.899 11.70512,0 21.194,4.87965 21.194,10.899 z" />
      <path
         style="fill:#49071d"
         d="m 554.87501,490.68619 c -9.06135,0 -16.78145,0.94437 -19.8125,2.28125 -0.44851,0.60767 -0.83015,1.22096 -1.0625,1.875 1.74148,1.66322 10.42446,2.9375 20.875,2.9375 10.4415,0 19.09179,-1.2764 20.84375,-2.9375 -0.23235,-0.65404 -0.58274,-1.26733 -1.03125,-1.875 -3.03105,-1.33688 -10.75116,-2.28125 -19.8125,-2.28125 z"
         id="ellipse3093"
         inkscape:connector-curvature="0" />
      <path
         style="fill:none;stroke:#9a9e8f;stroke-width:2;stroke-miterlimit:10"
         inkscape:connector-curvature="0"
         id="path3306"
         d="m 539.3105,493.1735 c 0,0 13.558,37.104 30.684,-0.357"
         stroke-miterlimit="10" />
      <path
         inkscape:connector-curvature="0"
         style="font-size:20px;font-style:normal;font-weight:normal;line-height:125%;letter-spacing:0px;word-spacing:0px;fill:#3a272f;fill-opacity:1;stroke:none;font-family:'Rounded M+ 2p black';-inkscape-font-specification:'Rounded M+ 2p black'"
         d="m 220.65625,318.625 c -0.51856,4.56823 -0.97639,9.63142 -1.40625,15.09375 0.0255,0.0302 0.0335,0.0647 0.0625,0.0937 0.2417,0.2417 0.51654,0.375 0.84375,0.375 l 1.84375,0 c 0.32719,0 0.60203,-0.1333 0.84375,-0.375 0.24171,-0.24172 0.37499,-0.51654 0.375,-0.84375 l 0,-4.5625 c -1e-5,-0.12802 0.0595,-0.1875 0.1875,-0.1875 l 3.90625,0 c 0.32719,0 0.63329,-0.13329 0.875,-0.375 0.2417,-0.24171 0.34373,-0.51654 0.34375,-0.84375 l 0,-0.78125 c -2e-5,-0.32719 -0.10205,-0.60202 -0.34375,-0.84375 -0.24171,-0.24169 -0.54781,-0.37498 -0.875,-0.375 l -3.90625,0 c -0.12802,2e-5 -0.18751,-0.0595 -0.1875,-0.1875 l 0,-2.625 c -1e-5,-0.11374 0.0595,-0.15624 0.1875,-0.15625 l 4.34375,0 c 0.32718,10e-6 0.60203,-0.13328 0.84375,-0.375 0.2417,-0.24169 0.37498,-0.51655 0.375,-0.84375 l 0,-1 c -2e-5,-0.32718 -0.1333,-0.60202 -0.375,-0.84375 -0.24172,-0.2417 -0.51657,-0.34373 -0.84375,-0.34375 l -7.09375,0 z"
         transform="translate(300,210)"
         id="path3297" />
      <path
         style="font-size:20px;font-style:normal;font-weight:normal;line-height:125%;letter-spacing:0px;word-spacing:0px;fill:#3a272f;fill-opacity:1;stroke:none;font-family:'Rounded M+ 2p black';-inkscape-font-specification:'Rounded M+ 2p black'"
         d="m 530.86075,546.40702 0,1.25 c 0,0.32721 0.10204,0.60203 0.34375,0.84375 0.24171,0.2417 0.54779,0.375 0.875,0.375 l 7.78125,0 c 0.3272,0 0.63328,-0.1333 0.875,-0.375 0.2417,-0.24172 0.34374,-0.51654 0.34375,-0.84375 l 0,-0.96875 c 0,-0.0344 -0.0286,-0.0603 -0.0312,-0.0937 -2.14186,0.14125 -4.25577,0.2623 -6.15625,0.21875 -1.50964,-0.0346 -2.74717,-0.22712 -4.03125,-0.40625 z"
         id="path3326"
         inkscape:connector-curvature="0" />
      <path
         style="font-size:20px;font-style:normal;font-weight:normal;line-height:125%;letter-spacing:0px;word-spacing:0px;fill:#3a272f;fill-opacity:1;stroke:none;font-family:'Rounded M+ 2p black';-inkscape-font-specification:'Rounded M+ 2p black'"
         d="m 531.35447,546.25796 c 1.28408,0.17913 2.52161,0.37165 4.03125,0.40625 1.90048,0.0435 4.01439,-0.0775 6.15625,-0.21875 -0.0227,-0.28483 -0.0962,-0.5649 -0.3125,-0.78125 -0.24172,-0.2417 -0.5478,-0.34375 -0.875,-0.34375 l -4.5625,0 c -0.12802,0 -0.18751,-0.0907 -0.1875,-0.21875 l 0,-2.59375 c -10e-6,-0.11374 0.0595,-0.1875 0.1875,-0.1875 l 4.15625,0 c 0.32675,0 0.60203,-0.13306 0.84375,-0.375 0.24171,-0.24192 0.37499,-0.51698 0.375,-0.84375 l 0,-0.75 c -10e-6,-0.32675 -0.13329,-0.63307 -0.375,-0.875 -0.24172,-0.24192 -0.517,-0.34374 -0.84375,-0.34375 l -4.15625,0 c -0.12802,10e-6 -0.18751,-0.0595 -0.1875,-0.1875 l 0,-2.21875 c -10e-6,-0.11374 0.0595,-0.15624 0.1875,-0.15625 l 4.5625,0 c 0.3272,10e-6 0.63328,-0.13328 0.875,-0.375 0.2417,-0.24169 0.34374,-0.51655 0.34375,-0.84375 l 0,-1 c -10e-6,-0.32718 -0.10205,-0.60202 -0.34375,-0.84375 -0.24172,-0.2417 -0.5478,-0.34373 -0.875,-0.34375 l -7.78125,0 c -0.32721,2e-5 -0.63329,0.10205 -0.875,0.34375 -0.24171,0.24173 -0.34375,0.51657 -0.34375,0.84375 l 0,11.90625 z"
         id="path3299"
         inkscape:connector-curvature="0" />
      <path
         style="font-size:20px;font-style:normal;font-weight:normal;line-height:125%;letter-spacing:0px;word-spacing:0px;fill:#3a272f;fill-opacity:1;stroke:none;font-family:'Rounded M+ 2p black';-inkscape-font-specification:'Rounded M+ 2p black'"
         d="m 557.46783,544.91222 0.21875,3 c 0.0139,0.34153 0.15019,0.64045 0.40625,0.875 0.256,0.23455 0.53347,0.34375 0.875,0.34375 l 1.8125,0 c 0.32718,0 0.57511,-0.1333 0.78125,-0.375 0.2061,-0.24172 0.2926,-0.49963 0.25,-0.8125 l -0.46875,-3.71875 c -0.84404,0.16037 -1.37704,0.31234 -2.25,0.46875 -0.52696,0.0944 -1.08995,0.12671 -1.625,0.21875 z"
         id="path3333"
         inkscape:connector-curvature="0" />
      <path
         style="font-size:20px;font-style:normal;font-weight:normal;line-height:125%;letter-spacing:0px;word-spacing:0px;fill:#3a272f;fill-opacity:1;stroke:none;font-family:'Rounded M+ 2p black';-inkscape-font-specification:'Rounded M+ 2p black'"
         d="m 550.59283,546.13097 0.40625,2.0625 c 0.0707,0.34108 0.23681,0.61615 0.5,0.84375 0.26319,0.22761 0.55084,0.34375 0.90625,0.34375 l 1.875,0 c 0.35539,0 0.67451,-0.11614 0.9375,-0.34375 0.26296,-0.2276 0.4289,-0.50267 0.5,-0.84375 l 0.53125,-2.8125 c -1.88324,0.30976 -3.74719,0.49653 -5.65625,0.75 z"
         id="path3331"
         inkscape:connector-curvature="0" />
      <path
         style="font-size:20px;font-style:normal;font-weight:normal;line-height:125%;letter-spacing:0px;word-spacing:0px;fill:#3a272f;fill-opacity:1;stroke:none;font-family:'Rounded M+ 2p black';-inkscape-font-specification:'Rounded M+ 2p black'"
         d="m 544.96783,546.47472 -0.15625,1.28125 c -0.0425,0.31287 0.0367,0.57078 0.25,0.8125 0.21328,0.2417 0.48531,0.375 0.8125,0.375 l 1.71875,0 c 0.3415,0 0.65043,-0.1092 0.90625,-0.34375 0.25581,-0.23455 0.39195,-0.53347 0.40625,-0.875 l 0.125,-1.78125 c -1.36492,0.16453 -2.73164,0.4138 -4.0625,0.53125 z"
         id="path3329"
         inkscape:connector-curvature="0" />
      <path
         style="font-size:20px;font-style:normal;font-weight:normal;line-height:125%;letter-spacing:0px;word-spacing:0px;fill:#3a272f;fill-opacity:1;stroke:none;font-family:'Rounded M+ 2p black';-inkscape-font-specification:'Rounded M+ 2p black'"
         d="m 545.22227,546.22027 c 1.33086,-0.11745 2.69758,-0.36672 4.0625,-0.53125 l 0.46875,-6.78125 c 0,-0.0138 0.0169,-0.0312 0.0312,-0.0312 0.0287,0 0.0625,0.0174 0.0625,0.0312 l 1.25,6.53125 c 1.90906,-0.25347 3.77301,-0.44024 5.65625,-0.75 l 1.125,-5.78125 c -10e-5,-0.0138 0.0169,-0.0312 0.0312,-0.0312 0.0282,0 0.0312,0.0174 0.0312,0.0312 l 0.40625,5.5625 c 0.53505,-0.092 1.09804,-0.12434 1.625,-0.21875 0.87296,-0.15641 1.40596,-0.30838 2.25,-0.46875 l -1.15625,-9.46875 c -0.0426,-0.34107 -0.18149,-0.61613 -0.4375,-0.84375 -0.25605,-0.22758 -0.56518,-0.34373 -0.90625,-0.34375 l -2.6875,0 c -0.35541,2e-5 -0.68169,0.11617 -0.9375,0.34375 -0.25582,0.22762 -0.4289,0.50268 -0.5,0.84375 l -1.65625,9.65625 c 0,0.0144 -0.0343,0.0312 -0.0625,0.0312 -0.0145,0 0,-0.0169 0,-0.0312 l -1.6875,-9.65625 c -0.0712,-0.34107 -0.24419,-0.61613 -0.5,-0.84375 -0.25581,-0.22758 -0.55041,-0.34373 -0.90625,-0.34375 l -2.71875,0 c -0.34151,2e-5 -0.65043,0.11617 -0.90625,0.34375 -0.25581,0.22762 -0.3945,0.50268 -0.4375,0.84375 l -1.5,11.90625 z"
         id="path3301"
         inkscape:connector-curvature="0" />
      <path
         style="font-size:20px;font-style:normal;font-weight:normal;line-height:125%;letter-spacing:0px;word-spacing:0px;fill:#3a272f;fill-opacity:1;stroke:none;font-family:'Rounded M+ 2p black';-inkscape-font-specification:'Rounded M+ 2p black'"
         d="m 573.60707,539.29809 c 2.58356,-0.59509 3.56615,-0.85724 4.25,-1.03125 l 0,-6.15625 c -2e-5,-0.32718 -0.1333,-0.60202 -0.375,-0.84375 -0.24171,-0.2417 -0.51657,-0.34373 -0.84375,-0.34375 l -1.8125,0 c -0.32721,2e-5 -0.60205,0.10205 -0.84375,0.34375 -0.24172,0.24173 -0.37501,0.51657 -0.375,0.84375 l 0,7.1875 z"
         id="path3338"
         inkscape:connector-curvature="0" />
      <path
         style="font-size:20px;font-style:normal;font-weight:normal;line-height:125%;letter-spacing:0px;word-spacing:0px;fill:#3a272f;fill-opacity:1;stroke:none;font-family:'Rounded M+ 2p black';-inkscape-font-specification:'Rounded M+ 2p black'"
         d="m 564.37408,542.02037 c 0.15417,1.66134 0.61459,3.04017 1.53125,3.96875 1.10201,1.11633 2.68807,1.6875 4.75,1.6875 2.0619,0 3.64797,-0.57117 4.75,-1.6875 1.10201,-1.11634 1.65623,-2.76211 1.65625,-4.9375 l 0,-1.8125 c -0.68385,0.17401 -1.66644,0.43616 -4.25,1.03125 l 0,1.09375 c -1e-5,1.00981 -0.17586,1.76376 -0.53125,2.21875 -0.35542,0.455 -0.88273,0.65626 -1.59375,0.65625 -0.71103,1e-5 -1.23835,-0.20125 -1.59375,-0.65625 -0.35542,-0.45499 -0.53125,-1.20894 -0.53125,-2.21875 l 0,-0.21875 c -1.31136,0.2843 -2.69999,0.57547 -4.1875,0.875 z"
         id="path3336"
         inkscape:connector-curvature="0" />
      <path
         style="font-size:20px;font-style:normal;font-weight:normal;line-height:125%;letter-spacing:0px;word-spacing:0px;fill:#3a272f;fill-opacity:1;stroke:none;font-family:'Rounded M+ 2p black';-inkscape-font-specification:'Rounded M+ 2p black'"
         d="m 564.9928,541.57842 c 1.48751,-0.29953 2.87614,-0.5907 4.1875,-0.875 l 0,-8.0625 c 0,-0.32718 -0.13309,-0.60202 -0.375,-0.84375 -0.24194,-0.2417 -0.51699,-0.34373 -0.84375,-0.34375 l -1.875,0 c -0.3272,2e-5 -0.60204,0.10205 -0.84375,0.34375 -0.2417,0.24173 -0.37501,0.51657 -0.375,0.84375 l 0,7.96875 c 0,0.36588 0.0938,0.63283 0.125,0.96875 z"
         id="path3303"
         inkscape:connector-curvature="0" />
      <path
         inkscape:connector-curvature="0"
         style="font-size:20px;font-style:normal;font-weight:normal;line-height:125%;letter-spacing:0px;word-spacing:0px;fill:#3a272f;fill-opacity:1;stroke:none;font-family:'Rounded M+ 2p black';-inkscape-font-specification:'Rounded M+ 2p black'"
         d="m 280.65625,318.625 c -0.32721,2e-5 -0.63329,0.10205 -0.875,0.34375 -0.24171,0.24173 -0.34375,0.51657 -0.34375,0.84375 l 0,13.15625 c 0,0.32721 0.10204,0.60203 0.34375,0.84375 0.24171,0.2417 0.54779,0.375 0.875,0.375 l 1.71875,0 c 0.32719,0 0.60203,-0.1333 0.84375,-0.375 0.24171,-0.24172 0.37499,-0.51654 0.375,-0.84375 l 0,-4.03125 c -10e-6,-0.12803 0.0595,-0.18749 0.1875,-0.1875 l 0.78125,0 c 0.39835,10e-6 0.69579,0.0992 0.9375,0.3125 0.24171,0.21329 0.43751,0.56476 0.59375,1.0625 l 0.9375,2.90625 c 0.0998,0.34108 0.32643,0.63047 0.625,0.84375 0.29853,0.21329 0.63026,0.3125 1,0.3125 l 0.9375,0 c -0.19896,-2.21755 -0.38541,-4.3069 -0.59375,-6.375 -0.17597,-0.15286 -0.38047,-0.28539 -0.59375,-0.40625 -0.0138,0 -0.0313,-0.0338 -0.0312,-0.0625 0,-0.0145 0.0174,2e-5 0.0312,0 0.1787,-0.0684 0.36534,-0.13064 0.53125,-0.21875 -0.28991,-2.84406 -0.60525,-5.56316 -0.90625,-8.125 -0.94436,-0.25242 -2.08632,-0.37499 -3.46875,-0.375 l -3.90625,0 z m 3.125,3.1875 0.96875,0 c 0.85313,10e-6 1.45686,0.12898 1.8125,0.40625 0.3556,0.27732 0.53124,0.7523 0.53125,1.40625 -10e-6,0.62577 -0.20538,1.1062 -0.625,1.46875 -0.41964,0.36258 -0.99362,0.56251 -1.71875,0.5625 l -0.96875,0 c -0.12802,10e-6 -0.18751,-0.0595 -0.1875,-0.1875 l 0,-3.5 c -10e-6,-0.11364 0.0595,-0.15624 0.1875,-0.15625 z"
         transform="translate(300,210)"
         id="path3305" />
      <g
         id="g3308">
        <path
           style="fill:#f3ffff"
           inkscape:connector-curvature="0"
           id="path3310"
           d="m 571.93738,518.08339 c 0,-8.698 -8.171,-15.75 -18.25,-15.75 -10.079,0 -18.25,7.052 -18.25,15.75 0,6.659 4.65,9.563 11.35,10.561 l -0.85,5.439 h 16 l -0.873,-5.587 c 6.361,-1.121 10.873,-4.053 10.873,-10.413 z" />
        <path
           style="fill:#191d23"
           d="m 552.51048,517.20808 c -0.57874,2.48528 -3.62226,4.5 -6.7979,4.5 -3.17564,0 -5.28084,-2.01472 -4.7021,-4.5 0.57874,-2.48528 3.62226,-4.5 6.7979,-4.5 3.17564,0 5.28084,2.01472 4.7021,4.5 z"
           id="ellipse3312"
           inkscape:connector-curvature="0" />
        <path
           style="fill:#191d23"
           d="m 565.91168,517.20808 c 0.66142,2.48528 -1.37676,4.5 -4.5524,4.5 -3.17564,0 -6.28618,-2.01472 -6.9476,-4.5 -0.66142,-2.48528 1.37676,-4.5 4.5524,-4.5 3.17564,0 6.28618,2.01472 6.9476,4.5 z"
           id="ellipse3314"
           inkscape:connector-curvature="0" />
        <g
           id="g3316">
          <path
             style="fill:#191d23"
             inkscape:connector-curvature="0"
             id="path3322"
             d="m 547.91018,531.45838 c 4,0 8,0 12,0 0.193,0 0.193,-0.301 0,-0.301 -4,0 -8,0 -12,0 -0.193,10e-4 -0.193,0.301 0,0.301 l 0,0 z" />
          <path
             style="fill:#191d23"
             inkscape:connector-curvature="0"
             id="path3328"
             d="m 549.76018,530.20938 c 0,0.699 0,1.399 0,2.099 0,0.193 0.3,0.193 0.3,0 0,-0.699 0,-1.399 0,-2.099 0,-0.193 -0.3,-0.193 -0.3,0 l 0,0 z" />
          <path
             style="fill:#191d23"
             inkscape:connector-curvature="0"
             id="path3334"
             d="m 552.76018,530.20938 c 0,0.699 0,1.399 0,2.099 0,0.193 0.3,0.193 0.3,0 0,-0.699 0,-1.399 0,-2.099 0,-0.193 -0.3,-0.193 -0.3,0 l 0,0 z" />
          <path
             style="fill:#191d23"
             inkscape:connector-curvature="0"
             id="path3340"
             d="m 555.76018,530.20938 c 0,0.699 0,1.399 0,2.099 0,0.193 0.3,0.193 0.3,0 0,-0.699 0,-1.399 0,-2.099 0,-0.193 -0.3,-0.193 -0.3,0 l 0,0 z" />
          <path
             style="fill:#191d23"
             inkscape:connector-curvature="0"
             id="path3346"
             d="m 557.76018,530.20938 c 0,0.699 0,1.399 0,2.099 0,0.193 0.3,0.193 0.3,0 0,-0.699 0,-1.399 0,-2.099 0,-0.193 -0.3,-0.193 -0.3,0 l 0,0 z" />
        </g>
      </g>
      <path
         style="fill:#2b2626;stroke:none"
         d="m 522.92029,580.98501 c 5.081,9.7386 32.17971,10.79714 32.17971,10.79714 0,0 -22.0177,-1.05854 -32.17971,-10.79714 z"
         id="path3091"
         inkscape:connector-curvature="0" />
      <path
         style="fill:#2b2626;stroke:none"
         d="m 552.7712,588.39481 c 26.04016,0.84683 34.08509,-11.43227 34.08509,-11.43227 0,0 -6.98639,9.95031 -34.08509,11.43227 z"
         id="path3093"
         inkscape:connector-curvature="0" />
      <path
         inkscape:connector-curvature="0"
         style="fill:#3a272f"
         d="m 284.3125,330.4375 c -6.19208,0.41326 -11.95664,6.33988 -12.90625,13.21875 -0.727,5.26631 1.80529,7.36043 5.8125,7.875 l -1.125,4.34375 0.0312,0 1.90625,-3.75 0.0625,3.25 2.125,-3.84375 -0.0312,4.0625 0.15625,0 1.125,-2.0625 0,1.96875 0.375,0 1.75,-3.21875 -0.0312,3.09375 0.125,0 1.15625,-2.09375 0,0.125 1.15625,-2.09375 0,-0.5 c 0.10587,-0.0301 0.20796,-0.0618 0.3125,-0.0937 l 0.0312,-0.0312 c 1.66334,-0.51359 3.13002,-1.2657 4.34375,-2.34375 -0.15415,-2.25557 -0.30258,-4.46112 -0.46875,-6.59375 0.11705,1.92473 -1.34087,3.55799 -3.28125,3.6875 -1.95098,0.13018 -3.64624,-1.31162 -3.78125,-3.25 -0.13502,-1.93839 1.33028,-3.6198 3.28125,-3.75 1.94024,-0.12947 3.62994,1.32741 3.78125,3.25 -0.27783,-3.56136 -0.57106,-6.93287 -0.875,-10.15625 -1.43767,-0.81699 -3.1387,-1.22006 -5.03125,-1.09375 z m -4.71875,8.4375 c 1.95096,-0.13018 3.00189,1.38578 2.375,3.375 -0.62688,1.98923 -2.70529,3.71353 -4.65625,3.84375 -1.95097,0.13018 -3.03313,-1.38578 -2.40625,-3.375 0.62689,-1.98923 2.73652,-3.71354 4.6875,-3.84375 z"
         transform="translate(300,210)"
         id="path3310-6" />
    </g>
  </g>
</svg>
