<?xml version="1.0" encoding="UTF-8" standalone="no"?>
<!-- Created with Inkscape (http://www.inkscape.org/) -->

<svg
   xmlns:dc="http://purl.org/dc/elements/1.1/"
   xmlns:cc="http://creativecommons.org/ns#"
   xmlns:rdf="http://www.w3.org/1999/02/22-rdf-syntax-ns#"
   xmlns:svg="http://www.w3.org/2000/svg"
   xmlns="http://www.w3.org/2000/svg"
   xmlns:sodipodi="http://sodipodi.sourceforge.net/DTD/sodipodi-0.dtd"
   xmlns:inkscape="http://www.inkscape.org/namespaces/inkscape"
   width="240.1405"
   height="318.89407"
   id="svg3145"
   version="1.1"
   inkscape:version="0.48.4 r9939"
   sodipodi:docname="新規ドキュメント 2">
  <defs
     id="defs3147" />
  <sodipodi:namedview
     id="base"
     pagecolor="#ffffff"
     bordercolor="#666666"
     borderopacity="1.0"
     inkscape:pageopacity="0.0"
     inkscape:pageshadow="2"
     inkscape:zoom="0.35"
     inkscape:cx="120.07025"
     inkscape:cy="159.44704"
     inkscape:document-units="px"
     inkscape:current-layer="layer1"
     showgrid="false"
     inkscape:window-width="1366"
     inkscape:window-height="714"
     inkscape:window-x="0"
     inkscape:window-y="159"
     inkscape:window-maximized="1"
     fit-margin-top="5"
     fit-margin-left="5"
     fit-margin-right="5"
     fit-margin-bottom="5" />
  <metadata
     id="metadata3150">
    <rdf:RDF>
      <cc:Work
         rdf:about="">
        <dc:format>image/svg+xml</dc:format>
        <dc:type
           rdf:resource="http://purl.org/dc/dcmitype/StillImage" />
        <dc:title></dc:title>
      </cc:Work>
    </rdf:RDF>
  </metadata>
  <g
     inkscape:label="レイヤー 1"
     inkscape:groupmode="layer"
     id="layer1"
     transform="translate(-254.92975,-352.91514)">
    <g
       transform="translate(-175.01059,132.22539)"
       id="forehair"
       class="head">
      <path
         style="fill:#e83174"
         inkscape:connector-curvature="0"
         id="path3389"
         d="m 530.346,293.66583 c -35.333,89.667 -32.667,130 -32.667,130 -13.335,-35.077 -12.36,-68.828 -7.002,-95.776 -20.028,20.423 -26.297,92.109 -26.297,92.109 -1.244,-2.752 -2.256,-5.668 -3.091,-8.668 -3.909,79.443 18.434,123.253 18.434,123.253 -32.963,-33.471 -40.006,-98.432 -42.5,-106.655 -2.049,-6.759 -6.086,-74.09 6.456,-125.209 12.542,-51.119 48.482,-62.008 48.482,-62.008 l 3.465,-1.326 c 0,0 18.934,-14.659 66.312,-7.533 l 2.958,-1.554 c 0,0 40.292,-12.171 59.157,3.043 18.865,15.214 43.817,99.197 40.774,166.657 -2.13,47.214 -21.249,104.095 -32.535,133.988 6.501,-21.335 11.937,-54.01 13.67,-103.228 2.435,-69.136 -17.291,-102.015 -17.291,-102.015 h -0.001 c 4.881,32.646 -7.051,63.587 -7.051,63.587 6.694,-32.709 -16.213,-76.472 -16.213,-76.472 l 0.035,-0.017 -0.585,-1.234 c 2.007,12.531 2.766,28.792 0.55,48.057 -3.232,28.11 -5.896,32.546 -6.964,33.128 0.574,-5.448 3.366,-35.503 -1.764,-61.461 -3.808,-19.268 -12.583,-36.664 -19.853,-44.963 l -3.164,-0.815 c -6.556,134.642 -21.982,129.015 -21.982,129.015 -25.185,-35.539 -23.138,-101.209 -20.879,-129.431" />
      <path
         style="fill:#ce3070"
         inkscape:connector-curvature="0"
         id="path3391"
         d="m 628.671,328.74483 c 0,0 24.713,21.232 24.713,92.512 0,40.279 -21.092,112.73 -21.092,112.73 0,0 18.148,-65.901 13.456,-131.034 -4.379,-60.779 -17.077,-74.208 -17.077,-74.208" />
      <path
         style="fill:#ce3070"
         inkscape:connector-curvature="0"
         id="path3393"
         d="m 460.289,411.33083 c 0,0 -1.438,36.418 2.622,64.341 4.619,31.777 15.812,58.912 15.812,58.912 0,0 -18.766,-26.777 -21.479,-58.912 -3.187,-37.741 3.045,-64.341 3.045,-64.341 z" />
      <path
         style="fill:#ce3070"
         inkscape:connector-curvature="0"
         id="path3395"
         d="m 460.289,411.33083 c 0,0 -21.966,-65.552 13.74,-120.143 0,0 -31.38,25.88 -25.117,80.311 2.895,25.164 11.377,39.832 11.377,39.832 z" />
      <path
         style="fill:#ce3070"
         inkscape:connector-curvature="0"
         id="path3397"
         d="m 496.634,421.25683 c 0,0 -17.912,-101.196 19.261,-132.068 0,0 -32.931,15.65 -29.851,80.127 1.607,33.65 10.59,51.941 10.59,51.941 z" />
      <path
         style="fill:#ce3070"
         inkscape:connector-curvature="0"
         id="path3399"
         d="m 551.634,417.25683 c 0,0 -44.849,-53.985 -14.605,-153.361 -1.01,35.765 -4.446,58.925 -2.1,83.985 4.597,49.102 16.705,69.376 16.705,69.376 z" />
      <path
         style="fill:#ce3070"
         inkscape:connector-curvature="0"
         id="path3401"
         d="m 598.442,395.79383 c 4.935,-60.616 -3.198,-71.534 -24.78,-107.24 46.135,3.693 24.78,107.24 24.78,107.24 z" />
      <path
         style="fill:#ce3070"
         inkscape:connector-curvature="0"
         id="path3403"
         d="m 604.856,314.60883 c 0,0 11.411,15.319 16.66,34.815 5.249,19.496 0.104,42.908 0.104,42.908 0,0 2.338,-15.987 -2.828,-41.095" />
    </g>
  </g>
</svg>
