<?xml version="1.0" encoding="UTF-8" standalone="no"?>
<!-- Created with Inkscape (http://www.inkscape.org/) -->

<svg
   xmlns:dc="http://purl.org/dc/elements/1.1/"
   xmlns:cc="http://creativecommons.org/ns#"
   xmlns:rdf="http://www.w3.org/1999/02/22-rdf-syntax-ns#"
   xmlns:svg="http://www.w3.org/2000/svg"
   xmlns="http://www.w3.org/2000/svg"
   xmlns:sodipodi="http://sodipodi.sourceforge.net/DTD/sodipodi-0.dtd"
   xmlns:inkscape="http://www.inkscape.org/namespaces/inkscape"
   width="204.37653"
   height="74.5"
   id="svg3145"
   version="1.1"
   inkscape:version="0.48.4 r9939"
   sodipodi:docname="backhair.svg">
  <defs
     id="defs3147" />
  <sodipodi:namedview
     id="base"
     pagecolor="#ffffff"
     bordercolor="#666666"
     borderopacity="1.0"
     inkscape:pageopacity="0.0"
     inkscape:pageshadow="2"
     inkscape:zoom="0.35"
     inkscape:cx="-483.09058"
     inkscape:cy="105.64653"
     inkscape:document-units="px"
     inkscape:current-layer="layer1"
     showgrid="false"
     inkscape:window-width="1366"
     inkscape:window-height="714"
     inkscape:window-x="0"
     inkscape:window-y="159"
     inkscape:window-maximized="1"
     fit-margin-top="5"
     fit-margin-left="5"
     fit-margin-right="5"
     fit-margin-bottom="5" />
  <metadata
     id="metadata3150">
    <rdf:RDF>
      <cc:Work
         rdf:about="">
        <dc:format>image/svg+xml</dc:format>
        <dc:type
           rdf:resource="http://purl.org/dc/dcmitype/StillImage" />
        <dc:title />
      </cc:Work>
    </rdf:RDF>
  </metadata>
  <g
     inkscape:label="レイヤー 1"
     inkscape:groupmode="layer"
     id="layer1"
     transform="translate(-858.09058,-543.50871)">
    <g
       id="backhair"
       transform="translate(411.2171,95.50871)"
       class="head">
      <path
         sodipodi:nodetypes="cccccccccccccccccccccccccccc"
         inkscape:connector-curvature="0"
         id="polygon3710"
         d="m 498.741,504.992 6.352,8.968 3.363,-11.957 4.857,13.452 11.584,-9.716 58.655,-2.821 5.615,11.042 5.605,-11.583 5.605,11.21 4.484,-11.958 5.979,11.584 7.473,-10.836 2.616,12.704 7.473,-14.572 2.993,15.83 8.105,-15.852 1.25,17.013 5.5,-23.25 L 644,453 l -187,0.25 -5.12652,30.12686 10.99552,30.95714 3.736,-19.057 13.089,20.723 0.409,0 1.449,-18.481 14.199,17.562 z"
         style="fill:#47352c" />
    </g>
  </g>
</svg>
