<?xml version="1.0" encoding="UTF-8" standalone="no"?>
<!-- Created with Inkscape (http://www.inkscape.org/) -->

<svg
   xmlns:dc="http://purl.org/dc/elements/1.1/"
   xmlns:cc="http://creativecommons.org/ns#"
   xmlns:rdf="http://www.w3.org/1999/02/22-rdf-syntax-ns#"
   xmlns:svg="http://www.w3.org/2000/svg"
   xmlns="http://www.w3.org/2000/svg"
   xmlns:sodipodi="http://sodipodi.sourceforge.net/DTD/sodipodi-0.dtd"
   xmlns:inkscape="http://www.inkscape.org/namespaces/inkscape"
   width="95.357735"
   height="155.86192"
   id="svg3145"
   version="1.1"
   inkscape:version="0.48.4 r9939"
   sodipodi:docname="body.svg">
  <defs
     id="defs3147" />
  <sodipodi:namedview
     id="base"
     pagecolor="#ffffff"
     bordercolor="#666666"
     borderopacity="1.0"
     inkscape:pageopacity="0.0"
     inkscape:pageshadow="2"
     inkscape:zoom="6.8815029"
     inkscape:cx="52.290491"
     inkscape:cy="17.512447"
     inkscape:document-units="px"
     inkscape:current-layer="cloth-b"
     showgrid="false"
     inkscape:window-width="1366"
     inkscape:window-height="714"
     inkscape:window-x="0"
     inkscape:window-y="159"
     inkscape:window-maximized="1"
     fit-margin-top="5"
     fit-margin-left="5"
     fit-margin-right="5"
     fit-margin-bottom="5" />
  <metadata
     id="metadata3150">
    <rdf:RDF>
      <cc:Work
         rdf:about="">
        <dc:format>image/svg+xml</dc:format>
        <dc:type
           rdf:resource="http://purl.org/dc/dcmitype/StillImage" />
        <dc:title />
      </cc:Work>
    </rdf:RDF>
  </metadata>
  <g
     inkscape:label="レイヤー 1"
     inkscape:groupmode="layer"
     id="layer1"
     transform="translate(-636.8456,-708.978)">
    <g
       transform="translate(129.15948,233.94621)"
       id="cloth-b">
      <path
         style="fill:#86ad59"
         inkscape:connector-curvature="0"
         id="path3736"
         d="m 553.96786,620.82558 c -0.164,-3.805 -0.063,-8.101 -0.623,-12.598 -0.187,-1.498 -0.428,-2.151 -0.691,-3.357 0.707,0.037 0.997,-0.159 1.688,-0.159 0.674,0 0.73,0.119 1.472,0.061 -0.255,1.178 -0.311,2.098 -0.494,3.555 -0.571,4.545 -0.412,8.653 -0.583,12.499 l 37.214,0.04 c 0.048,-1.771 1.231,-0.951 2.051,-2.043 0.675,-0.899 -1.163,-2.124 -1.092,-3.187 0.141,-2.114 4.97,-8.567 4.999,-10.563 0.033,-2.274 -5.496,-5.774 -5.554,-7.722 -0.162,-5.52 -0.305,-3.539 -0.305,-3.539 l -0.366,0.013 c -0.007,-0.49 -0.012,-1.154 -0.016,-2 h -74.354 c -0.045,1.095 -0.5,2.086 -0.5,2.086 0,0 -0.321,-1.813 -0.454,3.711 -0.055,2.277 -3.595,6.234 -3.522,8.94 0.043,1.623 1.947,7.723 2.691,9.346 0.523,1.143 -1.75,2.521 0.091,3.096 1.458,0.455 1.332,1.369 1.391,1.861 l 36.957,-0.04 z" />
      <path
         style="fill:#778e5a"
         inkscape:connector-curvature="0"
         id="path3738"
         d="m 534.10286,607.99658 c 0,0 -15.115,1.454 -21.304,-1.913 0,0 -0.701,1.439 1.393,5.627 0,0 0.065,-1.257 3.524,-0.619 3.459,0.638 12.017,-0.182 16.387,-3.095 z" />
      <path
         style="fill:#778e5a"
         inkscape:connector-curvature="0"
         id="path3740"
         d="m 572.60886,612.99658 c 0,0 10.398,4.133 25.435,-7.518 0,0 -3.417,7.076 -5.147,8.806 -1.73,1.73 -7.451,0.805 -11.184,0.532 -3.733,-0.273 -4.124,-0.126 -9.104,-1.82 z" />
      <path
         style="fill:#778e5a"
         inkscape:connector-curvature="0"
         id="path3742"
         d="m 533.09986,618.82258 c 0,0 -12.472,0.818 -17.934,-1.002 0,0 -0.637,0.547 0,1.093 0.637,0.546 1.433,0.415 1.639,1.184 0.206,0.769 14.566,-0.456 16.295,-1.275 z" />
      <path
         style="fill:#778e5a"
         inkscape:connector-curvature="0"
         id="path3744"
         d="m 572.97286,618.09458 c 0,0 15.292,2.186 21.028,0.729 0,0 -0.09,0.547 -1.729,1.093 -1.639,0.546 -7.01,0.183 -13.291,-0.364 -6.281,-0.547 -6.008,-1.458 -6.008,-1.458 z" />
      <path
         style="fill:#778e5a"
         inkscape:connector-curvature="0"
         id="path3746"
         d="m 516.98686,592.91146 75.377,-0.39788 -0.182,4.91009 c 0,0 -17.01626,-0.23884 -28.18448,-0.41607 -5.04049,-0.08 -8.88977,-0.14742 -9.44589,-0.17468 -11.65761,2.10406 -24.83177,-2.27503 -37.83763,0.19287 z"
         sodipodi:nodetypes="cccsccc" />
      <path
         style="fill:#778e5a"
         inkscape:connector-curvature="0"
         id="path3748"
         d="m 549.03086,600.79758 c 0,0 3.187,2.003 9.923,0.273 0,0 -4.006,6.554 -4.006,11.743 0,0 -0.91,-6.099 0.364,-7.191 l -1.729,0.091 c 0,0 0.728,2.914 0.091,7.192 0,0 -0.637,-8.012 -4.643,-12.108 z" />
      <path
         style="fill:#acb2a3"
         inkscape:connector-curvature="0"
         id="path3750"
         d="m 554.34186,623.36458 c 0,-1.23 0.484,-2.587 -0.344,-2.587 l -36.908,0.006 c -0.567,0.13 -0.175,0.555 -0.175,1.786 l 0.087,1.644 c -0.305,1.169 -0.174,1.612 0.84,1.612 h 35 c 0.829,0 1.679,0.711 1.5,-2.461 l 0,0 z" />
      <path
         style="fill:#acb2a3"
         inkscape:connector-curvature="0"
         id="path3752"
         d="m 592.34086,623.36458 c 0,-1.23 0.49,-2.587 -0.349,-2.587 l -37.342,0.006 c -0.574,0.13 -0.177,0.555 -0.177,1.786 l 0.088,1.644 c -0.309,1.169 -0.176,1.612 0.85,1.612 h 35.412 c 0.838,0 1.699,0.711 1.518,-2.461 l 0,0 z" />
    </g>
    <g
       transform="translate(129.15948,233.94621)"
       id="cloth-t">
      <path
         inkscape:connector-curvature="0"
         style="fill:#c47c4b"
         d="m 230.50009,276.75 c 0,0 -0.23285,0.83417 -0.5625,2.03125 l 1.81241,0.0312 c 0,0 -6.06861,6.24298 -9.625,25.28125 -0.0111,0.0787 -0.0201,0.17093 -0.0312,0.25 -2.23437,15.90147 -4.294,38.93168 -4.34375,69.9375 0,0.071 -1.455,2.35075 -1.25,3.21875 0.109,0.463 0.25,1.5625 0.25,1.5625 0,0 -1.15725,2.2365 -1.15625,2.3125 0.01,1.132 1.90625,3.375 1.90625,3.375 l 74.75,0 c 0,0 1.95625,-1.8065 2.03125,-2.6875 0.079,-0.924 -1.3125,-3.09375 -1.3125,-3.09375 0,0 0.62875,-1.6365 0.59375,-2.3125 -0.039,-0.753 -1.14325,-2.06875 -1.15625,-2.46875 -0.92617,-30.25054 -3.10126,-52.76306 -5.25,-68.5 l -0.0625,0 c -0.35356,-16.97056 -9.90625,-26.875 -9.90625,-26.875 l 2.21866,-0.0312 c -0.30479,-1.21264 -0.53125,-2.03125 -0.53125,-2.03125 l -48.37482,0 z"
         transform="translate(300,210)"
         id="path3779"
         sodipodi:nodetypes="cccccccccccccccccccccc" />
      <path
         style="fill:#9e6e4d"
         inkscape:connector-curvature="0"
         id="path3781"
         d="m 594.28423,592.06963 c 0,0 -11.612,1.733 -37.813,2.704 -26.201,0.971 0,0 0,0 l 35.781,-0.012 c 0,0 1.306,-1.238 2.032,-2.692" />
      <path
         style="fill:#9e6e4d"
         inkscape:connector-curvature="0"
         id="path3783"
         d="m 593.55423,586.64163 c 0,0 -19.541,5.505 -31.677,4.805 14.417,0.832 17.745,0 24.676,-0.831 l 6.407,-1.647 0.594,-2.327 z" />
      <path
         style="fill:#9e6e4d"
         inkscape:connector-curvature="0"
         id="path3785"
         d="m 515.59623,591.36463 c 0,0 7.188,2.438 37.548,3.409 l -35.647,-0.018 c -10e-4,0 -1.465,-1.117 -1.901,-3.391 z" />
      <path
         style="fill:#9e6e4d"
         inkscape:connector-curvature="0"
         id="path3787"
         d="m 516.51523,587.50563 c 0,0 11.397,3.941 31.083,3.941 0,0 -21.487,0.276 -30.775,-1.941 l -0.308,-2 z" />
      <path
         style="fill:#845d42"
         inkscape:connector-curvature="0"
         id="path3791"
         d="m 555.95023,499.09963 c 0,0 -8.27,62.69801 0.521,95.674 l -2.251,0.104 c 0,0 -7.012,-15.678 0,-95.39499 l 1.73,-0.38301 z" />
      <path
         style="fill:#563929"
         d="m 561.22018,508.89066 c 0,1.15593 -0.93706,2.093 -2.093,2.093 -1.15593,0 -2.093,-0.93707 -2.093,-2.093 0,-1.15593 0.93707,-2.093 2.093,-2.093 1.15594,0 2.093,0.93707 2.093,2.093 z"
         id="circle3793"
         inkscape:connector-curvature="0" />
      <path
         style="fill:#563929"
         d="m 559.48535,526.77105 c 0,0.91185 -0.7392,1.65106 -1.65106,1.65106 -0.91185,0 -1.65106,-0.73921 -1.65106,-1.65106 0,-0.91185 0.73921,-1.65106 1.65106,-1.65106 0.91186,0 1.65106,0.73921 1.65106,1.65106 z"
         id="circle3795"
         inkscape:connector-curvature="0" />
      <path
         style="fill:#563929"
         d="m 560.04342,581.16623 c 0,0.91185 -0.7392,1.65106 -1.65106,1.65106 -0.91185,0 -1.65106,-0.73921 -1.65106,-1.65106 0,-0.91185 0.73921,-1.65106 1.65106,-1.65106 0.91186,0 1.65106,0.73921 1.65106,1.65106 z"
         id="circle3797"
         inkscape:connector-curvature="0" />
      <path
         inkscape:connector-curvature="0"
         id="path4097"
         d="m 559.33631,543.33602 c 0,0.91185 -0.7392,1.65106 -1.65106,1.65106 -0.91185,0 -1.65106,-0.73921 -1.65106,-1.65106 0,-0.91185 0.73921,-1.65106 1.65106,-1.65106 0.91186,0 1.65106,0.73921 1.65106,1.65106 z"
         style="fill:#563929" />
      <path
         inkscape:connector-curvature="0"
         id="path4099"
         d="m 558.77824,563.89416 c 0,0.91185 -0.7392,1.65106 -1.65106,1.65106 -0.91185,0 -1.65106,-0.73921 -1.65106,-1.65106 0,-0.91185 0.73921,-1.65106 1.65106,-1.65106 0.91186,0 1.65106,0.73921 1.65106,1.65106 z"
         style="fill:#563929" />
      <path
         style="fill:#563929;stroke:none"
         d="m 546.07124,517.0971 c 0,0 -4.97459,1.2653 -17.34375,0.1875 l -0.375,7.28125 0.40625,0.0937 0.34375,-6.8125 c 7.16792,3.91999 16.21875,0.0937 16.21875,0.0937 l -0.15625,13.875 c -0.71853,1.66281 -1.47339,2.81992 -2.53125,3.59375 l -0.1875,0.625 c 1.42565,-0.82387 2.27816,-2.12316 3.4375,-3.8125 l 0.1875,-15.125 z m -17.6875,14.84375 c 1.57798,4.96018 4.1056,4.61898 6.46875,4.9375 l 0.0937,-0.375 c -0.0886,-0.007 -0.15969,0.008 -0.25,0 -2.22723,-0.35341 -4.46369,0.20013 -5.9375,-4.46875 l -0.375,-0.0937 z"
         id="path4101"
         inkscape:connector-curvature="0" />
    </g>
  </g>
</svg>
