<?xml version="1.0" encoding="UTF-8" standalone="no"?>
<!-- Created with Inkscape (http://www.inkscape.org/) -->

<svg
   xmlns:dc="http://purl.org/dc/elements/1.1/"
   xmlns:cc="http://creativecommons.org/ns#"
   xmlns:rdf="http://www.w3.org/1999/02/22-rdf-syntax-ns#"
   xmlns:svg="http://www.w3.org/2000/svg"
   xmlns="http://www.w3.org/2000/svg"
   xmlns:xlink="http://www.w3.org/1999/xlink"
   xmlns:sodipodi="http://sodipodi.sourceforge.net/DTD/sodipodi-0.dtd"
   xmlns:inkscape="http://www.inkscape.org/namespaces/inkscape"
   width="281.133"
   height="324.32101"
   id="svg3145"
   version="1.1"
   inkscape:version="0.48.4 r9939"
   sodipodi:docname="forehair.svg">
  <defs
     id="defs3147">
    <linearGradient
       id="linearGradient3823">
      <stop
         style="stop-color:#ffffff;stop-opacity:1;"
         offset="0"
         id="stop3825" />
      <stop
         style="stop-color:#ffffff;stop-opacity:0;"
         offset="1"
         id="stop3827" />
    </linearGradient>
    <linearGradient
       id="linearGradient3043">
      <stop
         id="stop3045"
         offset="0"
         style="stop-color:#ffffff;stop-opacity:0.61077845;" />
      <stop
         style="stop-color:#ffffff;stop-opacity:0.63137255;"
         offset="0.5"
         id="stop3047" />
      <stop
         id="stop3049"
         offset="0.5"
         style="stop-color:#ffffff;stop-opacity:0.78443116;" />
      <stop
         id="stop3051"
         offset="1"
         style="stop-color:#ffffff;stop-opacity:0.41317365;" />
    </linearGradient>
    <linearGradient
       id="linearGradient3025">
      <stop
         style="stop-color:#ffffff;stop-opacity:0.61077845;"
         offset="0"
         id="stop3027" />
      <stop
         id="stop3033"
         offset="0.5"
         style="stop-color:#ffffff;stop-opacity:0.63137255;" />
      <stop
         style="stop-color:#ffffff;stop-opacity:0.78443116;"
         offset="0.5"
         id="stop3035" />
      <stop
         style="stop-color:#ffffff;stop-opacity:0.41317365;"
         offset="1"
         id="stop3029" />
    </linearGradient>
    <linearGradient
       inkscape:collect="always"
       xlink:href="#linearGradient3025"
       id="linearGradient3031"
       x1="490.38507"
       y1="395.16071"
       x2="495.38504"
       y2="441.58929"
       gradientUnits="userSpaceOnUse" />
    <linearGradient
       inkscape:collect="always"
       xlink:href="#linearGradient3043"
       id="linearGradient3041"
       gradientUnits="userSpaceOnUse"
       x1="507.55164"
       y1="396.18298"
       x2="501.63504"
       y2="441.58929"
       gradientTransform="matrix(-1,0,0,1,1103.5087,4.6460414e-6)" />
    <linearGradient
       inkscape:collect="always"
       xlink:href="#linearGradient3823"
       id="linearGradient3829"
       x1="470.57541"
       y1="397.28305"
       x2="472.37445"
       y2="409.99338"
       gradientUnits="userSpaceOnUse"
       gradientTransform="matrix(1.4542704,0,0,2.0349632,-211.22697,-413.42445)" />
    <linearGradient
       inkscape:collect="always"
       xlink:href="#linearGradient3823"
       id="linearGradient3833"
       gradientUnits="userSpaceOnUse"
       gradientTransform="matrix(1.4542704,0,0,2.0349632,-115.26248,-413.42445)"
       x1="470.57541"
       y1="397.28305"
       x2="472.37445"
       y2="409.99338" />
  </defs>
  <sodipodi:namedview
     id="base"
     pagecolor="#ffffff"
     bordercolor="#666666"
     borderopacity="1.0"
     inkscape:pageopacity="0.0"
     inkscape:pageshadow="2"
     inkscape:zoom="1.979899"
     inkscape:cx="155.15969"
     inkscape:cy="161.0527"
     inkscape:document-units="px"
     inkscape:current-layer="forehair-5"
     showgrid="false"
     inkscape:window-width="1366"
     inkscape:window-height="714"
     inkscape:window-x="0"
     inkscape:window-y="159"
     inkscape:window-maximized="1"
     fit-margin-top="5"
     fit-margin-left="5"
     fit-margin-right="5"
     fit-margin-bottom="5"
     showguides="true"
     inkscape:guide-bbox="true" />
  <metadata
     id="metadata3150">
    <rdf:RDF>
      <cc:Work
         rdf:about="">
        <dc:format>image/svg+xml</dc:format>
        <dc:type
           rdf:resource="http://purl.org/dc/dcmitype/StillImage" />
        <dc:title />
      </cc:Work>
    </rdf:RDF>
  </metadata>
  <g
     inkscape:label="レイヤー 1"
     inkscape:groupmode="layer"
     id="layer1"
     transform="translate(-788.64896,-81.07728)">
    <g
       transform="translate(378.46546,-128.01222)"
       id="forehair-5"
       class="head">
      <g
         transform="translate(1.0484375,3.0712279)"
         id="glasses">
        <path
           style="opacity:0.47999997999999999;fill:url(#linearGradient3031);fill-opacity:1"
           d="m 459.39286,395.39286 c 0,0 80.28571,-0.89286 85.64285,1.96428 C 548.07143,410.57143 544.5,439.5 544.5,439.5 c 0,0 -53.5,4.64286 -77.42858,-2.32143 -7.67857,-7.32143 -7.67856,-41.78571 -7.67856,-41.78571 z"
           id="rect3842"
           inkscape:connector-curvature="0"
           sodipodi:nodetypes="ccccc" />
        <path
           sodipodi:nodetypes="ccccc"
           inkscape:connector-curvature="0"
           id="path3037"
           d="m 644.11592,395.39286 c 0,0 -80.28571,-0.89286 -85.64285,1.96428 -3.03572,13.21429 0.53571,42.14286 0.53571,42.14286 0,0 53.5,4.64286 77.42858,-2.32143 7.67857,-7.32143 7.67856,-41.78571 7.67856,-41.78571 z"
           style="opacity:0.47999997999999999;fill:url(#linearGradient3041);fill-opacity:1" />
        <path
           style="fill:#a4ba67"
           d="m 158.0625,187.75 c -6.093,0 -10.435,4.73821 -10.875,14.5625 l -2.21875,0 0,14.375 2.1875,0 0,1.65625 c 0,2.76448 3.00926,14.96633 9.37754,15.86231 66.28537,9.32596 76.78317,-4.33999 76.78317,-4.33999 3.92976,-5.18731 7.15217,-6.95353 9.69643,-17.23661 l 2.14286,-8.66071 c 2.54426,-10.28307 -5.943,-16.21875 -12.375,-16.21875 z m 3.40625,2.65625 63.375,0 c 9.096,0 10.3125,1.76575 10.3125,14.53125 l 0,10.34375 c -2.95167,28.5432 -68.46265,15.94765 -73.9375,14.9375 -6.91892,-1.26269 -9.0625,-2.64036 -9.0625,-14.9375 l 0,-10.34375 c 0,-10.85371 1.2905,-14.53125 9.3125,-14.53125 z"
           transform="translate(406.35714,206.01827)"
           id="path3844"
           inkscape:connector-curvature="0"
           sodipodi:nodetypes="sccccsscsssssssccsss" />
        <path
           id="path3001"
           d="m 539.42469,393.76827 c 6.093,0 10.435,4.73821 10.875,14.5625 l 2.21875,0 0,14.375 -2.1875,0 0,1.65625 c 0,10.59316 -2.78216,14.04353 -9.125,15.10469 -66.41753,11.11169 -78.25508,-5.30155 -78.25508,-5.30155 -5.04079,-6.6487 -8.43019,-12.00261 -8.85215,-14.34883 l -1.76777,-9.82931 c -1.87506,-10.42588 5.943,-16.21875 12.375,-16.21875 z m -3.40625,2.65625 -63.375,0 c -9.096,0 -10.3125,1.76575 -10.3125,14.53125 l 0,10.34375 c 2.95167,28.5432 68.46265,15.94765 73.9375,14.9375 6.91892,-1.26269 9.0625,-2.64036 9.0625,-14.9375 l 0,-10.34375 c 0,-10.85371 -1.2905,-14.53125 -9.3125,-14.53125 z"
           style="fill:#a4ba67"
           inkscape:connector-curvature="0"
           sodipodi:nodetypes="sccccsscsssssssccsss" />
        <rect
           style="fill:url(#linearGradient3829);fill-opacity:1;stroke:none"
           id="rect3053"
           width="77.387962"
           height="38.155563"
           x="464.27029"
           y="397.61737"
           rx="7.4277234"
           ry="7.4277234" />
        <rect
           ry="7.4277234"
           rx="7.4277234"
           y="397.61737"
           x="560.2348"
           height="38.155563"
           width="77.387962"
           id="rect3831"
           style="fill:url(#linearGradient3833);fill-opacity:1.0;stroke:none" />
      </g>
      <path
         d="m 638.9935,489.8265 -0.40289,2.20971 -0.70711,4.78429 c -2.076,12.32 -4.48,22.55 -7.054,30.994 2.41,-3.582 6.829,-9.919 11.798,-20.823 28.023,-29.515 43.689,-73.078 43.689,-122.828 0,-91.913 -54.896,-170.074 -136.333,-170.074 -81.437,0 -134.8,79.137 -134.8,171.05 0,48.178 14.7,90.294 40.7,119.474 l 0,-9.935 c 5.773,12.417 13.098,24.312 22.376,33.732 0,0 -22.342,-43.81 -18.434,-123.253 0.094,0.338 0.391,-3.998 0.391,-3.998 l 18.333,-10.333 c 0,0 -0.987,-13.872 0.667,-30.333 1.261,-12.541 5.087,-26.861 5.988,-36.08 -0.108,2.82 -0.133,5.947 0.012,9.08 0.581,12.538 3,25.667 3,25.667 0,0 19.158,-7.791 19.667,-6.667 0,0 -0.52414,-29.54729 10.47586,-53.88129 -2,19.667 -1.417,30.70272 3.85714,40.21429 0,0 1.20271,-14.38129 5.95271,-42.22686 l 0.091,0.02 c -1.467,27.89 2.29029,55.87386 2.29029,55.87386 l 37.667,-1 c 0,0 6.667,-40 6.875,-53.872 0,0 2.159,6.211 1.791,16.871 -0.333,9.667 -1.667,17.334 -1.667,17.334 6.333,-9.334 8,-36.667 8,-36.667 0,0 3.333,14 4.333,29 1.158,17.375 1.333,24.999 1.333,24.999 l 23.334,3 c 0,0 -1.457,-26.752 -1.948,-35.206 0.328,0.853 2.138,6.539 3.947,31.873 0,0 1.006,-1.828 3,-11 1.667,-7.667 2.334,-12.333 2.334,-12.333 l 3.333,43 13.667,4.667 1,-11 c 0,0 7.914,35.031 6.949,62.427 -0.92,26.16 -2.887,47.646 -5.505,65.24 z"
         id="path3847"
         inkscape:connector-curvature="0"
         style="fill:#604130"
         sodipodi:nodetypes="cccccsssccccccccccccccccccccccccccccccccc" />
      <path
         d="m 455.8835,494.6795 c 0,0 -43.593,-81.132 -13.587,-160.237 0,0 -26.51,51.686 -8.865,111.838 15.003,51.147 22.452,48.399 22.452,48.399 z"
         id="path3849"
         inkscape:connector-curvature="0"
         style="fill:#47352c" />
      <path
         d="m 460.2165,401.1605 c 0,0 -3.6,-46.26 11.403,-76.947 10e-4,0 -28.261,33.19 -11.403,76.947 z"
         id="path3851"
         inkscape:connector-curvature="0"
         style="fill:#47352c" />
      <path
         d="m 498.2165,276.4775 c 0,0 -15.685,42.28 -4.092,79.787 l -5.907,2.896 c -10e-4,0 -13.188,-65.635 9.999,-82.683 z"
         id="path3853"
         inkscape:connector-curvature="0"
         style="fill:#47352c" />
      <path
         d="m 530.5505,352.4945 c 0,0 -6.42,-76.018 1.763,-91.02 0,0 -2.046,72.968 6.819,90.699 l -8.582,0.321 z"
         id="path3855"
         inkscape:connector-curvature="0"
         style="fill:#47352c" />
      <path
         d="m 582.0945,268.2945 c 0,0 14.32,27.278 13.639,81.833 l -6.85,-0.968 c 0,0 5.486,-39.267 -12.244,-78.819 l 7.501,11.593 -2.046,-13.639 z"
         id="path3857"
         inkscape:connector-curvature="0"
         style="fill:#47352c" />
      <path
         d="m 639.3775,339.8985 -1.827,22.261 c 0,0 20.356,57.627 -6.721,165.655 0,0 22.187,-54.255 16.731,-139.498 l -8.183,-48.418 z"
         id="path3859"
         inkscape:connector-curvature="0"
         style="fill:#47352c" />
      <path
         d="m 654.3805,355.5835 c 0,0 12.637,81.867 -11.753,151.408 0,0 17.311,-44.341 19.937,-115.266 0.681,-18.412 -8.184,-36.142 -8.184,-36.142 z"
         id="path3861"
         inkscape:connector-curvature="0"
         style="fill:#47352c" />
      <path
         style="fill:#c0b785;fill-opacity:1;stroke:none"
         d="m 349.625,88 -32.375,9.75 0.25,2.75 33.125,-10.375 z m 1.75,4.875 -32.625,10.875 0.625,2.375 32.375,-10.5 z"
         transform="translate(300,210)"
         id="path4222"
         inkscape:connector-curvature="0"
         sodipodi:nodetypes="cccccccccc" />
      <path
         style="fill:#ffffff;fill-opacity:1;stroke:none"
         d="m 630.06787,285.90314 c -1.65075,0.62855 -2.53373,2.99932 -1.97491,5.50048 0.13048,0.58403 0.40002,1.38453 0.69842,2.24549 -0.53747,-0.70634 -1.07875,-1.30973 -1.5,-1.68216 -1.95032,-1.72438 -4.44801,-1.77394 -5.5862,-0.0968 -1.13815,1.67723 -0.48683,4.4488 1.46356,6.17316 0.0842,0.0744 0.21113,0.17036 0.30905,0.25115 -0.12073,-0.0173 -0.27572,-0.067 -0.38205,-0.0747 -2.41614,-0.17635 -4.37537,1.44239 -4.3933,3.60725 -0.0142,1.72151 1.2305,3.23572 2.9484,3.88816 -1.29089,1.3135 -1.77323,3.25007 -1.03318,4.80977 0.92841,1.95651 3.3931,2.56902 5.51079,1.39443 -1.077,2.36256 -0.53008,5.1595 1.19586,6.23297 1.72599,1.07343 3.99091,0.0135 5.06787,-2.34905 0.33937,-0.74448 0.74402,-1.93962 1.09939,-3.25556 0.003,1.39323 0.11295,2.69593 0.30811,3.51745 0.63172,2.6596 2.62826,4.4421 4.48927,3.99219 1.6501,-0.399 2.61469,-2.4166 2.37303,-4.72487 1.69429,1.41027 3.80145,1.538 4.96375,0.20381 1.3116,-1.50562 0.93675,-4.29234 -0.83426,-6.24972 -0.16521,-0.1826 -0.39588,-0.41366 -0.61859,-0.63028 0.28105,0.0894 0.56023,0.19964 0.78454,0.24098 2.40219,0.44277 4.52913,-0.93517 4.73691,-3.07563 0.20774,-2.14047 -1.59407,-4.23594 -3.99626,-4.6787 -0.52243,-0.0963 -1.24325,-0.1845 -2.04361,-0.21584 0.73849,-0.28001 1.40055,-0.56638 1.83189,-0.85757 2.01978,-1.36354 2.78398,-3.98422 1.72573,-5.86107 -1.05826,-1.87684 -3.52946,-2.3011 -5.54924,-0.93756 -0.0546,0.0368 -0.1354,0.0978 -0.19371,0.13928 0.0268,-0.0669 0.0705,-0.14987 0.093,-0.21289 0.88293,-2.47155 0.14383,-5.22751 -1.65092,-6.1313 -1.79478,-0.90379 -3.96203,0.37206 -4.84495,2.8436 -0.043,0.12055 -0.081,0.30324 -0.12556,0.44432 -0.0241,-0.14905 -0.0468,-0.33528 -0.0755,-0.46344 -0.59607,-2.66789 -2.58085,-4.48261 -4.44934,-4.06515 -0.11679,0.0261 -0.23794,0.0359 -0.34799,0.0778 z m 2.0832,14.10388 c 0.37544,0.334 0.73975,0.50715 1.07996,0.43114 0.34102,-0.0762 0.62968,-0.39341 0.87408,-0.86772 0.14114,0.35519 0.33284,0.63357 0.59231,0.76424 0.3235,0.1629 0.71219,0.10376 1.15832,-0.0987 -0.0598,0.36507 -0.047,0.70124 0.10417,0.96937 0.22633,0.4014 0.72689,0.63901 1.3491,0.75525 -0.37837,0.25961 -0.62228,0.56496 -0.65945,0.94785 -0.0389,0.40134 0.12038,0.84423 0.46042,1.30603 -0.34953,-0.005 -0.63521,0.0906 -0.82931,0.31337 -0.20266,0.23263 -0.29268,0.61377 -0.29736,1.05907 -0.24123,-0.13119 -0.48257,-0.18442 -0.70375,-0.13095 -0.44431,0.10747 -0.79422,0.64265 -1.06631,1.39098 -0.0899,-0.62857 -0.27678,-1.10853 -0.63467,-1.33114 -0.30563,-0.1901 -0.70648,-0.17794 -1.15881,-0.0293 0.0779,-0.34561 0.092,-0.64849 -0.037,-0.92033 -0.1326,-0.27933 -0.37987,-0.50874 -0.71252,-0.67334 0.11885,-0.18945 0.20358,-0.37374 0.20538,-0.59023 0.003,-0.39577 -0.20072,-0.83786 -0.56068,-1.25161 0.32189,-0.0476 0.595,-0.15661 0.75533,-0.39291 0.24543,-0.36165 0.23851,-0.95208 0.0808,-1.65109 z"
         id="path4199"
         inkscape:connector-curvature="0" />
      <path
         style="fill:#eddb7e;fill-opacity:1;stroke:none"
         d="m 638.46338,302.14872 c 0.58102,2.60051 -0.9233,5.14999 -3.35996,5.6944 -2.43668,0.54441 -4.883,-1.1224 -5.46402,-3.72291 -0.58102,-2.60052 0.92329,-5.15 3.35997,-5.69441 2.43666,-0.5444 4.883,1.1224 5.46401,3.72292 z"
         id="path4196"
         inkscape:connector-curvature="0" />
    </g>
  </g>
</svg>
