<?xml version="1.0" encoding="UTF-8" standalone="no"?>
<!-- Created with Inkscape (http://www.inkscape.org/) -->

<svg
   xmlns:dc="http://purl.org/dc/elements/1.1/"
   xmlns:cc="http://creativecommons.org/ns#"
   xmlns:rdf="http://www.w3.org/1999/02/22-rdf-syntax-ns#"
   xmlns:svg="http://www.w3.org/2000/svg"
   xmlns="http://www.w3.org/2000/svg"
   xmlns:sodipodi="http://sodipodi.sourceforge.net/DTD/sodipodi-0.dtd"
   xmlns:inkscape="http://www.inkscape.org/namespaces/inkscape"
   width="211"
   height="62.75"
   id="svg3145"
   version="1.1"
   inkscape:version="0.48.4 r9939"
   sodipodi:docname="backhair.svg">
  <defs
     id="defs3147" />
  <sodipodi:namedview
     id="base"
     pagecolor="#ffffff"
     bordercolor="#666666"
     borderopacity="1.0"
     inkscape:pageopacity="0.0"
     inkscape:pageshadow="2"
     inkscape:zoom="0.35"
     inkscape:cx="-120.44772"
     inkscape:cy="194.16439"
     inkscape:document-units="px"
     inkscape:current-layer="layer1"
     showgrid="false"
     inkscape:window-width="1366"
     inkscape:window-height="714"
     inkscape:window-x="0"
     inkscape:window-y="159"
     inkscape:window-maximized="1"
     fit-margin-top="5"
     fit-margin-left="5"
     fit-margin-right="5"
     fit-margin-bottom="5" />
  <metadata
     id="metadata3150">
    <rdf:RDF>
      <cc:Work
         rdf:about="">
        <dc:format>image/svg+xml</dc:format>
        <dc:type
           rdf:resource="http://purl.org/dc/dcmitype/StillImage" />
        <dc:title></dc:title>
      </cc:Work>
    </rdf:RDF>
  </metadata>
  <g
     inkscape:label="レイヤー 1"
     inkscape:groupmode="layer"
     id="layer1"
     transform="translate(-495.44772,-643.77657)">
    <g
       transform="translate(49.947723,258.02657)"
       id="glasses">
      <rect
         x="557.5"
         y="394"
         width="85"
         height="45.5"
         id="rect3840"
         style="opacity:0.47999998;fill:#ffffff" />
      <rect
         x="458.5"
         y="393.25"
         width="86"
         height="46.25"
         id="rect3842"
         style="opacity:0.47999998;fill:#ffffff" />
      <path
         d="m 639.129,390.75 -74.72,0 c -6.093,0 -10.426,7.75904 -10.866,17.58333 l -5.091,0 C 547.967,398.48987 543.061,390.75 536.958,390.75 l -74.719,0 c -6.431,0 -11.739,8.58866 -11.739,19.18182 l 0,14.38636 c 0,10.59316 5.308,19.18182 11.739,19.18182 l 74.719,0 c 6.431,0 11.542,-8.58866 11.542,-19.18182 l 0,-1.59848 5,0 0,1.64963 c 0,10.59316 4.478,19.13067 10.909,19.13067 l 74.72,0 c 6.432,0 12.371,-8.53751 12.371,-19.13067 l 0,-14.38636 C 651.5,399.38982 645.561,390.75 639.129,390.75 z M 541.5,421.2427 c 0,12.29554 -0.3,15.12743 -7.724,15.66133 l -63.364,0.25 c -9.39409,0.0371 -7.162,-6.00712 -7.162,-15.91133 l 0,-10.32782 c 0,-12.7655 -1.933,-13.49504 7.162,-14.02095 l 63.364,0 c 8.022,0.52591 7.724,3.16724 7.724,14.02095 z m 100,0.0511 c 0,9.90422 -1.15,14.92821 -10.545,14.92821 l -63.364,0 c -7.424,0 -9.091,-2.63107 -9.091,-14.92821 l 0,-10.3278 c 0,-10.85371 1.319,-14.55434 9.341,-14.55434 l 63.364,0 c 9.096,0 10.295,1.78884 10.295,14.55434 z"
         id="path3844"
         inkscape:connector-curvature="0"
         style="fill:#a4ba67"
         sodipodi:nodetypes="ssccsssssssccssssssscsssccsssssssssss" />
    </g>
  </g>
</svg>
