<?xml version="1.0" encoding="UTF-8" standalone="no"?>
<!-- Created with Inkscape (http://www.inkscape.org/) -->

<svg
   xmlns:dc="http://purl.org/dc/elements/1.1/"
   xmlns:cc="http://creativecommons.org/ns#"
   xmlns:rdf="http://www.w3.org/1999/02/22-rdf-syntax-ns#"
   xmlns:svg="http://www.w3.org/2000/svg"
   xmlns="http://www.w3.org/2000/svg"
   xmlns:sodipodi="http://sodipodi.sourceforge.net/DTD/sodipodi-0.dtd"
   xmlns:inkscape="http://www.inkscape.org/namespaces/inkscape"
   width="56.162086"
   height="43.86018"
   id="svg3163"
   version="1.1"
   inkscape:version="0.48.4 r9939"
   sodipodi:docname="shoulder-left.svg">
  <defs
     id="defs3165" />
  <sodipodi:namedview
     id="base"
     pagecolor="#ffffff"
     bordercolor="#666666"
     borderopacity="1.0"
     inkscape:pageopacity="0.0"
     inkscape:pageshadow="2"
     inkscape:zoom="5.6"
     inkscape:cx="49.914551"
     inkscape:cy="22.261399"
     inkscape:document-units="px"
     inkscape:current-layer="layer1"
     showgrid="false"
     inkscape:window-width="1366"
     inkscape:window-height="714"
     inkscape:window-x="0"
     inkscape:window-y="159"
     inkscape:window-maximized="1"
     fit-margin-top="5"
     fit-margin-left="5"
     fit-margin-right="5"
     fit-margin-bottom="5" />
  <metadata
     id="metadata3168">
    <rdf:RDF>
      <cc:Work
         rdf:about="">
        <dc:format>image/svg+xml</dc:format>
        <dc:type
           rdf:resource="http://purl.org/dc/dcmitype/StillImage" />
        <dc:title />
      </cc:Work>
    </rdf:RDF>
  </metadata>
  <g
     inkscape:label="レイヤー 1"
     inkscape:groupmode="layer"
     id="layer1"
     transform="translate(-349.11576,-496.7469)">
    <path
       sodipodi:nodetypes="cczcccc"
       inkscape:connector-curvature="0"
       id="rect3770-0"
       d="m 375.06245,530.04555 c 0,0 -8.60013,-0.47672 -10.63584,-2.25172 -2.46037,-2.75771 -5.48022,-5.85069 -5.30126,-10.014 0.17896,-4.1633 3.62367,-5.59987 6.63259,-5.76187 0,0 14.64072,-6.62226 30.05013,-3.4473 6.22974,14.60017 4.12896,22.16798 4.12896,22.16798 -7.01896,1.8186 -21.59173,-0.22987 -24.87458,-0.69309 z"
       style="fill:#ffe3c7;fill-opacity:1;stroke:none" />
    <path
       inkscape:connector-curvature="0"
       style="fill:#efa5b7"
       d="m 381.87667,531.34288 c 0.0243,0.70358 0.73634,1.40481 1.72926,1.65868 1.13477,0.29013 2.19695,-0.12419 2.3998,-0.91757 0.10819,-0.42302 -0.0392,-0.8659 -0.3882,-1.23519 0.7606,-0.0489 1.36995,-0.44629 1.51751,-1.02344 0.13199,-0.5162 -0.15061,-1.04421 -0.67053,-1.44694 0.34928,-0.17369 0.58297,-0.46919 0.67053,-0.81169 0.13199,-0.5162 -0.15061,-1.04421 -0.67053,-1.44694 0.34928,-0.17369 0.58297,-0.4692 0.67053,-0.81169 0.10819,-0.42302 -0.0392,-0.86591 -0.3882,-1.23519 0.76061,-0.0489 1.36995,-0.4463 1.51752,-1.02344 0.14726,-0.57597 -0.17867,-1.22145 -0.8117,-1.6234 0.34407,-0.24714 0.57644,-0.57684 0.59995,-0.95286 0.0332,-0.53177 -0.33159,-0.97194 -0.91757,-1.27048 0.31069,-0.23586 0.47202,-0.60002 0.49408,-0.95286 0.0332,-0.53176 -0.33159,-0.97194 -0.91757,-1.27047 0.31069,-0.23587 0.47202,-0.56474 0.49408,-0.91757 0.0273,-0.43578 -0.1881,-0.867 -0.59995,-1.16461 0.73808,-0.1901 1.26859,-0.67593 1.30577,-1.27048 0.0512,-0.81731 -0.84261,-1.5503 -2.01159,-1.62339 -1.16899,-0.0731 -2.17224,0.55906 -2.22334,1.37635 -0.0273,0.43784 0.25522,0.83134 0.67053,1.12932 -0.75588,0.18382 -1.30332,0.702 -1.34106,1.30577 -0.0332,0.53177 0.33159,1.00723 0.91756,1.30577 -0.30236,0.23455 -0.47235,0.57022 -0.49407,0.91757 -0.0332,0.53176 0.33159,0.97194 0.91757,1.27048 -0.30237,0.23455 -0.47236,0.6055 -0.49408,0.95286 -0.0273,0.43782 0.21994,0.83133 0.63524,1.12931 -0.75588,0.18383 -1.30332,0.66672 -1.34106,1.27048 -0.007,0.10209 0.0128,0.18425 0.0352,0.28233 0.0529,0.23365 0.19805,0.4461 0.38821,0.63524 -0.25016,0.17509 -0.45838,0.42816 -0.52937,0.70582 -0.13198,0.5162 0.15062,1.04421 0.67053,1.44694 -0.34085,0.17395 -0.58432,0.47452 -0.67053,0.81169 -0.13198,0.5162 0.15062,1.04421 0.67053,1.44694 -0.34085,0.17395 -0.58432,0.47452 -0.67053,0.8117 -0.10864,0.42501 0.0711,0.86488 0.42349,1.23518 -0.77691,0.0394 -1.40296,0.43735 -1.55281,1.02345 -0.0253,0.0992 -0.0388,0.18182 -0.0352,0.28233 z"
       id="ellipse3757-2" />
    <path
       id="path2993"
       d="m 384.50598,520.89517 c 0.36133,0.6042 1.32363,0.87388 2.31557,0.61617 1.13364,-0.29451 1.86322,-1.17063 1.65731,-1.96323 -0.10975,-0.42261 -0.45284,-0.73908 -0.93687,-0.89366 0.6422,-0.41046 0.98355,-1.05287 0.83376,-1.62945 -0.13396,-0.5157 -0.63657,-0.84132 -1.2864,-0.94256 0.22183,-0.32089 0.28356,-0.69253 0.19464,-1.0347 -0.13397,-0.51568 -0.63658,-0.84132 -1.28638,-0.94257 0.2218,-0.32087 0.28353,-0.69253 0.19463,-1.03469 -0.10976,-0.42261 -0.45285,-0.73908 -0.93688,-0.89366 0.6422,-0.41046 0.98356,-1.05288 0.83376,-1.62945 -0.14947,-0.57539 -0.7468,-0.98292 -1.49525,-1.02881 0.18175,-0.38266 0.22577,-0.78361 0.0646,-1.12414 -0.22796,-0.48157 -0.76007,-0.69059 -1.41735,-0.66868 0.15803,-0.35665 0.12323,-0.75343 -0.0281,-1.07297 -0.22797,-0.48157 -0.76008,-0.69059 -1.41735,-0.66869 0.15803,-0.35665 0.1402,-0.72254 -0.011,-1.04208 -0.18672,-0.3947 -0.58374,-0.66807 -1.08813,-0.72952 0.55424,-0.52319 0.78383,-1.20492 0.52899,-1.74337 -0.35027,-0.74021 -1.48698,-0.94987 -2.54568,-0.44876 -1.05867,0.50108 -1.6314,1.53939 -1.28108,2.27955 0.18771,0.39651 0.62526,0.60441 1.13287,0.66453 -0.57286,0.52628 -0.80163,1.24452 -0.54285,1.79132 0.22799,0.48156 0.77715,0.72147 1.43443,0.69958 -0.15133,0.35148 -0.13798,0.72749 0.011,1.04207 0.22796,0.48156 0.76007,0.69058 1.41735,0.66869 -0.15133,0.35147 -0.12081,0.75839 0.0281,1.07297 0.1877,0.39649 0.59437,0.62146 1.10197,0.68157 -0.57286,0.5263 -0.81869,1.21363 -0.55989,1.76042 0.0433,0.0926 0.10023,0.15514 0.1673,0.23013 0.15921,0.17899 0.38902,0.29479 0.6469,0.36846 -0.13444,0.27417 -0.19436,0.59637 -0.12276,0.87369 0.13398,0.51569 0.63659,0.84133 1.2864,0.94256 -0.21431,0.31704 -0.28216,0.69785 -0.19464,1.0347 0.13397,0.51568 0.63658,0.84131 1.28639,0.94256 -0.21431,0.31703 -0.28216,0.69784 -0.19464,1.03469 0.11032,0.42458 0.48032,0.72275 0.96777,0.8766 -0.66108,0.41004 -1.01679,1.06101 -0.86466,1.64653 0.0258,0.099 0.0539,0.17794 0.10561,0.26418 z"
       style="fill:#efa5b7"
       inkscape:connector-curvature="0" />
    <path
       style="fill:#c47c4b;stroke:none"
       d="m 358.51529,522.79892 c 6.78765,15.57165 22.55895,12.5771 22.55895,12.5771 0,0 3.9319,0.95054 4.19236,-12.17784 0.28124,-14.17541 -4.00104,-16.75943 -4.00104,-16.75943 0,0 -0.66622,-2.65589 -2.25389,-2.82116 -10.7906,-1.1232 -22.02083,-2.84061 -23.76917,1.38306 -0.99099,2.39404 -3.05249,11.51033 3.27279,17.79827 z"
       id="path4155-4"
       inkscape:connector-curvature="0"
       sodipodi:nodetypes="ccscssc" />
  </g>
</svg>
